<svg id="Layer_1" data-name="Layer 1" xmlns="http://www.w3.org/2000/svg" viewBox="0 0 960 640"><defs><style>.cls-1{fill:#28a197;}.cls-2{fill:#dadada;}.cls-3{fill:#fff;}.cls-4{fill:#0b0b0b;}</style></defs><title>confirm-screen copy</title><rect class="cls-1" x="57.35" y="141" width="839.88" height="232.78"/><path class="cls-2" d="M0,40V10A10,10,0,0,1,10,0H950a10,10,0,0,1,10,10V40"/><circle class="cls-3" cx="25.38" cy="20" r="8.5"/><circle class="cls-3" cx="49.13" cy="20" r="8.5"/><circle class="cls-3" cx="72.88" cy="20" r="8.5"/><rect class="cls-4" x="1" y="40" width="958" height="65"/><polygon class="cls-3" points="267 59.73 256.29 72.71 256.29 59.73 250.23 59.73 250.23 89.71 256.29 89.71 256.29 80.6 260.16 76.27 268.08 89.71 275.13 89.71 264.05 71.65 274.46 59.73 267 59.73"/><path class="cls-3" d="M229.64,84.27a5.27,5.27,0,0,1-2-1.17,5.51,5.51,0,0,1-1.31-2,7.58,7.58,0,0,1-.48-2.83V59.69h-6V79.17a11,11,0,0,0,.91,4.54,9.9,9.9,0,0,0,2.54,3.45,11.54,11.54,0,0,0,3.86,2.2,15.83,15.83,0,0,0,9.78,0,11.45,11.45,0,0,0,3.86-2.2,9.94,9.94,0,0,0,2.53-3.45,11,11,0,0,0,.91-4.54V59.69h-6V78.28a7.6,7.6,0,0,1-.48,2.83,5.52,5.52,0,0,1-1.31,2,5.3,5.3,0,0,1-2,1.17,8,8,0,0,1-4.91,0"/><path class="cls-3" d="M207.73,87.81a3.93,3.93,0,0,0,.83,1.21,3.74,3.74,0,0,0,1.22.82,3.8,3.8,0,0,0,1.47.29,3.72,3.72,0,0,0,1.46-.29,3.77,3.77,0,0,0,1.21-.82,3.92,3.92,0,0,0,.83-1.21,3.66,3.66,0,0,0,.3-1.49,3.52,3.52,0,0,0-.3-1.45,3.84,3.84,0,0,0-.83-1.19,4,4,0,0,0-1.21-.82,3.58,3.58,0,0,0-1.46-.3,3.65,3.65,0,0,0-1.47.3,4,4,0,0,0-1.22.82,3.84,3.84,0,0,0-.83,1.19,3.53,3.53,0,0,0-.3,1.45,3.68,3.68,0,0,0,.3,1.49"/><polygon class="cls-3" points="198.1 89.71 206.57 59.73 199.86 59.73 194.19 82.27 193.99 82.27 188.19 59.73 181.4 59.73 189.87 89.71 198.1 89.71"/><path class="cls-3" d="M161.31,83.91a7.08,7.08,0,0,1-2.52-2.06,9.28,9.28,0,0,1-1.54-3.11,14.11,14.11,0,0,1-.52-3.93v-.17a14.15,14.15,0,0,1,.52-3.92,9.27,9.27,0,0,1,1.54-3.12,7.07,7.07,0,0,1,2.52-2.06,8.46,8.46,0,0,1,6.93,0,7.2,7.2,0,0,1,2.52,2.06,9.15,9.15,0,0,1,1.55,3.13,14,14,0,0,1,.52,3.92v.17a14,14,0,0,1-.52,3.93,9.16,9.16,0,0,1-1.55,3.11,7.21,7.21,0,0,1-2.52,2.06,8.46,8.46,0,0,1-6.93,0m-2.54-23.4a13.34,13.34,0,0,0-4.49,3.28,14.3,14.3,0,0,0-2.82,4.89,19.22,19.22,0,0,0,0,12.07,14.45,14.45,0,0,0,2.82,4.89,13.13,13.13,0,0,0,4.49,3.28,15.73,15.73,0,0,0,12,0,13.08,13.08,0,0,0,4.5-3.28,14.44,14.44,0,0,0,2.82-4.89,19.26,19.26,0,0,0,0-12.07,14.29,14.29,0,0,0-2.82-4.89,13.28,13.28,0,0,0-4.5-3.28,15.63,15.63,0,0,0-12,0"/><path class="cls-3" d="M125.68,74.6a14.07,14.07,0,0,1,.48-3.69,9.49,9.49,0,0,1,1.46-3.15,7.37,7.37,0,0,1,2.51-2.19,7.54,7.54,0,0,1,3.64-.83,8,8,0,0,1,2.43.35,6.87,6.87,0,0,1,3.43,2.36,10.29,10.29,0,0,1,1.13,1.79l5.31-3a11.17,11.17,0,0,0-2-2.85,12.14,12.14,0,0,0-2.79-2.2,13.78,13.78,0,0,0-3.49-1.4,16.17,16.17,0,0,0-4-.49,14.18,14.18,0,0,0-5.93,1.2,13.54,13.54,0,0,0-4.52,3.28,14.65,14.65,0,0,0-2.88,4.89,17.64,17.64,0,0,0-1,6,19.45,19.45,0,0,0,.91,6A14.57,14.57,0,0,0,123,85.66a12.3,12.3,0,0,0,4.29,3.28,13.65,13.65,0,0,0,5.83,1.19,11.57,11.57,0,0,0,2.64-.29,10.73,10.73,0,0,0,2.29-.81,8.77,8.77,0,0,0,1.88-1.23,7.39,7.39,0,0,0,1.4-1.6v3.51h5.31V73.28H133.08V77.9h7.67v.29a7.57,7.57,0,0,1-.32,2.09,5.78,5.78,0,0,1-1.13,2.1A6.27,6.27,0,0,1,137.15,84a7.77,7.77,0,0,1-3.38.65,7.54,7.54,0,0,1-3.64-.83,7.36,7.36,0,0,1-2.51-2.18,9.51,9.51,0,0,1-1.46-3.14,14,14,0,0,1-.48-3.7Z"/><path class="cls-3" d="M62.29,65.83a2.63,2.63,0,1,0-1.41-3.42,2.63,2.63,0,0,0,1.41,3.42"/><path class="cls-3" d="M56.33,69.32a2.63,2.63,0,1,0-1.42-3.42,2.63,2.63,0,0,0,1.42,3.42"/><path class="cls-3" d="M54.59,75.95a2.63,2.63,0,1,0-1.42-3.41,2.63,2.63,0,0,0,1.42,3.41"/><path class="cls-3" d="M68.95,67.93a2.63,2.63,0,1,0-1.41-3.42,2.63,2.63,0,0,0,1.41,3.42"/><path class="cls-3" d="M93,65.83a2.63,2.63,0,1,1,1.42-3.42A2.63,2.63,0,0,1,93,65.83"/><path class="cls-3" d="M99,69.32a2.63,2.63,0,1,1,1.42-3.42A2.63,2.63,0,0,1,99,69.32"/><path class="cls-3" d="M100.75,75.95a2.63,2.63,0,1,1,1.41-3.41,2.63,2.63,0,0,1-1.41,3.41"/><path class="cls-3" d="M86.4,67.93a2.63,2.63,0,1,1,1.41-3.42,2.63,2.63,0,0,1-1.41,3.42"/><path class="cls-3" d="M79.06,61.13h0l3.33,1.75V58L79.07,59h0a1.64,1.64,0,0,0-.32-.33h0l1.34-4.21h-4.8l1.34,4.21h0a1.7,1.7,0,0,0-.32.33h0L72.94,58v4.9l3.33-1.75h0a1.8,1.8,0,0,0,.34.34L74.7,67.24v0h0a3.1,3.1,0,0,0,2.51,4h.07l.39,0a3,3,0,0,0,.39,0h.07a3.1,3.1,0,0,0,2.51-4h0v0l-1.91-5.77a1.78,1.78,0,0,0,.34-.34"/><path class="cls-3" d="M77.67,89.35a125.81,125.81,0,0,1,17.63,1.19c1.51-6.36,3.35-10,5.25-12.6L97,76.66a6.54,6.54,0,0,1,0,3.83,7.25,7.25,0,0,1-1.59-3.26L93.66,83a5.3,5.3,0,0,1,2.8-1.22c-1.65,3.56-3.71,4.47-5,4.23a2.54,2.54,0,0,1-2.13-3c.38-1.75,2.17-2.21,3-.17,1.6-3.27-1.12-4.29-2.87-3.32,2.69-2.68,3-5.07.83-7.95-3,2.31-3.06,4.6-1.7,7.82-1.77-2-4.51-.94-3.52,2.33,1.27-2,3-.73,2.69,1.14-.22,1.63-2.38,2.95-5.06,2.72-3.84-.35-4.07-3-4.17-5.2.94-.17,2.65.7,4.1,2.74L83.13,77a6,6,0,0,1-4.61,2c.53-1.65,3-4.37,3-4.37H73.85s2.43,2.71,3,4.37a6,6,0,0,1-4.61-2l.53,6.13c1.45-2,3.15-2.91,4.1-2.74-.1,2.2-.32,4.85-4.17,5.2-2.68.23-4.83-1.08-5.06-2.72C67.35,81,69,79.77,70.31,81.74c1-3.26-1.75-4.35-3.52-2.33,1.36-3.22,1.32-5.51-1.7-7.82-2.17,2.88-1.86,5.27.83,7.95-1.75-1-4.47.05-2.87,3.32.84-2,2.63-1.58,3,.17a2.54,2.54,0,0,1-2.13,3c-1.34.25-3.4-.67-5-4.23A5.31,5.31,0,0,1,61.68,83l-1.74-5.78a7.25,7.25,0,0,1-1.59,3.26,6.54,6.54,0,0,1,0-3.83l-3.58,1.27c1.9,2.59,3.74,6.24,5.25,12.6a126,126,0,0,1,17.62-1.19"/><rect class="cls-2" y="636" width="960" height="4"/><polygon class="cls-2" points="4 640 4 40 956 40 956 640 960 640 960 36 0 36 0 640 4 640"/><path class="cls-3" d="M104.06,201.6l4.43,13.17,7.39-25.57h7l-9.67,31.35h-9.09L97.34,201.6Z"/><path class="cls-3" d="M163.8,189.2h7.12l-10.48,18.59v12.76H154V207.78L143.56,189.2h7.3l6.4,12.14Z"/><path class="cls-3" d="M192.28,208.86c0,6.94-4.61,12.13-11.51,12.13s-11.51-5.24-11.51-12.13v0c0-6.9,4.57-12.14,11.51-12.14s11.51,5.24,11.51,12.14Zm-6.18,0c0-3.81-1.88-6.54-5.33-6.54s-5.28,2.73-5.33,6.54v0c0,3.81,1.88,6.54,5.33,6.54s5.28-2.73,5.33-6.54Z"/><path class="cls-3" d="M216.65,220.54h-6v-2a8,8,0,0,1-6,2.46,7.67,7.67,0,0,1-8.11-8.06V197.12h6v13.61c0,3.31,1.57,4.57,3.67,4.57,2.46,0,4.34-1.75,4.34-5.37V197.12h6Z"/><path class="cls-3" d="M235.91,203h-1.08c-3.45,0-6.49,1.16-6.49,6.18v11.37h-6V197.12h6v2.64a7.26,7.26,0,0,1,6.22-3h1.34Z"/><path class="cls-3" d="M255.61,197.12v2a7.75,7.75,0,0,1,5.91-2.46c6.18,0,10.3,5.1,10.3,12v.22c0,6.94-4.25,12-10.43,12a7.44,7.44,0,0,1-5.78-2.46v9.4h-6V197.12ZM255.43,211c0,2.51,1.88,4.39,4.84,4.39,3.45,0,5.33-2.73,5.33-6.45v-.22c0-3.72-1.88-6.45-5.33-6.45-3,0-4.84,1.88-4.84,4.39Z"/><path class="cls-3" d="M283,221c-4.25,0-8.11-2.69-8.11-7.34,0-3.76,2.46-6.27,6.58-6.85l7.12-1V205c0-2.06-1.39-3-3.67-3a15.78,15.78,0,0,0-6.9,1.88l-2.37-4.66a19.79,19.79,0,0,1,9.49-2.6c4.3,0,9.49,1.16,9.49,7.52v10c0,1.39.76,1.88,2,2.42L293.95,221a5.32,5.32,0,0,1-4.39-2.64A8.1,8.1,0,0,1,283,221Zm.72-9.9c-1.48.22-2.46,1.07-2.46,2.42s1.16,2.73,3.18,2.73c2.82,0,4.16-1.88,4.16-4.3v-1.61Z"/><path class="cls-3" d="M305.05,221.48l.18-.76h-.45l-7.21-23.6h6.72l4.3,16.21,4.21-16.21h6.63L311.37,224c-1,3.49-3.76,4.43-7.3,4.43a39.66,39.66,0,0,1-5.51-.45l1.25-5.33a21.67,21.67,0,0,0,3.22.27A1.77,1.77,0,0,0,305.05,221.48Z"/><path class="cls-3" d="M342.49,220.54h-6V206.93c0-3.36-1.57-4.52-3.54-4.52-2.33,0-4.12,1.61-4.12,5.37v12.76h-6V197.12h6v2.06a7.84,7.84,0,0,1,6-2.51,6.78,6.78,0,0,1,6,3.18c1.66-2.33,4.3-3.18,7.08-3.18,5.24,0,8.33,3.72,8.33,7.88v16h-6.09V206.93c0-3.36-1.57-4.52-3.54-4.52-2.33,0-4.12,1.61-4.12,5.37Z"/><path class="cls-3" d="M366.77,210.92a5.51,5.51,0,0,0,5.69,4.57,8.41,8.41,0,0,0,5.91-2.2l3,4.57a14,14,0,0,1-9.09,3.13c-6.45,0-11.78-4.48-11.78-12v-.27c0-6.9,4.7-12,11.33-12,6.18,0,10.75,4.7,10.75,11.51v2.73Zm0-4.57h9.45a4.5,4.5,0,0,0-4.61-4.43A4.69,4.69,0,0,0,366.81,206.35Z"/><path class="cls-3" d="M386.88,197.12h6v2a8,8,0,0,1,6-2.46,7.67,7.67,0,0,1,8.11,8.06v15.81h-6V206.93c0-3.31-1.57-4.57-3.67-4.57-2.46,0-4.34,1.75-4.34,5.37v12.81h-6Z"/><path class="cls-3" d="M421.09,213.56c0,1.12.49,2,2.6,2a14.86,14.86,0,0,0,3-.27l.54,5.33a48.4,48.4,0,0,1-5.55.4c-4.17,0-6.63-1.84-6.63-6V202.54h-4.21v-5.42H415V190.5l6-1.61v8.24h6.14v5.42h-6.14Z"/><path class="cls-3" d="M442.32,189.2h6v9.94a8,8,0,0,1,6-2.46,7.67,7.67,0,0,1,8.11,8.06v15.81h-6V206.93c0-3.31-1.57-4.57-3.67-4.57-2.46,0-4.34,1.75-4.34,5.37v12.81h-6Z"/><path class="cls-3" d="M474.61,221c-4.25,0-8.11-2.69-8.11-7.34,0-3.76,2.46-6.27,6.58-6.85l7.12-1V205c0-2.06-1.39-3-3.67-3a15.78,15.78,0,0,0-6.9,1.88l-2.37-4.66a19.79,19.79,0,0,1,9.49-2.6c4.3,0,9.49,1.16,9.49,7.52v10c0,1.39.76,1.88,2,2.42L485.54,221a5.32,5.32,0,0,1-4.39-2.64A8.1,8.1,0,0,1,474.61,221Zm.72-9.9c-1.48.22-2.46,1.07-2.46,2.42s1.16,2.73,3.18,2.73c2.82,0,4.16-1.88,4.16-4.3v-1.61Z"/><path class="cls-3" d="M493.78,213a10.84,10.84,0,0,0,6.85,2.82c1.84,0,3.31-.49,3.31-1.88,0-1.12-.9-1.57-2.87-2.06a40.23,40.23,0,0,1-5.82-1.66,6.3,6.3,0,0,1-4.12-6.09c0-5,4.43-7.48,9.63-7.48A13.45,13.45,0,0,1,510,200l-3.85,4a8,8,0,0,0-5.37-2.15c-1.66,0-3.31.58-3.31,2,0,1.08,1,1.48,2.78,1.93a33,33,0,0,1,6.72,2.15,6.19,6.19,0,0,1,3.27,5.6c0,5-4.25,7.52-9.45,7.52-3.81,0-8.24-1.43-10.57-3.54Z"/><path class="cls-3" d="M547.79,208.94c0,6.94-4.25,12-10.43,12a7.44,7.44,0,0,1-5.78-2.46v2h-6V189.2h6v9.94a7.75,7.75,0,0,1,5.91-2.46c6.18,0,10.3,5.1,10.3,12ZM531.4,211c0,2.51,1.88,4.39,4.84,4.39,3.45,0,5.33-2.73,5.33-6.45v-.22c0-3.72-1.88-6.45-5.33-6.45-3,0-4.84,1.88-4.84,4.39Z"/><path class="cls-3" d="M557.33,210.92a5.51,5.51,0,0,0,5.69,4.57,8.41,8.41,0,0,0,5.91-2.2l3,4.57a14,14,0,0,1-9.09,3.13c-6.45,0-11.78-4.48-11.78-12v-.27c0-6.9,4.7-12,11.33-12,6.18,0,10.75,4.7,10.75,11.51v2.73Zm0-4.57h9.45a4.5,4.5,0,0,0-4.61-4.43A4.69,4.69,0,0,0,557.37,206.35Z"/><path class="cls-3" d="M582.49,210.92a5.51,5.51,0,0,0,5.69,4.57,8.41,8.41,0,0,0,5.91-2.2l3,4.57A14,14,0,0,1,588,221c-6.45,0-11.78-4.48-11.78-12v-.27c0-6.9,4.7-12,11.33-12,6.18,0,10.75,4.7,10.75,11.51v2.73Zm0-4.57H592a4.5,4.5,0,0,0-4.61-4.43A4.69,4.69,0,0,0,582.54,206.35Z"/><path class="cls-3" d="M602.6,197.12h6v2a8,8,0,0,1,6-2.46,7.67,7.67,0,0,1,8.11,8.06v15.81h-6V206.93c0-3.31-1.57-4.57-3.67-4.57-2.46,0-4.34,1.75-4.34,5.37v12.81h-6Z"/><path class="cls-3" d="M640.9,213a10.84,10.84,0,0,0,6.85,2.82c1.84,0,3.31-.49,3.31-1.88,0-1.12-.9-1.57-2.87-2.06a40.23,40.23,0,0,1-5.82-1.66,6.3,6.3,0,0,1-4.12-6.09c0-5,4.43-7.48,9.63-7.48a13.45,13.45,0,0,1,9.27,3.31l-3.85,4a8,8,0,0,0-5.37-2.15c-1.66,0-3.31.58-3.31,2,0,1.08,1,1.48,2.78,1.93a33,33,0,0,1,6.72,2.15,6.19,6.19,0,0,1,3.27,5.6c0,5-4.25,7.52-9.45,7.52-3.81,0-8.24-1.43-10.57-3.54Z"/><path class="cls-3" d="M681.74,220.54h-6v-2a8,8,0,0,1-6,2.46,7.67,7.67,0,0,1-8.1-8.06V197.12h6v13.61c0,3.31,1.57,4.57,3.67,4.57,2.46,0,4.34-1.75,4.34-5.37V197.12h6Z"/><path class="cls-3" d="M686.17,208.77c0-6.9,4.75-12.09,11.33-12.09,4.79,0,8.64,2.37,10.16,6l-5.37,2.73a4.78,4.78,0,0,0-4.66-3.18c-3.67,0-5.24,3.36-5.24,6.45V209c0,3,1.57,6.4,5.24,6.4a4.79,4.79,0,0,0,4.66-3.18l5.37,2.73c-1.52,3.67-5.51,6-10.25,6-6.58,0-11.24-5.19-11.24-12.09Z"/><path class="cls-3" d="M710.4,208.77c0-6.9,4.75-12.09,11.33-12.09,4.79,0,8.64,2.37,10.16,6l-5.37,2.73a4.78,4.78,0,0,0-4.66-3.18c-3.67,0-5.24,3.36-5.24,6.45V209c0,3,1.57,6.4,5.24,6.4a4.79,4.79,0,0,0,4.66-3.18l5.37,2.73c-1.52,3.67-5.51,6-10.25,6-6.58,0-11.24-5.19-11.24-12.09Z"/><path class="cls-3" d="M740.9,210.92a5.51,5.51,0,0,0,5.69,4.57,8.41,8.41,0,0,0,5.91-2.2l3,4.57a14,14,0,0,1-9.09,3.13c-6.45,0-11.78-4.48-11.78-12v-.27c0-6.9,4.7-12,11.33-12,6.18,0,10.75,4.7,10.75,11.51v2.73Zm0-4.57h9.45a4.5,4.5,0,0,0-4.61-4.43A4.69,4.69,0,0,0,740.94,206.35Z"/><path class="cls-3" d="M762.89,213a10.84,10.84,0,0,0,6.85,2.82c1.84,0,3.31-.49,3.31-1.88,0-1.12-.9-1.57-2.87-2.06a40.23,40.23,0,0,1-5.82-1.66,6.3,6.3,0,0,1-4.12-6.09c0-5,4.43-7.48,9.63-7.48a13.45,13.45,0,0,1,9.27,3.31l-3.85,4a8,8,0,0,0-5.37-2.15c-1.66,0-3.31.58-3.31,2,0,1.08,1,1.48,2.78,1.93a33,33,0,0,1,6.72,2.15,6.19,6.19,0,0,1,3.27,5.6c0,5-4.25,7.52-9.45,7.52-3.81,0-8.24-1.43-10.57-3.54Z"/><path class="cls-3" d="M785.68,213a10.84,10.84,0,0,0,6.85,2.82c1.84,0,3.31-.49,3.31-1.88,0-1.12-.9-1.57-2.87-2.06a40.23,40.23,0,0,1-5.82-1.66,6.3,6.3,0,0,1-4.12-6.09c0-5,4.43-7.48,9.63-7.48a13.45,13.45,0,0,1,9.27,3.31l-3.85,4a8,8,0,0,0-5.37-2.15c-1.66,0-3.31.58-3.31,2,0,1.08,1,1.48,2.78,1.93a33,33,0,0,1,6.72,2.15,6.19,6.19,0,0,1,3.27,5.6c0,5-4.25,7.52-9.45,7.52-3.81,0-8.24-1.43-10.57-3.54Z"/><path class="cls-3" d="M814.7,197.12h4.48v5.42H814.7v18h-6v-18h-3.72v-5.42h3.72V194.7c0-4.08,2.91-6,7.08-6a40.69,40.69,0,0,1,4.79.31l-.49,5.15a20.73,20.73,0,0,0-3-.22c-1.7,0-2.37.72-2.37,1.75Z"/><path class="cls-3" d="M843,220.54h-6v-2a8,8,0,0,1-6,2.46,7.67,7.67,0,0,1-8.11-8.06V197.12h6v13.61c0,3.31,1.57,4.57,3.67,4.57,2.46,0,4.34-1.75,4.34-5.37V197.12h6Z"/><path class="cls-3" d="M848.56,189.2h6v25c0,1,.54,1.52,1.79,1.52a12,12,0,0,0,2.28-.22l.49,5.15a49.89,49.89,0,0,1-5.1.36c-3.4,0-5.51-1.79-5.51-5.15Z"/><path class="cls-3" d="M330,255h9.19c5.67,0,8.69,3.53,8.69,7.4a6.93,6.93,0,0,1-4.61,6.58l5.19,9.77H343l-4.31-8.55h-3.8v8.55H330Zm8.72,4.34h-3.9v6.48h3.9c2.75,0,4.14-1.36,4.14-3.26S341.5,259.3,338.76,259.3Z"/><path class="cls-3" d="M355,271.41a4.18,4.18,0,0,0,4.31,3.46,6.37,6.37,0,0,0,4.48-1.66l2.27,3.46a10.62,10.62,0,0,1-6.89,2.37c-4.89,0-8.92-3.39-8.92-9.09v-.2c0-5.23,3.56-9.13,8.58-9.13,4.68,0,8.14,3.56,8.14,8.72v2.07Zm0-3.46h7.16a3.41,3.41,0,0,0-3.5-3.36A3.55,3.55,0,0,0,355,267.95Z"/><path class="cls-3" d="M376.18,261h3.39v4.1h-3.39V278.7H371.6V265.07h-2.82V261h2.82v-1.83c0-3.09,2.21-4.51,5.36-4.51a30.66,30.66,0,0,1,3.63.24l-.37,3.9a15.78,15.78,0,0,0-2.24-.17c-1.29,0-1.8.54-1.8,1.32Z"/><path class="cls-3" d="M386.09,271.41a4.18,4.18,0,0,0,4.31,3.46,6.37,6.37,0,0,0,4.48-1.66l2.27,3.46a10.62,10.62,0,0,1-6.89,2.37c-4.89,0-8.92-3.39-8.92-9.09v-.2c0-5.23,3.56-9.13,8.58-9.13,4.68,0,8.14,3.56,8.14,8.72v2.07Zm0-3.46h7.16a3.41,3.41,0,0,0-3.5-3.36A3.55,3.55,0,0,0,386.12,267.95Z"/><path class="cls-3" d="M411.63,265.41h-.82c-2.61,0-4.92.88-4.92,4.68v8.62h-4.58V261h4.58v2a5.5,5.5,0,0,1,4.72-2.31h1Z"/><path class="cls-3" d="M418,271.41a4.18,4.18,0,0,0,4.31,3.46,6.37,6.37,0,0,0,4.48-1.66l2.27,3.46a10.62,10.62,0,0,1-6.89,2.37c-4.89,0-8.92-3.39-8.92-9.09v-.2c0-5.23,3.56-9.13,8.58-9.13,4.68,0,8.14,3.56,8.14,8.72v2.07Zm0-3.46h7.16a3.41,3.41,0,0,0-3.5-3.36A3.55,3.55,0,0,0,418.08,267.95Z"/><path class="cls-3" d="M433.28,261h4.58v1.53a6,6,0,0,1,4.51-1.87,5.81,5.81,0,0,1,6.14,6.11v12h-4.58V268.39c0-2.51-1.19-3.46-2.78-3.46-1.87,0-3.29,1.32-3.29,4.07v9.7h-4.58Z"/><path class="cls-3" d="M451.74,269.78c0-5.22,3.6-9.16,8.58-9.16,3.63,0,6.55,1.8,7.7,4.58L464,267.27a3.63,3.63,0,0,0-3.53-2.41c-2.78,0-4,2.54-4,4.89v.2c0,2.31,1.19,4.85,4,4.85a3.63,3.63,0,0,0,3.53-2.41l4.07,2.07c-1.15,2.78-4.17,4.58-7.77,4.58-5,0-8.52-3.94-8.52-9.16Z"/><path class="cls-3" d="M474.84,271.41a4.18,4.18,0,0,0,4.31,3.46,6.37,6.37,0,0,0,4.48-1.66l2.27,3.46A10.62,10.62,0,0,1,479,279c-4.89,0-8.92-3.39-8.92-9.09v-.2c0-5.23,3.56-9.13,8.58-9.13,4.68,0,8.14,3.56,8.14,8.72v2.07Zm0-3.46H482a3.41,3.41,0,0,0-3.5-3.36A3.55,3.55,0,0,0,474.88,267.95Z"/><path class="cls-3" d="M497.85,261h4.58v1.53a6,6,0,0,1,4.51-1.87,5.81,5.81,0,0,1,6.14,6.11v12H508.5V268.39c0-2.51-1.19-3.46-2.78-3.46-1.87,0-3.29,1.32-3.29,4.07v9.7h-4.58Z"/><path class="cls-3" d="M532.32,278.7h-4.58v-1.53a6,6,0,0,1-4.51,1.87,5.81,5.81,0,0,1-6.14-6.11V261h4.58v10.31c0,2.51,1.19,3.46,2.78,3.46,1.87,0,3.29-1.32,3.29-4.07V261h4.58Z"/><path class="cls-3" d="M551.55,278.7H547V268.39c0-2.55-1.19-3.43-2.68-3.43-1.76,0-3.12,1.22-3.12,4.07v9.67h-4.58V261h4.58v1.56a5.94,5.94,0,0,1,4.55-1.9A5.14,5.14,0,0,1,550.3,263a6.25,6.25,0,0,1,5.36-2.41,5.94,5.94,0,0,1,6.31,6V278.7h-4.61V268.39c0-2.55-1.19-3.43-2.68-3.43-1.76,0-3.12,1.22-3.12,4.07Z"/><path class="cls-3" d="M583,269.92c0,5.26-3.22,9.13-7.9,9.13a5.64,5.64,0,0,1-4.38-1.87v1.53h-4.58V255h4.58v7.53a5.87,5.87,0,0,1,4.48-1.87c4.68,0,7.8,3.87,7.8,9.13Zm-12.42,1.56a3.34,3.34,0,0,0,3.66,3.33c2.61,0,4-2.07,4-4.89v-.17c0-2.82-1.42-4.89-4-4.89a3.34,3.34,0,0,0-3.66,3.33Z"/><path class="cls-3" d="M590.2,271.41a4.18,4.18,0,0,0,4.31,3.46,6.37,6.37,0,0,0,4.48-1.66l2.27,3.46a10.62,10.62,0,0,1-6.89,2.37c-4.89,0-8.92-3.39-8.92-9.09v-.2c0-5.23,3.56-9.13,8.58-9.13,4.68,0,8.14,3.56,8.14,8.72v2.07Zm0-3.46h7.16a3.41,3.41,0,0,0-3.5-3.36A3.55,3.55,0,0,0,590.23,267.95Z"/><path class="cls-3" d="M615.75,265.41h-.82c-2.61,0-4.92.88-4.92,4.68v8.62h-4.58V261H610v2a5.5,5.5,0,0,1,4.72-2.31h1Z"/><path class="cls-3" d="M621.85,261a3.21,3.21,0,0,1,3.19,3.19,3.19,3.19,0,1,1-6.38,0A3.21,3.21,0,0,1,621.85,261Zm0,11.74a3.17,3.17,0,1,1-3.19,3.16A3.22,3.22,0,0,1,621.85,272.7Z"/><path class="cls-3" d="M392.61,312.16a8.61,8.61,0,0,0,6.55,3.29c2.75,0,4.24-1.25,4.24-2.88s-1.36-2.27-4.17-2.82c-2.44-.48-5.39-1-7.26-2.61a6.07,6.07,0,0,1-2-4.78c0-3,2.48-7,9.09-7A11.61,11.61,0,0,1,408,299.1l-3.26,3.29a8,8,0,0,0-5.73-2.75c-2.1,0-3.87.81-3.87,2.55a2.36,2.36,0,0,0,1.7,2.14,51.12,51.12,0,0,0,5.73,1.39c3.12.81,5.94,2.41,5.94,6.62,0,4.75-4.38,7.43-9.33,7.43a13.28,13.28,0,0,1-9.94-4.14Z"/><path class="cls-3" d="M412.43,295.67h9.19c5.67,0,8.69,3.53,8.69,7.4a6.93,6.93,0,0,1-4.61,6.58l5.19,9.77h-5.53L421,310.87h-3.8v8.55h-4.82Zm8.72,4.34h-3.9v6.48h3.9c2.75,0,4.14-1.36,4.14-3.26S423.9,300,421.15,300Z"/><path class="cls-3" d="M439,319.42l-6.72-23.75h5.39l4.61,17.51,4.55-17.51h5.39l-6.72,23.75Z"/><path class="cls-3" d="M454.7,308.66l1.32-13h15.1V300h-11l-.54,4.72a6.73,6.73,0,0,1,4.75-1.73c4.78,0,8,3.36,8,8.18,0,5.22-4.11,8.58-9.36,8.58-4.27,0-8-2-9.09-6.14l4.58-1.46a4.29,4.29,0,0,0,4.48,3.26,4.05,4.05,0,0,0,4.38-4.21,3.92,3.92,0,0,0-4.21-4.1,4.56,4.56,0,0,0-3.8,2Z"/><path class="cls-3" d="M483.91,295.67v23.75H479V303.71h-4.31v-4.34h1c2.85,0,3.53-1.05,3.53-3.39v-.31Z"/><path class="cls-3" d="M499.52,300.22h-12v-4.55h16.93v4.61l-9.19,19.14h-5.63Z"/><path class="cls-3" d="M518.25,300.22h-12v-4.55h16.93v4.61l-9.19,19.14h-5.63Z"/><path class="cls-3" d="M543.9,307.2c0,6.41-3,12.55-10.21,12.55-4,0-6.85-2-8-4.85l4.65-1.73a3.63,3.63,0,0,0,3.6,2.27c3.15,0,4.55-2.92,4.78-6.28a6.78,6.78,0,0,1-5.23,2.21c-4.58,0-8-3.19-8-7.67,0-4.78,3.53-8.38,8.82-8.38,5.8,0,9.57,4.21,9.57,11.33Zm-9.4-7.7a3.92,3.92,0,1,0,4.07,3.94A3.82,3.82,0,0,0,534.5,299.5Z"/><path class="cls-3" d="M547.43,319.42v-4.24s3.73-2.68,8.24-6.24c2.37-1.87,3.66-3.6,3.66-5.83a3.19,3.19,0,0,0-3.43-3.36c-2.82,0-3.83,2-3.83,4.38l-5-.31c0-5.36,3.6-8.48,8.89-8.48,4.72,0,8.45,3,8.45,7.67,0,2.48-1,4.78-3.6,7.33a45.62,45.62,0,0,1-6.07,4.65h10v4.44Z"/><path class="cls-4" d="M74.58,423.89l3.17-15.2h2.31L76,427.07H73.29l-3.91-15-3.88,15H62.8L58.73,408.7H61l3.25,15.2,3.88-15.2h2.44Z"/><path class="cls-4" d="M83.92,421.19c.16,2.47,1.71,4.25,4.07,4.25a5.25,5.25,0,0,0,3.44-1.29l1.1,1.55a7.31,7.31,0,0,1-4.64,1.63c-3.81,0-6.22-2.86-6.22-6.8s2.34-6.82,6-6.82c3.41,0,5.59,2.86,5.59,6.8v.68Zm0-1.73h6.93c-.08-2-1.21-3.86-3.28-3.86A3.81,3.81,0,0,0,83.95,419.46Z"/><path class="cls-4" d="M114.68,424.52,117,414h2.28l-3.2,13.1h-2.76l-2.65-10.5-2.7,10.5h-2.65L102.18,414h2.31l2.28,10.55L109.53,414H112Z"/><path class="cls-4" d="M123.47,408.7a1.6,1.6,0,0,1,1.57,1.6,1.59,1.59,0,1,1-3.18,0A1.61,1.61,0,0,1,123.47,408.7Zm1,18.37h-2.15V414h2.15Z"/><path class="cls-4" d="M128.64,408.7h2.15v15.43c0,.87.26,1.31,1.26,1.31.55,0,1-.05,1.34-.08l.21,1.81a20.83,20.83,0,0,1-2.18.16c-1.55,0-2.78-.68-2.78-2.57Z"/><path class="cls-4" d="M135.83,408.7H138v15.43c0,.87.26,1.31,1.26,1.31.55,0,1-.05,1.34-.08l.21,1.81a20.83,20.83,0,0,1-2.18.16c-1.55,0-2.78-.68-2.78-2.57Z"/><path class="cls-4" d="M150.73,421.19c.16,2.47,1.71,4.25,4.07,4.25a5.25,5.25,0,0,0,3.44-1.29l1.1,1.55a7.31,7.31,0,0,1-4.64,1.63c-3.81,0-6.22-2.86-6.22-6.8s2.34-6.82,6-6.82c3.41,0,5.59,2.86,5.59,6.8v.68Zm0-1.73h6.93c-.08-2-1.21-3.86-3.28-3.86A3.81,3.81,0,0,0,150.76,419.46Z"/><path class="cls-4" d="M173.09,427.07h-2.15v-8.24c0-2.34-1.18-3.15-2.62-3.15s-2.89,1.1-2.89,3.65v7.74h-2.15V414h2.15v1.49a4,4,0,0,1,3.44-1.76,3.88,3.88,0,0,1,3.54,2.18,4.49,4.49,0,0,1,4-2.18,4.22,4.22,0,0,1,4.41,4.38v9h-2.15v-8.24c0-2.34-1.26-3.15-2.68-3.15s-2.89,1.1-2.89,3.65Z"/><path class="cls-4" d="M188.49,427.33c-2.6,0-4.57-1.52-4.57-4a3.67,3.67,0,0,1,3.49-3.7L192,419v-.84c0-2-1.29-2.6-2.91-2.6a8,8,0,0,0-3.78,1l-.81-1.71a9.89,9.89,0,0,1,4.8-1.21c3.18,0,4.86,1.42,4.86,4.17V424a1.78,1.78,0,0,0,1.08,1.79l-1.21,1.55a2.59,2.59,0,0,1-1.76-1.57A4.86,4.86,0,0,1,188.49,427.33Zm0-6.09c-1.44.21-2.39.68-2.39,2a2.42,2.42,0,0,0,2.68,2.36c1.6,0,3.23-1,3.23-2.55v-2.36Z"/><path class="cls-4" d="M199.46,408.7a1.6,1.6,0,0,1,1.57,1.6,1.59,1.59,0,1,1-3.18,0A1.61,1.61,0,0,1,199.46,408.7Zm1,18.37h-2.15V414h2.15Z"/><path class="cls-4" d="M204.63,408.7h2.15v15.43c0,.87.26,1.31,1.26,1.31.55,0,1-.05,1.34-.08l.21,1.81a20.83,20.83,0,0,1-2.18.16c-1.55,0-2.78-.68-2.78-2.57Z"/><path class="cls-4" d="M216,414h2.44l3.23,10.81L224.78,414h2.41L222.42,429c-.58,1.84-1.86,2.31-3.46,2.31a15.39,15.39,0,0,1-2.34-.21l.31-1.89a10,10,0,0,0,1.73.18,1.48,1.48,0,0,0,1.65-1.31l.13-.6Z"/><path class="cls-4" d="M241.08,420.53c0,3.94-2.41,6.8-6,6.8s-6-2.86-6-6.8,2.41-6.82,6-6.82S241.08,416.54,241.08,420.53Zm-2.23.08v-.16c0-2.62-1.31-4.86-3.81-4.86s-3.81,2.23-3.81,4.86v.16c0,2.57,1.31,4.83,3.81,4.83S238.85,423.18,238.85,420.61Z"/><path class="cls-4" d="M254.75,427.07H252.6v-1.5a4.51,4.51,0,0,1-3.83,1.76,4.17,4.17,0,0,1-4.38-4.46V414h2.15v8.21c0,2.31,1.18,3.18,2.7,3.18a3.28,3.28,0,0,0,3.36-3.62V414h2.15Z"/><path class="cls-4" d="M269.42,427.33c-2.6,0-4.57-1.52-4.57-4a3.67,3.67,0,0,1,3.49-3.7L273,419v-.84c0-2-1.29-2.6-2.91-2.6a8,8,0,0,0-3.78,1l-.81-1.71a9.89,9.89,0,0,1,4.8-1.21c3.18,0,4.86,1.42,4.86,4.17V424a1.78,1.78,0,0,0,1.08,1.79L275,427.33a2.59,2.59,0,0,1-1.76-1.57A4.86,4.86,0,0,1,269.42,427.33Zm0-6.09c-1.44.21-2.39.68-2.39,2a2.42,2.42,0,0,0,2.68,2.36c1.6,0,3.23-1,3.23-2.55v-2.36Z"/><path class="cls-4" d="M292.85,415.89h-.34c-2.2,0-4.2.89-4.2,4.46v6.72h-2.15V414h2.15V416a4.08,4.08,0,0,1,3.91-2.31h.63Z"/><path class="cls-4" d="M296.79,421.19c.16,2.47,1.71,4.25,4.07,4.25a5.25,5.25,0,0,0,3.44-1.29l1.1,1.55a7.31,7.31,0,0,1-4.64,1.63c-3.81,0-6.22-2.86-6.22-6.8s2.34-6.82,6-6.82c3.41,0,5.59,2.86,5.59,6.8v.68Zm0-1.73h6.93c-.08-2-1.21-3.86-3.28-3.86A3.81,3.81,0,0,0,296.82,419.46Z"/><path class="cls-4" d="M310.78,420.58c0,2.62,1.29,4.86,3.81,4.86a3.74,3.74,0,0,0,3.38-2.2l1.79,1a5.56,5.56,0,0,1-5.17,3.07c-3.62,0-6-2.83-6-6.8s2.41-6.82,6-6.82a5.56,5.56,0,0,1,5.17,3.07l-1.79,1a3.74,3.74,0,0,0-3.38-2.2c-2.52,0-3.81,2.23-3.81,4.86Z"/><path class="cls-4" d="M324.34,421.19c.16,2.47,1.71,4.25,4.07,4.25a5.25,5.25,0,0,0,3.44-1.29l1.1,1.55a7.31,7.31,0,0,1-4.64,1.63c-3.81,0-6.22-2.86-6.22-6.8s2.34-6.82,6-6.82c3.41,0,5.59,2.86,5.59,6.8v.68Zm0-1.73h6.93c-.08-2-1.21-3.86-3.28-3.86A3.81,3.81,0,0,0,324.37,419.46Z"/><path class="cls-4" d="M338,408.7a1.6,1.6,0,0,1,1.57,1.6,1.59,1.59,0,1,1-3.18,0A1.61,1.61,0,0,1,338,408.7Zm1,18.37h-2.15V414H339Z"/><path class="cls-4" d="M345.39,414v1.49a4.59,4.59,0,0,1,3.83-1.76c3.39,0,5.56,2.86,5.56,6.82s-2.18,6.8-5.56,6.8a4.59,4.59,0,0,1-3.83-1.76v5.49h-2.15V414Zm7.16,6.48c0-2.73-1.31-4.83-3.73-4.83s-3.46,1.65-3.46,3.83v2.13c0,2.18,1.18,3.83,3.46,3.83s3.73-2.1,3.73-4.83Z"/><path class="cls-4" d="M361.42,423.81c0,.87.16,1.6,1.68,1.6a11.34,11.34,0,0,0,1.63-.16l.24,1.89a19.16,19.16,0,0,1-2.34.18c-2.07,0-3.36-.81-3.36-3v-8.42H356.8V414h2.47v-4.28l2.15-.76v5h3.65v1.89h-3.65Z"/><path class="cls-4" d="M376,408.7a1.6,1.6,0,0,1,1.57,1.6,1.59,1.59,0,1,1-3.18,0A1.61,1.61,0,0,1,376,408.7Zm1,18.37h-2.15V414H377Z"/><path class="cls-4" d="M381.21,414h2.15v1.49a4.51,4.51,0,0,1,3.83-1.76,4.17,4.17,0,0,1,4.38,4.46v8.9h-2.15v-8.21c0-2.31-1.18-3.18-2.7-3.18a3.37,3.37,0,0,0-3.36,3.62v7.77h-2.15Z"/><path class="cls-4" d="M405.4,423.81c0,.87.16,1.6,1.68,1.6a11.36,11.36,0,0,0,1.63-.16l.24,1.89a19.16,19.16,0,0,1-2.34.18c-2.07,0-3.36-.81-3.36-3v-8.42h-2.47V414h2.47v-4.28l2.15-.76v5h3.65v1.89H405.4Z"/><path class="cls-4" d="M412,408.7h2.15v6.77a4.51,4.51,0,0,1,3.83-1.76,4.17,4.17,0,0,1,4.38,4.46v8.9h-2.15v-8.21c0-2.31-1.18-3.18-2.7-3.18a3.35,3.35,0,0,0-3.36,3.62v7.77H412Z"/><path class="cls-4" d="M427.89,421.19c.16,2.47,1.71,4.25,4.07,4.25a5.25,5.25,0,0,0,3.44-1.29l1.1,1.55a7.31,7.31,0,0,1-4.64,1.63c-3.81,0-6.22-2.86-6.22-6.8s2.34-6.82,6-6.82c3.41,0,5.59,2.86,5.59,6.8v.68Zm0-1.73h6.93c-.08-2-1.21-3.86-3.28-3.86A3.81,3.81,0,0,0,427.92,419.46Z"/><path class="cls-4" d="M447.31,414h2.15v1.49a4.51,4.51,0,0,1,3.83-1.76,4.17,4.17,0,0,1,4.38,4.46v8.9h-2.15v-8.21c0-2.31-1.18-3.18-2.7-3.18a3.37,3.37,0,0,0-3.36,3.62v7.77h-2.15Z"/><path class="cls-4" d="M463.24,421.19c.16,2.47,1.71,4.25,4.07,4.25a5.25,5.25,0,0,0,3.44-1.29l1.1,1.55a7.31,7.31,0,0,1-4.64,1.63c-3.81,0-6.22-2.86-6.22-6.8s2.34-6.82,6-6.82c3.41,0,5.59,2.86,5.59,6.8v.68Zm0-1.73h6.93c-.08-2-1.21-3.86-3.28-3.86A3.81,3.81,0,0,0,463.26,419.46Z"/><path class="cls-4" d="M478.56,420.16l-4-6.19H477l2.81,4.51L482.5,414H485l-4,6.19,4.54,6.9H483L479.69,422l-3,5.09h-2.55Z"/><path class="cls-4" d="M491.58,423.81c0,.87.16,1.6,1.68,1.6a11.34,11.34,0,0,0,1.63-.16l.24,1.89a19.16,19.16,0,0,1-2.34.18c-2.07,0-3.36-.81-3.36-3v-8.42H487V414h2.47v-4.28l2.15-.76v5h3.65v1.89h-3.65Z"/><path class="cls-4" d="M507.75,414h2.6v1.89h-2.6v11.21h-2.15V415.86h-2.18V414h2.18v-2.44c0-2.26,1.52-3.07,3.6-3.07a12.22,12.22,0,0,1,2.1.18l-.16,1.84c-.5-.05-1.44-.11-1.86-.11-1.23,0-1.52.76-1.52,1.57Z"/><path class="cls-4" d="M514.57,421.19c.16,2.47,1.71,4.25,4.07,4.25a5.25,5.25,0,0,0,3.44-1.29l1.1,1.55a7.31,7.31,0,0,1-4.64,1.63c-3.81,0-6.22-2.86-6.22-6.8s2.34-6.82,6-6.82c3.41,0,5.59,2.86,5.59,6.8v.68Zm0-1.73h6.93c-.08-2-1.21-3.86-3.28-3.86A3.81,3.81,0,0,0,514.59,419.46Z"/><path class="cls-4" d="M538.45,424.52,540.81,414h2.28l-3.2,13.1h-2.76l-2.65-10.5-2.7,10.5h-2.65L526,414h2.31l2.28,10.55L533.31,414h2.44Z"/><path class="cls-4" d="M562.83,427.07h-2.15v-8.24c0-2.34-1.18-3.15-2.62-3.15s-2.89,1.1-2.89,3.65v7.74H553V414h2.15v1.49a4,4,0,0,1,3.44-1.76,3.88,3.88,0,0,1,3.54,2.18,4.49,4.49,0,0,1,4-2.18,4.22,4.22,0,0,1,4.41,4.38v9h-2.15v-8.24c0-2.34-1.26-3.15-2.68-3.15s-2.89,1.1-2.89,3.65Z"/><path class="cls-4" d="M575.74,408.7a1.6,1.6,0,0,1,1.57,1.6,1.59,1.59,0,1,1-3.18,0A1.61,1.61,0,0,1,575.74,408.7Zm1,18.37h-2.15V414h2.15Z"/><path class="cls-4" d="M581,414h2.15v1.49a4.51,4.51,0,0,1,3.83-1.76,4.17,4.17,0,0,1,4.38,4.46v8.9H589.2v-8.21c0-2.31-1.18-3.18-2.7-3.18a3.37,3.37,0,0,0-3.36,3.62v7.77H581Z"/><path class="cls-4" d="M605.71,427.07h-2.15v-1.5a4.51,4.51,0,0,1-3.83,1.76,4.17,4.17,0,0,1-4.38-4.46V414h2.15v8.21c0,2.31,1.18,3.18,2.7,3.18a3.28,3.28,0,0,0,3.36-3.62V414h2.15Z"/><path class="cls-4" d="M613.29,423.81c0,.87.16,1.6,1.68,1.6a11.34,11.34,0,0,0,1.63-.16l.24,1.89a19.16,19.16,0,0,1-2.34.18c-2.07,0-3.36-.81-3.36-3v-8.42h-2.47V414h2.47v-4.28l2.15-.76v5h3.65v1.89h-3.65Z"/><path class="cls-4" d="M621.32,421.19c.16,2.47,1.71,4.25,4.07,4.25a5.25,5.25,0,0,0,3.44-1.29l1.1,1.55a7.31,7.31,0,0,1-4.64,1.63c-3.81,0-6.22-2.86-6.22-6.8s2.34-6.82,6-6.82c3.41,0,5.59,2.86,5.59,6.8v.68Zm0-1.73h6.93c-.08-2-1.21-3.86-3.28-3.86A3.81,3.81,0,0,0,621.34,419.46Z"/><path class="cls-4" d="M632.73,425.44l1.31-1.52a6.22,6.22,0,0,0,4,1.6c1.5,0,2.62-.68,2.62-2s-1.42-1.73-3.2-2.2-4.07-1.13-4.07-3.83c0-2.2,2-3.81,4.78-3.81a7.08,7.08,0,0,1,4.54,1.63l-1.26,1.44a4.8,4.8,0,0,0-3.23-1.26c-1.73,0-2.6.76-2.6,1.94,0,.94.74,1.42,1.89,1.73.68.18,1.47.42,2.15.63,1.76.55,3.2,1.47,3.2,3.57,0,2.7-2.39,3.94-4.93,3.94A7.87,7.87,0,0,1,632.73,425.44Z"/><path class="cls-4" d="M60,468.4h9.18A7.29,7.29,0,0,1,76.89,476c0,4.36-3.28,7.61-8.07,7.61H64.66v7.74H60Zm7.94,4.2H64.66v6.82h3.28c2.56,0,4.17-1.18,4.17-3.35v-.13C72.1,473.78,70.5,472.6,67.94,472.6Z"/><path class="cls-4" d="M84.4,491.69c-3.12,0-5.94-2-5.94-5.38,0-2.75,1.8-4.59,4.82-5l5.22-.72V480c0-1.51-1-2.2-2.69-2.2a11.55,11.55,0,0,0-5.05,1.38L79,475.78a14.48,14.48,0,0,1,7-1.9c3.15,0,7,.85,7,5.51v7.35c0,1,.56,1.38,1.48,1.77l-2,3.18a3.9,3.9,0,0,1-3.21-1.93A5.93,5.93,0,0,1,84.4,491.69Zm.53-7.25c-1.08.16-1.8.79-1.8,1.77a2.08,2.08,0,0,0,2.33,2,2.87,2.87,0,0,0,3.05-3.15v-1.18Z"/><path class="cls-4" d="M100.54,492l.13-.56h-.33L95.07,474.2H100l3.15,11.87,3.08-11.87h4.85l-5.9,19.68c-.75,2.56-2.76,3.25-5.35,3.25a28.94,28.94,0,0,1-4-.33l.92-3.9a15.9,15.9,0,0,0,2.36.2A1.3,1.3,0,0,0,100.54,492Z"/><path class="cls-4" d="M128,491.36h-4.43v-10c0-2.46-1.15-3.31-2.59-3.31-1.71,0-3,1.18-3,3.94v9.35H113.5V474.2h4.43v1.51a5.75,5.75,0,0,1,4.4-1.84,5,5,0,0,1,4.43,2.33,6,6,0,0,1,5.18-2.33,5.74,5.74,0,0,1,6.1,5.77v11.71h-4.46v-10c0-2.46-1.15-3.31-2.59-3.31-1.71,0-3,1.18-3,3.94Z"/><path class="cls-4" d="M145.75,484.31a4,4,0,0,0,4.17,3.35,6.17,6.17,0,0,0,4.33-1.61l2.2,3.35a10.27,10.27,0,0,1-6.66,2.3,8.34,8.34,0,0,1-8.63-8.79v-.2c0-5.05,3.44-8.82,8.3-8.82,4.53,0,7.87,3.44,7.87,8.43v2Zm0-3.35h6.92a3.3,3.3,0,0,0-3.38-3.25A3.43,3.43,0,0,0,145.78,481Z"/><path class="cls-4" d="M160.47,474.2h4.43v1.48a5.83,5.83,0,0,1,4.36-1.8,5.62,5.62,0,0,1,5.94,5.9v11.58h-4.43v-10c0-2.43-1.15-3.35-2.69-3.35-1.8,0-3.18,1.28-3.18,3.94v9.38h-4.43Z"/><path class="cls-4" d="M185.53,486.24c0,.82.36,1.44,1.9,1.44a10.92,10.92,0,0,0,2.2-.2l.39,3.9a35.43,35.43,0,0,1-4.07.29c-3.05,0-4.85-1.34-4.85-4.36v-9.15H178v-4h3.08v-4.85l4.43-1.18v6H190v4h-4.49Z"/><path class="cls-4" d="M202.46,485.85a8,8,0,0,0,5,2.07c1.35,0,2.43-.36,2.43-1.38,0-.82-.66-1.15-2.1-1.51a29.38,29.38,0,0,1-4.26-1.21,4.62,4.62,0,0,1-3-4.46c0-3.67,3.25-5.48,7.05-5.48a9.85,9.85,0,0,1,6.79,2.43l-2.82,2.92a5.9,5.9,0,0,0-3.94-1.57c-1.21,0-2.43.43-2.43,1.44,0,.79.75,1.08,2,1.41a24.17,24.17,0,0,1,4.92,1.57,4.53,4.53,0,0,1,2.39,4.1c0,3.64-3.12,5.51-6.92,5.51a12.61,12.61,0,0,1-7.74-2.59Z"/><path class="cls-4" d="M232.37,491.36h-4.43v-1.48a5.83,5.83,0,0,1-4.36,1.8,5.62,5.62,0,0,1-5.94-5.9V474.2h4.43v10c0,2.43,1.15,3.35,2.69,3.35,1.8,0,3.18-1.28,3.18-3.94V474.2h4.43Z"/><path class="cls-4" d="M251,491.36h-4.43v-10c0-2.46-1.15-3.31-2.59-3.31-1.71,0-3,1.18-3,3.94v9.35h-4.43V474.2h4.43v1.51a5.75,5.75,0,0,1,4.4-1.84,5,5,0,0,1,4.43,2.33,6,6,0,0,1,5.18-2.33,5.74,5.74,0,0,1,6.1,5.77v11.71h-4.46v-10c0-2.46-1.15-3.31-2.59-3.31-1.71,0-3,1.18-3,3.94Z"/><path class="cls-4" d="M279.51,491.36h-4.43v-10c0-2.46-1.15-3.31-2.59-3.31-1.71,0-3,1.18-3,3.94v9.35H265V474.2h4.43v1.51a5.75,5.75,0,0,1,4.4-1.84,5,5,0,0,1,4.43,2.33,6,6,0,0,1,5.18-2.33,5.74,5.74,0,0,1,6.1,5.77v11.71h-4.46v-10c0-2.46-1.15-3.31-2.59-3.31-1.71,0-3,1.18-3,3.94Z"/><path class="cls-4" d="M298.5,491.69c-3.12,0-5.94-2-5.94-5.38,0-2.75,1.8-4.59,4.82-5l5.22-.72V480c0-1.51-1-2.2-2.69-2.2a11.55,11.55,0,0,0-5.05,1.38l-1.74-3.41a14.48,14.48,0,0,1,7-1.9c3.15,0,7,.85,7,5.51v7.35c0,1,.56,1.38,1.48,1.77l-2,3.18a3.9,3.9,0,0,1-3.21-1.93A5.93,5.93,0,0,1,298.5,491.69Zm.53-7.25c-1.08.16-1.8.79-1.8,1.77a2.08,2.08,0,0,0,2.33,2,2.87,2.87,0,0,0,3.05-3.15v-1.18Z"/><path class="cls-4" d="M321.14,478.5h-.79c-2.53,0-4.76.85-4.76,4.53v8.33h-4.43V474.2h4.43v1.93a5.32,5.32,0,0,1,4.56-2.23h1Z"/><path class="cls-4" d="M327.63,492l.13-.56h-.33l-5.28-17.29h4.92l3.15,11.87,3.08-11.87h4.85l-5.9,19.68c-.75,2.56-2.76,3.25-5.35,3.25a28.94,28.94,0,0,1-4-.33l.92-3.9a15.9,15.9,0,0,0,2.36.2A1.3,1.3,0,0,0,327.63,492Z"/><path class="cls-4" d="M60.09,521.1h6.46a5.45,5.45,0,0,1,5.69,5.77,5.61,5.61,0,0,1-6,5.75H62.35v6.85H60.09Zm6,1.94H62.35v7.64h3.73a3.54,3.54,0,0,0,3.78-3.73v-.13A3.58,3.58,0,0,0,66.08,523Z"/><path class="cls-4" d="M78.75,539.73c-2.6,0-4.57-1.52-4.57-4a3.67,3.67,0,0,1,3.49-3.7l4.62-.63v-.84c0-2-1.29-2.6-2.91-2.6a8,8,0,0,0-3.78,1l-.81-1.71a9.89,9.89,0,0,1,4.8-1.21c3.18,0,4.86,1.42,4.86,4.17v6.11a1.78,1.78,0,0,0,1.08,1.79l-1.21,1.55a2.59,2.59,0,0,1-1.76-1.57A4.86,4.86,0,0,1,78.75,539.73Zm0-6.09c-1.44.21-2.39.68-2.39,2A2.42,2.42,0,0,0,79.06,538c1.6,0,3.23-1,3.23-2.55v-2.36Z"/><path class="cls-4" d="M87.07,526.37h2.44l3.23,10.81,3.07-10.81h2.41l-4.78,15.06c-.58,1.84-1.86,2.31-3.46,2.31a15.53,15.53,0,0,1-2.34-.21l.31-1.89a10,10,0,0,0,1.73.18,1.48,1.48,0,0,0,1.65-1.31l.13-.6Z"/><path class="cls-4" d="M110.84,539.47h-2.15v-8.24c0-2.34-1.18-3.15-2.62-3.15s-2.89,1.1-2.89,3.65v7.74H101v-13.1h2.15v1.49a4,4,0,0,1,3.44-1.76,3.88,3.88,0,0,1,3.54,2.18,4.49,4.49,0,0,1,4-2.18,4.22,4.22,0,0,1,4.41,4.38v9h-2.15v-8.24c0-2.34-1.26-3.15-2.68-3.15s-2.89,1.1-2.89,3.65Z"/><path class="cls-4" d="M124.12,533.59c.16,2.47,1.71,4.25,4.07,4.25a5.25,5.25,0,0,0,3.44-1.29l1.1,1.55a7.31,7.31,0,0,1-4.64,1.63c-3.81,0-6.22-2.86-6.22-6.8s2.34-6.82,6-6.82c3.41,0,5.59,2.86,5.59,6.8v.68Zm0-1.73h6.93c-.08-2-1.21-3.86-3.28-3.86A3.81,3.81,0,0,0,124.15,531.86Z"/><path class="cls-4" d="M136.66,526.37h2.15v1.49a4.51,4.51,0,0,1,3.83-1.76,4.17,4.17,0,0,1,4.38,4.46v8.9h-2.15v-8.21c0-2.31-1.18-3.18-2.7-3.18a3.37,3.37,0,0,0-3.36,3.62v7.77h-2.15Z"/><path class="cls-4" d="M154.51,536.21c0,.87.16,1.6,1.68,1.6a11.34,11.34,0,0,0,1.63-.16l.24,1.89a19.16,19.16,0,0,1-2.34.18c-2.07,0-3.36-.81-3.36-3v-8.42h-2.47v-1.89h2.47v-4.28l2.15-.76v5h3.65v1.89h-3.65Z"/><path class="cls-4" d="M170.67,526.37h2.6v1.89h-2.6v11.21h-2.15V528.26h-2.18v-1.89h2.18v-2.44c0-2.26,1.52-3.07,3.6-3.07a12.22,12.22,0,0,1,2.1.18l-.16,1.84c-.5-.05-1.44-.11-1.86-.11-1.23,0-1.52.76-1.52,1.57Z"/><path class="cls-4" d="M187.31,532.93c0,3.94-2.41,6.8-6,6.8s-6-2.86-6-6.8,2.41-6.82,6-6.82S187.31,528.94,187.31,532.93Zm-2.23.08v-.16c0-2.62-1.31-4.86-3.81-4.86s-3.81,2.23-3.81,4.86V533c0,2.57,1.31,4.83,3.81,4.83S185.08,535.58,185.08,533Z"/><path class="cls-4" d="M197.41,528.29h-.34c-2.2,0-4.2.89-4.2,4.46v6.72h-2.15v-13.1h2.15v2.07a4.08,4.08,0,0,1,3.91-2.31h.63Z"/><path class="cls-4" d="M201.67,526.37a1.76,1.76,0,1,1-1.76,1.76A1.76,1.76,0,0,1,201.67,526.37Zm0,9.84a1.76,1.76,0,1,1-1.76,1.76A1.76,1.76,0,0,1,201.67,536.21Z"/><path class="cls-4" d="M256.3,521.1h12.39v3.36H260v3.91h8v3.36h-8v4.38h9.16v3.36H256.3Z"/><path class="cls-4" d="M275.14,532.28,271,525.74h4.09l2.1,3.7,2.2-3.7h4.12l-4.25,6.56,4.72,7.16h-4.17l-2.7-4.2-2.47,4.2H270.5Z"/><path class="cls-4" d="M289.52,539.73c-2.49,0-4.75-1.57-4.75-4.3,0-2.2,1.44-3.67,3.86-4l4.17-.58v-.45c0-1.21-.81-1.76-2.15-1.76a9.24,9.24,0,0,0-4,1.1L285.22,527a11.6,11.6,0,0,1,5.56-1.52c2.52,0,5.56.68,5.56,4.41v5.88c0,.81.45,1.1,1.18,1.42l-1.6,2.55a3.12,3.12,0,0,1-2.57-1.55A4.75,4.75,0,0,1,289.52,539.73Zm.42-5.8c-.87.13-1.44.63-1.44,1.42a1.67,1.67,0,0,0,1.86,1.6,2.29,2.29,0,0,0,2.44-2.52v-.94Z"/><path class="cls-4" d="M311.23,539.47h-3.54v-8c0-2-.92-2.65-2.07-2.65-1.36,0-2.42.94-2.42,3.15v7.48h-3.54V525.74h3.54v1.21a4.6,4.6,0,0,1,3.52-1.47,4,4,0,0,1,3.54,1.86,4.83,4.83,0,0,1,4.15-1.86,4.6,4.6,0,0,1,4.88,4.62v9.37h-3.57v-8c0-2-.92-2.65-2.07-2.65-1.37,0-2.42.94-2.42,3.15Z"/><path class="cls-4" d="M326,525.74v1.18a4.54,4.54,0,0,1,3.46-1.44c3.62,0,6,3,6,7.06v.13c0,4.07-2.49,7.06-6.12,7.06a4.36,4.36,0,0,1-3.39-1.44v5.51h-3.54V525.74Zm-.1,8.14a2.59,2.59,0,0,0,2.83,2.57c2,0,3.12-1.6,3.12-3.78v-.13c0-2.18-1.1-3.78-3.12-3.78a2.59,2.59,0,0,0-2.83,2.57Z"/><path class="cls-4" d="M338.1,521.1h3.54v14.64c0,.58.31.89,1,.89a7.08,7.08,0,0,0,1.34-.13l.29,3a29.11,29.11,0,0,1-3,.21c-2,0-3.23-1-3.23-3Z"/><path class="cls-4" d="M348.93,533.83a3.23,3.23,0,0,0,3.33,2.68,4.93,4.93,0,0,0,3.46-1.29l1.76,2.68a8.21,8.21,0,0,1-5.33,1.84,6.67,6.67,0,0,1-6.9-7v-.16c0-4,2.76-7.06,6.64-7.06,3.62,0,6.3,2.76,6.3,6.74v1.6Zm0-2.68h5.54a2.64,2.64,0,0,0-2.7-2.6A2.75,2.75,0,0,0,349,531.15Z"/><path class="cls-4" d="M367.83,535.06a6.36,6.36,0,0,0,4,1.65c1.08,0,1.94-.29,1.94-1.1,0-.66-.53-.92-1.68-1.21a23.42,23.42,0,0,1-3.41-1,3.69,3.69,0,0,1-2.41-3.57c0-2.94,2.6-4.38,5.64-4.38a7.88,7.88,0,0,1,5.43,1.94l-2.26,2.34a4.72,4.72,0,0,0-3.15-1.26c-1,0-1.94.34-1.94,1.16,0,.63.6.87,1.63,1.13a19.35,19.35,0,0,1,3.94,1.26,3.63,3.63,0,0,1,1.92,3.28c0,2.91-2.49,4.41-5.54,4.41a10.09,10.09,0,0,1-6.19-2.07Z"/><path class="cls-4" d="M383,533.83a3.23,3.23,0,0,0,3.33,2.68,4.93,4.93,0,0,0,3.46-1.29l1.76,2.68a8.21,8.21,0,0,1-5.33,1.84,6.67,6.67,0,0,1-6.9-7v-.16c0-4,2.76-7.06,6.64-7.06,3.62,0,6.3,2.76,6.3,6.74v1.6Zm0-2.68h5.54a2.64,2.64,0,0,0-2.7-2.6A2.75,2.75,0,0,0,383.07,531.15Z"/><path class="cls-4" d="M402.81,529.18h-.63c-2,0-3.81.68-3.81,3.62v6.67h-3.54V525.74h3.54v1.55a4.26,4.26,0,0,1,3.65-1.79h.79Z"/><path class="cls-4" d="M407.93,539.47l-4.2-13.73h3.94l2.47,9.45,2.52-9.45h3.88l-4.17,13.73Z"/><path class="cls-4" d="M420.31,520.44a2.23,2.23,0,1,1-2.23,2.23A2.23,2.23,0,0,1,420.31,520.44Zm1.78,19h-3.54V525.74h3.54Z"/><path class="cls-4" d="M424.69,532.57c0-4,2.78-7.09,6.64-7.09a6.17,6.17,0,0,1,6,3.54l-3.15,1.6a2.8,2.8,0,0,0-2.73-1.86c-2.15,0-3.07,2-3.07,3.78v.16c0,1.78.92,3.75,3.07,3.75a2.81,2.81,0,0,0,2.73-1.86l3.15,1.6a6.28,6.28,0,0,1-6,3.54c-3.86,0-6.59-3-6.59-7.09Z"/><path class="cls-4" d="M442.56,533.83a3.23,3.23,0,0,0,3.33,2.68,4.93,4.93,0,0,0,3.46-1.29l1.76,2.68a8.21,8.21,0,0,1-5.33,1.84,6.67,6.67,0,0,1-6.9-7v-.16c0-4,2.76-7.06,6.64-7.06,3.62,0,6.3,2.76,6.3,6.74v1.6Zm0-2.68h5.54a2.64,2.64,0,0,0-2.7-2.6A2.75,2.75,0,0,0,442.59,531.15Z"/><path class="cls-4" d="M58.12,557.18h12.6v2H65.55v16.35H63.29V559.2H58.12Z"/><path class="cls-4" d="M82.69,569c0,3.94-2.41,6.8-6,6.8s-6-2.86-6-6.8,2.41-6.82,6-6.82S82.69,565,82.69,569Zm-2.23.08v-.16c0-2.62-1.31-4.86-3.81-4.86s-3.81,2.23-3.81,4.86v.16c0,2.57,1.31,4.83,3.81,4.83S80.46,571.67,80.46,569.1Z"/><path class="cls-4" d="M89.27,572.3c0,.87.16,1.6,1.68,1.6a11.36,11.36,0,0,0,1.63-.16l.24,1.89a19.16,19.16,0,0,1-2.34.18c-2.07,0-3.36-.81-3.36-3v-8.42H84.65v-1.89h2.47v-4.28l2.15-.76v5h3.65v1.89H89.27Z"/><path class="cls-4" d="M99.43,575.81c-2.6,0-4.57-1.52-4.57-4a3.67,3.67,0,0,1,3.49-3.7l4.62-.63v-.84c0-2-1.29-2.6-2.91-2.6a8,8,0,0,0-3.78,1l-.81-1.71a9.89,9.89,0,0,1,4.8-1.21c3.18,0,4.86,1.42,4.86,4.17v6.11a1.78,1.78,0,0,0,1.08,1.79L105,575.81a2.59,2.59,0,0,1-1.76-1.57A4.86,4.86,0,0,1,99.43,575.81Zm0-6.09c-1.44.21-2.39.68-2.39,2a2.42,2.42,0,0,0,2.68,2.36c1.6,0,3.23-1,3.23-2.55V569.2Z"/><path class="cls-4" d="M109.22,557.18h2.15v15.43c0,.87.26,1.31,1.26,1.31.55,0,1-.05,1.34-.08l.21,1.81a20.83,20.83,0,0,1-2.18.16c-1.55,0-2.78-.68-2.78-2.57Z"/><path class="cls-4" d="M126.25,575.81c-2.6,0-4.57-1.52-4.57-4a3.67,3.67,0,0,1,3.49-3.7l4.62-.63v-.84c0-2-1.29-2.6-2.91-2.6a8,8,0,0,0-3.78,1l-.81-1.71a9.89,9.89,0,0,1,4.8-1.21c3.18,0,4.86,1.42,4.86,4.17v6.11a1.78,1.78,0,0,0,1.08,1.79l-1.21,1.55a2.59,2.59,0,0,1-1.76-1.57A4.86,4.86,0,0,1,126.25,575.81Zm0-6.09c-1.44.21-2.39.68-2.39,2a2.42,2.42,0,0,0,2.68,2.36c1.6,0,3.23-1,3.23-2.55V569.2Z"/><path class="cls-4" d="M145.93,575.55h-2.15v-8.24c0-2.34-1.18-3.15-2.62-3.15s-2.89,1.1-2.89,3.65v7.74h-2.15v-13.1h2.15V564a4,4,0,0,1,3.44-1.76,3.88,3.88,0,0,1,3.54,2.18,4.49,4.49,0,0,1,4-2.18,4.22,4.22,0,0,1,4.41,4.38v9h-2.15v-8.24c0-2.34-1.26-3.15-2.68-3.15s-2.89,1.1-2.89,3.65Z"/><path class="cls-4" d="M169,569c0,3.94-2.41,6.8-6,6.8s-6-2.86-6-6.8,2.41-6.82,6-6.82S169,565,169,569Zm-2.23.08v-.16c0-2.62-1.31-4.86-3.81-4.86s-3.81,2.23-3.81,4.86v.16c0,2.57,1.31,4.83,3.81,4.83S166.79,571.67,166.79,569.1Z"/><path class="cls-4" d="M182.69,575.55h-2.15v-1.5a4.51,4.51,0,0,1-3.83,1.76,4.17,4.17,0,0,1-4.38-4.46v-8.9h2.15v8.21c0,2.31,1.18,3.18,2.7,3.18a3.28,3.28,0,0,0,3.36-3.62v-7.77h2.15Z"/><path class="cls-4" d="M186.89,562.46H189V564a4.51,4.51,0,0,1,3.83-1.76,4.17,4.17,0,0,1,4.38,4.46v8.9H195.1v-8.21c0-2.31-1.18-3.18-2.7-3.18a3.37,3.37,0,0,0-3.36,3.62v7.77h-2.15Z"/><path class="cls-4" d="M204.73,572.3c0,.87.16,1.6,1.68,1.6a11.36,11.36,0,0,0,1.63-.16l.24,1.89a19.16,19.16,0,0,1-2.34.18c-2.07,0-3.36-.81-3.36-3v-8.42h-2.47v-1.89h2.47v-4.28l2.15-.76v5h3.65v1.89h-3.65Z"/><path class="cls-4" d="M212.76,562.46a1.76,1.76,0,1,1-1.76,1.76A1.76,1.76,0,0,1,212.76,562.46Zm0,9.84a1.76,1.76,0,1,1-1.76,1.76A1.76,1.76,0,0,1,212.76,572.3Z"/><path class="cls-4" d="M265.77,561.85a2.65,2.65,0,0,0-2.55-1.52c-1.52,0-2.49,1.13-2.47,2.86l0,1.84h3.7v3.23h-3.7v3.94h7.72v3.36h-13v-3.36h1.52v-3.94h-1.52V565h1.52V563c0-3.78,2.55-6,6.12-6a6.31,6.31,0,0,1,5.62,2.7Z"/><path class="cls-4" d="M279.86,575.55V571.4H270.7v-4l8.45-10.26h4.44V568h2.68v3.36h-2.68v4.15Zm0-7.51v-6.88l-5.7,6.88Z"/><path class="cls-4" d="M303,566.37c0,4.75-2.18,9.45-7.35,9.45s-7.35-4.7-7.35-9.45,2.18-9.45,7.35-9.45S303,561.62,303,566.37Zm-3.88.37V566c0-3.44-1.15-5.75-3.46-5.75s-3.49,2.31-3.49,5.75v.71c0,3.41,1.18,5.72,3.49,5.72S299.15,570.14,299.15,566.73Z"/><path class="cls-4" d="M308,570.91a2.45,2.45,0,1,1-2.47,2.44A2.47,2.47,0,0,1,308,570.91Z"/><path class="cls-4" d="M327.65,566.37c0,4.75-2.18,9.45-7.35,9.45s-7.35-4.7-7.35-9.45,2.18-9.45,7.35-9.45S327.65,561.62,327.65,566.37Zm-3.88.37V566c0-3.44-1.15-5.75-3.46-5.75s-3.49,2.31-3.49,5.75v.71c0,3.41,1.18,5.72,3.49,5.72S323.77,570.14,323.77,566.73Z"/><path class="cls-4" d="M344.81,566.37c0,4.75-2.18,9.45-7.35,9.45s-7.35-4.7-7.35-9.45,2.18-9.45,7.35-9.45S344.81,561.62,344.81,566.37Zm-3.88.37V566c0-3.44-1.15-5.75-3.46-5.75S334,562.59,334,566v.71c0,3.41,1.18,5.72,3.49,5.72S340.93,570.14,340.93,566.73Z"/></svg>