<svg id="Layer_1" data-name="Layer 1" xmlns="http://www.w3.org/2000/svg" viewBox="0 0 960 640"><defs><style>.cls-1{fill:#dadada;}.cls-2{fill:#fff;}.cls-11,.cls-3,.cls-31,.cls-32,.cls-4,.cls-7{fill:#0b0b0b;}.cls-4{font-size:36px;}.cls-11,.cls-31,.cls-4,.cls-7{font-family:NTA-Bold, NTA;font-weight:700;}.cls-5{letter-spacing:-0.01em;}.cls-6{letter-spacing:-0.01em;}.cls-11,.cls-19,.cls-7{font-size:19px;}.cls-7{letter-spacing:-0.07em;}.cls-8{letter-spacing:0em;}.cls-9{letter-spacing:-0.01em;}.cls-10{letter-spacing:-0.02em;}.cls-12{letter-spacing:-0.01em;}.cls-13{letter-spacing:0em;}.cls-14{letter-spacing:0em;}.cls-15{letter-spacing:-0.01em;}.cls-16{letter-spacing:-0.01em;}.cls-17{letter-spacing:-0.02em;}.cls-18{letter-spacing:-0.01em;}.cls-19,.cls-38{fill:#005ea5;}.cls-19,.cls-32{font-family:NTA-Light, NTA;}.cls-19{text-decoration:underline;}.cls-20{letter-spacing:-0.02em;}.cls-21{letter-spacing:-0.01em;}.cls-22{letter-spacing:-0.01em;}.cls-23{letter-spacing:0em;}.cls-24{letter-spacing:-0.08em;}.cls-25{letter-spacing:-0.01em;}.cls-26{letter-spacing:-0.01em;}.cls-27{letter-spacing:-0.02em;}.cls-28{letter-spacing:-0.02em;}.cls-29{letter-spacing:0em;}.cls-30{fill:none;stroke:#8c8c8c;stroke-miterlimit:10;}.cls-31{font-size:80px;}.cls-32{font-size:28px;}.cls-33{letter-spacing:-0.01em;}.cls-34{letter-spacing:-0.03em;}.cls-35{letter-spacing:0em;}.cls-36{letter-spacing:-0.06em;}.cls-37{letter-spacing:-0.01em;}.cls-39{fill:#8c8c8c;}.cls-40{fill:#de0000;}</style></defs><title>dashboard-screen</title><path class="cls-1" d="M0,40V10A10,10,0,0,1,10,0H950a10,10,0,0,1,10,10V40"/><circle class="cls-2" cx="25.38" cy="20" r="8.5"/><circle class="cls-2" cx="49.13" cy="20" r="8.5"/><circle class="cls-2" cx="72.88" cy="20" r="8.5"/><rect class="cls-3" x="1" y="40" width="958" height="65"/><polygon class="cls-2" points="267 59.73 256.29 72.71 256.29 59.73 250.23 59.73 250.23 89.71 256.29 89.71 256.29 80.6 260.16 76.27 268.08 89.71 275.13 89.71 264.05 71.65 274.46 59.73 267 59.73"/><path class="cls-2" d="M229.64,84.27a5.28,5.28,0,0,1-2-1.17,5.52,5.52,0,0,1-1.31-2,7.58,7.58,0,0,1-.48-2.83V59.69h-6V79.17a11,11,0,0,0,.91,4.54,9.89,9.89,0,0,0,2.54,3.45,11.55,11.55,0,0,0,3.86,2.2,15.83,15.83,0,0,0,9.78,0,11.45,11.45,0,0,0,3.85-2.2,9.94,9.94,0,0,0,2.53-3.45,11,11,0,0,0,.91-4.54V59.69h-6V78.28a7.62,7.62,0,0,1-.48,2.83,5.54,5.54,0,0,1-1.31,2,5.3,5.3,0,0,1-2,1.17,8,8,0,0,1-4.91,0"/><path class="cls-2" d="M207.73,87.81a3.93,3.93,0,0,0,.83,1.21,3.74,3.74,0,0,0,1.23.82,3.79,3.79,0,0,0,1.47.29,3.72,3.72,0,0,0,1.46-.29,3.78,3.78,0,0,0,1.21-.82,3.94,3.94,0,0,0,.83-1.21,3.67,3.67,0,0,0,.3-1.49,3.52,3.52,0,0,0-.3-1.45,3.85,3.85,0,0,0-.83-1.19,4,4,0,0,0-1.21-.82,3.58,3.58,0,0,0-1.46-.3,3.65,3.65,0,0,0-1.47.3,4,4,0,0,0-1.23.82,3.84,3.84,0,0,0-.83,1.19,3.53,3.53,0,0,0-.3,1.45,3.68,3.68,0,0,0,.3,1.49"/><polygon class="cls-2" points="198.11 89.71 206.57 59.73 199.86 59.73 194.2 82.27 193.99 82.27 188.19 59.73 181.4 59.73 189.87 89.71 198.11 89.71"/><path class="cls-2" d="M161.31,83.91a7.09,7.09,0,0,1-2.52-2.06,9.28,9.28,0,0,1-1.54-3.11,14.09,14.09,0,0,1-.52-3.93v-.17a14.13,14.13,0,0,1,.52-3.92,9.27,9.27,0,0,1,1.54-3.12,7.07,7.07,0,0,1,2.52-2.06,8.46,8.46,0,0,1,6.93,0,7.2,7.2,0,0,1,2.52,2.06,9.17,9.17,0,0,1,1.55,3.13,14.06,14.06,0,0,1,.52,3.92v.17a14,14,0,0,1-.52,3.93,9.18,9.18,0,0,1-1.55,3.11,7.22,7.22,0,0,1-2.52,2.06,8.46,8.46,0,0,1-6.93,0m-2.54-23.4a13.32,13.32,0,0,0-4.49,3.28,14.3,14.3,0,0,0-2.82,4.89,19.21,19.21,0,0,0,0,12.07,14.45,14.45,0,0,0,2.82,4.89,13.12,13.12,0,0,0,4.49,3.28,15.72,15.72,0,0,0,12,0,13.08,13.08,0,0,0,4.5-3.28,14.46,14.46,0,0,0,2.82-4.89,19.25,19.25,0,0,0,0-12.07,14.31,14.31,0,0,0-2.82-4.89,13.28,13.28,0,0,0-4.5-3.28,15.63,15.63,0,0,0-12,0"/><path class="cls-2" d="M125.68,74.6a14.07,14.07,0,0,1,.48-3.69,9.51,9.51,0,0,1,1.46-3.15,7.37,7.37,0,0,1,2.51-2.19,7.54,7.54,0,0,1,3.64-.83,8,8,0,0,1,2.43.35,6.87,6.87,0,0,1,3.43,2.36,10.32,10.32,0,0,1,1.13,1.79l5.31-3a11.19,11.19,0,0,0-2-2.85,12.15,12.15,0,0,0-2.79-2.2,13.79,13.79,0,0,0-3.49-1.4,16.17,16.17,0,0,0-4-.49,14.18,14.18,0,0,0-5.93,1.2,13.54,13.54,0,0,0-4.51,3.28,14.67,14.67,0,0,0-2.89,4.89,17.65,17.65,0,0,0-1,6,19.43,19.43,0,0,0,.91,6A14.55,14.55,0,0,0,123,85.66a12.29,12.29,0,0,0,4.29,3.28,13.65,13.65,0,0,0,5.83,1.19,11.57,11.57,0,0,0,2.64-.29,10.75,10.75,0,0,0,2.29-.81,8.75,8.75,0,0,0,1.88-1.23,7.38,7.38,0,0,0,1.4-1.6v3.51h5.31V73.28H133.08V77.9h7.67v.29a7.59,7.59,0,0,1-.32,2.09,5.79,5.79,0,0,1-1.13,2.1A6.27,6.27,0,0,1,137.15,84a7.77,7.77,0,0,1-3.38.65,7.54,7.54,0,0,1-3.64-.83,7.36,7.36,0,0,1-2.51-2.18,9.53,9.53,0,0,1-1.46-3.14,14,14,0,0,1-.48-3.7Z"/><path class="cls-2" d="M62.29,65.83a2.63,2.63,0,1,0-1.41-3.42,2.63,2.63,0,0,0,1.41,3.42"/><path class="cls-2" d="M56.33,69.32a2.63,2.63,0,1,0-1.42-3.42,2.63,2.63,0,0,0,1.42,3.42"/><path class="cls-2" d="M54.59,75.95a2.63,2.63,0,1,0-1.41-3.41,2.63,2.63,0,0,0,1.41,3.41"/><path class="cls-2" d="M68.95,67.93a2.63,2.63,0,1,0-1.41-3.42,2.63,2.63,0,0,0,1.41,3.42"/><path class="cls-2" d="M93,65.83a2.63,2.63,0,1,1,1.41-3.42A2.63,2.63,0,0,1,93,65.83"/><path class="cls-2" d="M99,69.32a2.63,2.63,0,1,1,1.42-3.42A2.63,2.63,0,0,1,99,69.32"/><path class="cls-2" d="M100.75,75.95a2.63,2.63,0,1,1,1.41-3.41,2.63,2.63,0,0,1-1.41,3.41"/><path class="cls-2" d="M86.4,67.93a2.63,2.63,0,1,1,1.41-3.42,2.63,2.63,0,0,1-1.41,3.42"/><path class="cls-2" d="M79.06,61.13h0l3.33,1.75V58L79.07,59h0a1.66,1.66,0,0,0-.32-.33h0l1.34-4.21h-4.8l1.34,4.21h0a1.7,1.7,0,0,0-.32.33h0L72.94,58v4.9l3.33-1.75h0a1.76,1.76,0,0,0,.34.34L74.7,67.24v0h0a3.1,3.1,0,0,0,2.51,4h.07l.39,0,.39,0h.07a3.1,3.1,0,0,0,2.65-3.07,3.14,3.14,0,0,0-.14-.91h0v0l-1.91-5.77a1.8,1.8,0,0,0,.34-.34"/><path class="cls-2" d="M77.67,89.35a125.8,125.8,0,0,1,17.63,1.19c1.51-6.36,3.35-10,5.25-12.6L97,76.66a6.54,6.54,0,0,1,0,3.83,7.26,7.26,0,0,1-1.59-3.26L93.66,83a5.29,5.29,0,0,1,2.8-1.22c-1.65,3.56-3.71,4.47-5.05,4.23a2.54,2.54,0,0,1-2.13-3c.38-1.75,2.17-2.21,3-.17,1.6-3.27-1.12-4.29-2.87-3.32,2.69-2.68,3-5.07.83-7.95-3,2.31-3.06,4.6-1.7,7.82-1.77-2-4.51-.94-3.52,2.33,1.27-2,3-.73,2.69,1.14-.22,1.63-2.38,2.95-5.06,2.72-3.84-.35-4.07-3-4.17-5.2.94-.17,2.65.7,4.1,2.74L83.13,77a6,6,0,0,1-4.6,2c.53-1.65,3-4.37,3-4.37H73.85s2.44,2.71,3,4.37a6,6,0,0,1-4.6-2l.53,6.13c1.45-2,3.15-2.91,4.1-2.74-.1,2.2-.32,4.85-4.17,5.2-2.68.23-4.84-1.08-5.06-2.72C67.35,81,69,79.77,70.31,81.74c1-3.26-1.75-4.35-3.52-2.33,1.36-3.22,1.32-5.51-1.7-7.82-2.17,2.88-1.86,5.27.83,7.95-1.75-1-4.47.05-2.87,3.32.84-2,2.63-1.58,3,.17a2.54,2.54,0,0,1-2.13,3c-1.34.25-3.4-.67-5-4.23A5.3,5.3,0,0,1,61.68,83l-1.74-5.78a7.24,7.24,0,0,1-1.59,3.26,6.55,6.55,0,0,1,0-3.83l-3.58,1.27c1.9,2.59,3.74,6.24,5.25,12.6a126,126,0,0,1,17.62-1.19"/><rect class="cls-1" y="636" width="960" height="4"/><polygon class="cls-1" points="4 640 4 40 956 40 956 640 960 640 960 36 0 36 0 640 4 640"/><text class="cls-4" transform="translate(51.95 170.28)"><tspan class="cls-5">D</tspan><tspan x="25.7" y="0">ashboa</tspan><tspan class="cls-6" x="145.76" y="0">r</tspan><tspan x="159.48" y="0">d</tspan></text><text class="cls-7" transform="translate(94.66 228.66)">T<tspan class="cls-8" x="9.39" y="0">od</tspan><tspan class="cls-9" x="31.86" y="0">a</tspan><tspan class="cls-10" x="41.89" y="0">y</tspan></text><text class="cls-11" transform="translate(54.72 285.9)"><tspan class="cls-12">N</tspan><tspan class="cls-13" x="14.61" y="0">e</tspan><tspan x="25.21" y="0">t in</tspan><tspan class="cls-14" x="53.69" y="0">c</tspan><tspan x="63.97" y="0">om</tspan><tspan class="cls-15" x="91.64" y="0">e</tspan></text><text class="cls-11" transform="translate(480.12 285.9)"><tspan class="cls-16">S</tspan><tspan x="11.95" y="0">u</tspan><tspan class="cls-14" x="22.8" y="0">cc</tspan><tspan x="43.36" y="0">essfu</tspan><tspan class="cls-17" x="91.22" y="0">l</tspan><tspan x="96.42" y="0" xml:space="preserve"> p</tspan><tspan class="cls-18" x="112.37" y="0">a</tspan><tspan x="122.4" y="0">yments</tspan></text><text class="cls-19" transform="translate(68.19 420.9)">See h<tspan class="cls-14" x="47.35" y="0">o</tspan><tspan class="cls-8" x="57.89" y="0">w</tspan><tspan class="cls-20" x="71.67" y="0"> </tspan><tspan x="76.27" y="0">this</tspan><tspan class="cls-21" x="107.46" y="0"> </tspan><tspan x="112.19" y="0">figu</tspan><tspan class="cls-22" x="144.09" y="0">r</tspan><tspan x="150.73" y="0">e was </tspan><tspan class="cls-23" x="203.28" y="0">c</tspan><tspan x="213.1" y="0">alculated</tspan></text><text class="cls-11" transform="translate(218.44 228.66)"><tspan class="cls-24">Y</tspan><tspan x="10.32" y="0">este</tspan><tspan class="cls-16" x="49.42" y="0">r</tspan><tspan x="56.66" y="0">d</tspan><tspan class="cls-9" x="68" y="0">a</tspan><tspan class="cls-10" x="78.03" y="0">y</tspan></text><text class="cls-11" transform="translate(384.93 228.66)">Last 7 d<tspan class="cls-9" x="68.63" y="0">a</tspan><tspan class="cls-25" x="78.66" y="0">y</tspan><tspan x="88.21" y="0">s</tspan></text><text class="cls-11" transform="translate(544.33 228.66)">P<tspan class="cls-18" x="11.68" y="0">r</tspan><tspan class="cls-26" x="18.9" y="0">e</tspan><tspan x="29.41" y="0">vious </tspan><tspan class="cls-12" x="80.43" y="0">w</tspan><tspan x="94.83" y="0">ee</tspan><tspan class="cls-22" x="116.18" y="0">k</tspan><tspan x="126.73" y="0">s</tspan></text><rect class="cls-1" x="480.12" y="297.72" width="420.88" height="55.25"/><text class="cls-11" transform="translate(480.12 399.49)"><tspan class="cls-27">F</tspan><tspan x="10.77" y="0">ailed p</tspan><tspan class="cls-18" x="69.54" y="0">a</tspan><tspan x="79.57" y="0">yments</tspan></text><rect class="cls-1" x="480.12" y="411.3" width="420.88" height="55.25"/><text class="cls-11" transform="translate(480.12 517.74)"><tspan class="cls-28">R</tspan><tspan class="cls-14" x="12.1" y="0">e</tspan><tspan class="cls-29" x="22.69" y="0">funded p</tspan><tspan class="cls-9" x="100.68" y="0">a</tspan><tspan x="110.71" y="0">yments</tspan></text><rect class="cls-1" x="480.12" y="529.56" width="420.88" height="55.25"/><path class="cls-2" d="M309.87,65.82a7.39,7.39,0,0,1,5.45,1.85,7,7,0,0,1,1.85,5.18,7.06,7.06,0,0,1-1.85,5.2,7.25,7.25,0,0,1-5.45,1.83H302.6v9.73h-3.17V65.82Zm-1.07,11.4a5.65,5.65,0,0,0,3.95-1.1A4.18,4.18,0,0,0,314,72.86a4.13,4.13,0,0,0-1.25-3.25,5.82,5.82,0,0,0-3.95-1.12h-6.2v8.73Z"/><path class="cls-2" d="M335.83,89.56a4,4,0,0,1-2,.43,2.44,2.44,0,0,1-1.75-.62,2.68,2.68,0,0,1-.65-2,6.78,6.78,0,0,1-2.72,2,9.37,9.37,0,0,1-5.57.35,5.15,5.15,0,0,1-1.82-.83,4,4,0,0,1-1.22-1.48,5,5,0,0,1-.45-2.22,5.06,5.06,0,0,1,.5-2.4,4.37,4.37,0,0,1,1.32-1.52,6,6,0,0,1,1.87-.88q1-.3,2.15-.5t2.22-.35a12.29,12.29,0,0,0,1.85-.33,3.08,3.08,0,0,0,1.27-.63,1.55,1.55,0,0,0,.47-1.22,2.83,2.83,0,0,0-.35-1.5A2.4,2.4,0,0,0,330,75a3.66,3.66,0,0,0-1.23-.4,9.26,9.26,0,0,0-1.35-.1,6,6,0,0,0-3,.68,2.9,2.9,0,0,0-1.3,2.58H320.3a6.11,6.11,0,0,1,.67-2.7,5.05,5.05,0,0,1,1.6-1.78,6.73,6.73,0,0,1,2.28-1,12,12,0,0,1,2.75-.3,16.23,16.23,0,0,1,2.32.17,6.07,6.07,0,0,1,2.08.68,4,4,0,0,1,1.5,1.45,4.62,4.62,0,0,1,.57,2.43v8.85a6.59,6.59,0,0,0,.12,1.46q.12.47.78.47a3.44,3.44,0,0,0,.87-.13Zm-4.6-8.83a3.53,3.53,0,0,1-1.4.58q-.87.18-1.82.3t-1.92.27a7.13,7.13,0,0,0-1.73.48,3.14,3.14,0,0,0-1.25.95,2.64,2.64,0,0,0-.48,1.67,2.29,2.29,0,0,0,.28,1.18,2.35,2.35,0,0,0,.73.78,3.09,3.09,0,0,0,1.05.43,5.83,5.83,0,0,0,1.27.13,6.76,6.76,0,0,0,2.4-.38,5.07,5.07,0,0,0,1.63-1,3.82,3.82,0,0,0,.93-1.26,3.17,3.17,0,0,0,.3-1.28Z"/><path class="cls-2" d="M345.23,91.92a18.07,18.07,0,0,1-1,2.13,5.83,5.83,0,0,1-1.07,1.42,3.63,3.63,0,0,1-1.3.8,5,5,0,0,1-1.65.25,7.56,7.56,0,0,1-1-.07,4.75,4.75,0,0,1-1-.23v-2.6a4.73,4.73,0,0,0,.85.28,3.58,3.58,0,0,0,.82.12,2.43,2.43,0,0,0,1.45-.42,2.56,2.56,0,0,0,.88-1.18l1.17-2.9L336.6,72.39h3.2l5,14.1h.07l4.83-14.1h3Z"/><polyline class="cls-30" points="54.72 239.25 63.31 239.25 63.31 200.25 175.24 200.25 175.24 239.25 901 239.25"/><text class="cls-31" transform="translate(51.95 368)">£58,340</text><text class="cls-32" transform="translate(499.95 336.02)">582</text><text class="cls-32" transform="translate(786.05 336.02)">£5<tspan class="cls-33" x="33.1" y="0">9</tspan><tspan class="cls-34" x="50.2" y="0">,</tspan><tspan class="cls-35" x="57.32" y="0">102</tspan></text><text class="cls-32" transform="translate(499.95 449.25)">34</text><text class="cls-32" transform="translate(798.2 449.25)">£<tspan class="cls-36" x="16.27" y="0">7</tspan><tspan class="cls-37" x="29.54" y="0">,</tspan><tspan x="37.18" y="0">098</tspan></text><text class="cls-32" transform="translate(499.95 567.25)">4</text><text class="cls-32" transform="translate(822.2 567.25)">£762</text><polygon class="cls-38" points="62.5 414.87 55 419.89 55 409.84 62.5 414.87"/><rect class="cls-38" x="480.12" y="297.72" width="9.55" height="55.25"/><rect class="cls-39" x="480.12" y="411.3" width="9.55" height="55.25"/><rect class="cls-40" x="480.12" y="529.56" width="9.55" height="55.25"/><rect class="cls-1" y="636" width="960" height="4"/></svg>