<svg id="Layer_1" data-name="Layer 1" xmlns="http://www.w3.org/2000/svg" viewBox="0 0 960 640"><defs><style>.cls-1{fill:#fff;}.cls-2,.cls-37,.cls-5{fill:#0b0b0b;}.cls-3,.cls-9{fill:#005ea5;}.cls-4{fill:#dadada;}.cls-5{font-size:36px;}.cls-37,.cls-5,.cls-9{font-family:NTA-Bold, NTA;}.cls-10,.cls-26,.cls-27,.cls-28,.cls-36,.cls-5,.cls-52{font-weight:700;}.cls-6{letter-spacing:0em;}.cls-41,.cls-52,.cls-7,.cls-9{font-size:19px;}.cls-7{fill:#8c8c8c;}.cls-41,.cls-7{font-family:NTA-Light, NTA;}.cls-8{letter-spacing:-0.01em;}.cls-11{letter-spacing:-0.02em;}.cls-12{letter-spacing:-0.05em;}.cls-13{letter-spacing:-0.01em;}.cls-14{letter-spacing:0em;}.cls-15{letter-spacing:-0.01em;}.cls-16{letter-spacing:-0.01em;}.cls-17{letter-spacing:-0.02em;}.cls-18,.cls-26{letter-spacing:0em;}.cls-19{letter-spacing:-0.01em;}.cls-20{letter-spacing:0em;}.cls-21{letter-spacing:-0.01em;}.cls-22{letter-spacing:-0.02em;}.cls-23{letter-spacing:-0.01em;}.cls-24{letter-spacing:-0.01em;}.cls-25{letter-spacing:-0.01em;}.cls-27,.cls-50{letter-spacing:0em;}.cls-28{letter-spacing:0.62em;}.cls-29{font-family:SourceSansPro-Black, Source Sans Pro;}.cls-30{letter-spacing:-0.02em;}.cls-31{letter-spacing:-0.07em;}.cls-32{letter-spacing:-0.02em;}.cls-33{letter-spacing:-0.04em;}.cls-34{letter-spacing:-0.01em;}.cls-35{letter-spacing:-0.02em;}.cls-36,.cls-47{letter-spacing:-0.05em;}.cls-37{font-size:26px;}.cls-38{letter-spacing:0em;}.cls-39{letter-spacing:0em;}.cls-40{letter-spacing:0em;}.cls-42{letter-spacing:-0.01em;}.cls-43{letter-spacing:0em;}.cls-44{letter-spacing:-0.03em;}.cls-45{letter-spacing:-0.03em;}.cls-46{letter-spacing:-0.02em;}.cls-48{letter-spacing:-0.01em;}.cls-49{letter-spacing:-0.01em;}.cls-51{letter-spacing:-0.03em;}.cls-53{letter-spacing:-0.01em;}.cls-54{letter-spacing:-0.01em;}.cls-55{letter-spacing:-0.08em;}.cls-56{letter-spacing:-0.01em;}.cls-57{letter-spacing:-0.05em;}.cls-58{letter-spacing:-0.03em;}.cls-59{fill:none;stroke:#8c8c8c;stroke-miterlimit:10;}</style></defs><title>docs-screen</title><rect class="cls-1" x="59.55" y="148.75" width="238.88" height="36.16"/><path class="cls-2" d="M297.43,149.75v34.16H60.55V149.75H297.43m2-2H58.55v38.16H299.43V147.75Z"/><rect class="cls-3" x="59.55" y="387.47" width="238.88" height="36.16"/><path class="cls-3" d="M297.43,388.47v34.16H60.55V388.47H297.43m2-2H58.55v38.16H299.43V386.47Z"/><path class="cls-4" d="M0,40V10A10,10,0,0,1,10,0H950a10,10,0,0,1,10,10V40"/><circle class="cls-1" cx="25.38" cy="20" r="8.5"/><circle class="cls-1" cx="49.13" cy="20" r="8.5"/><circle class="cls-1" cx="72.88" cy="20" r="8.5"/><rect class="cls-2" x="1" y="40" width="958" height="65"/><polygon class="cls-1" points="267 59.73 256.29 72.71 256.29 59.73 250.23 59.73 250.23 89.71 256.29 89.71 256.29 80.6 260.16 76.27 268.08 89.71 275.13 89.71 264.05 71.65 274.46 59.73 267 59.73"/><path class="cls-1" d="M229.64,84.27a5.28,5.28,0,0,1-2-1.17,5.52,5.52,0,0,1-1.31-2,7.58,7.58,0,0,1-.48-2.83V59.69h-6V79.17a11,11,0,0,0,.91,4.54,9.89,9.89,0,0,0,2.54,3.45,11.55,11.55,0,0,0,3.86,2.2,15.83,15.83,0,0,0,9.78,0,11.45,11.45,0,0,0,3.85-2.2,9.94,9.94,0,0,0,2.53-3.45,11,11,0,0,0,.91-4.54V59.69h-6V78.28a7.62,7.62,0,0,1-.48,2.83,5.54,5.54,0,0,1-1.31,2,5.3,5.3,0,0,1-2,1.17,8,8,0,0,1-4.91,0"/><path class="cls-1" d="M207.73,87.81a3.93,3.93,0,0,0,.83,1.21,3.74,3.74,0,0,0,1.23.82,3.79,3.79,0,0,0,1.47.29,3.72,3.72,0,0,0,1.46-.29,3.78,3.78,0,0,0,1.21-.82,3.94,3.94,0,0,0,.83-1.21,3.67,3.67,0,0,0,.3-1.49,3.52,3.52,0,0,0-.3-1.45,3.85,3.85,0,0,0-.83-1.19,4,4,0,0,0-1.21-.82,3.58,3.58,0,0,0-1.46-.3,3.65,3.65,0,0,0-1.47.3,4,4,0,0,0-1.23.82,3.84,3.84,0,0,0-.83,1.19,3.53,3.53,0,0,0-.3,1.45,3.68,3.68,0,0,0,.3,1.49"/><polygon class="cls-1" points="198.11 89.71 206.57 59.73 199.86 59.73 194.2 82.27 193.99 82.27 188.19 59.73 181.4 59.73 189.87 89.71 198.11 89.71"/><path class="cls-1" d="M161.31,83.91a7.09,7.09,0,0,1-2.52-2.06,9.28,9.28,0,0,1-1.54-3.11,14.09,14.09,0,0,1-.52-3.93v-.17a14.13,14.13,0,0,1,.52-3.92,9.27,9.27,0,0,1,1.54-3.12,7.07,7.07,0,0,1,2.52-2.06,8.46,8.46,0,0,1,6.93,0,7.2,7.2,0,0,1,2.52,2.06,9.17,9.17,0,0,1,1.55,3.13,14.06,14.06,0,0,1,.52,3.92v.17a14,14,0,0,1-.52,3.93,9.18,9.18,0,0,1-1.55,3.11,7.22,7.22,0,0,1-2.52,2.06,8.46,8.46,0,0,1-6.93,0m-2.54-23.4a13.32,13.32,0,0,0-4.49,3.28,14.3,14.3,0,0,0-2.82,4.89,19.21,19.21,0,0,0,0,12.07,14.45,14.45,0,0,0,2.82,4.89,13.12,13.12,0,0,0,4.49,3.28,15.72,15.72,0,0,0,12,0,13.08,13.08,0,0,0,4.5-3.28,14.46,14.46,0,0,0,2.82-4.89,19.25,19.25,0,0,0,0-12.07,14.31,14.31,0,0,0-2.82-4.89,13.28,13.28,0,0,0-4.5-3.28,15.63,15.63,0,0,0-12,0"/><path class="cls-1" d="M125.68,74.6a14.07,14.07,0,0,1,.48-3.69,9.51,9.51,0,0,1,1.46-3.15,7.37,7.37,0,0,1,2.51-2.19,7.54,7.54,0,0,1,3.64-.83,8,8,0,0,1,2.43.35,6.87,6.87,0,0,1,3.43,2.36,10.32,10.32,0,0,1,1.13,1.79l5.31-3a11.19,11.19,0,0,0-2-2.85,12.15,12.15,0,0,0-2.79-2.2,13.79,13.79,0,0,0-3.49-1.4,16.17,16.17,0,0,0-4-.49,14.18,14.18,0,0,0-5.93,1.2,13.54,13.54,0,0,0-4.51,3.28,14.67,14.67,0,0,0-2.89,4.89,17.65,17.65,0,0,0-1,6,19.43,19.43,0,0,0,.91,6A14.55,14.55,0,0,0,123,85.66a12.29,12.29,0,0,0,4.29,3.28,13.65,13.65,0,0,0,5.83,1.19,11.57,11.57,0,0,0,2.64-.29,10.75,10.75,0,0,0,2.29-.81,8.75,8.75,0,0,0,1.88-1.23,7.38,7.38,0,0,0,1.4-1.6v3.51h5.31V73.28H133.08V77.9h7.67v.29a7.59,7.59,0,0,1-.32,2.09,5.79,5.79,0,0,1-1.13,2.1A6.27,6.27,0,0,1,137.15,84a7.77,7.77,0,0,1-3.38.65,7.54,7.54,0,0,1-3.64-.83,7.36,7.36,0,0,1-2.51-2.18,9.53,9.53,0,0,1-1.46-3.14,14,14,0,0,1-.48-3.7Z"/><path class="cls-1" d="M62.29,65.83a2.63,2.63,0,1,0-1.41-3.42,2.63,2.63,0,0,0,1.41,3.42"/><path class="cls-1" d="M56.33,69.32a2.63,2.63,0,1,0-1.42-3.42,2.63,2.63,0,0,0,1.42,3.42"/><path class="cls-1" d="M54.59,75.95a2.63,2.63,0,1,0-1.41-3.41,2.63,2.63,0,0,0,1.41,3.41"/><path class="cls-1" d="M68.95,67.93a2.63,2.63,0,1,0-1.41-3.42,2.63,2.63,0,0,0,1.41,3.42"/><path class="cls-1" d="M93,65.83a2.63,2.63,0,1,1,1.41-3.42A2.63,2.63,0,0,1,93,65.83"/><path class="cls-1" d="M99,69.32a2.63,2.63,0,1,1,1.42-3.42A2.63,2.63,0,0,1,99,69.32"/><path class="cls-1" d="M100.75,75.95a2.63,2.63,0,1,1,1.41-3.41,2.63,2.63,0,0,1-1.41,3.41"/><path class="cls-1" d="M86.4,67.93a2.63,2.63,0,1,1,1.41-3.42,2.63,2.63,0,0,1-1.41,3.42"/><path class="cls-1" d="M79.06,61.13h0l3.33,1.75V58L79.07,59h0a1.66,1.66,0,0,0-.32-.33h0l1.34-4.21h-4.8l1.34,4.21h0a1.7,1.7,0,0,0-.32.33h0L72.94,58v4.9l3.33-1.75h0a1.76,1.76,0,0,0,.34.34L74.7,67.24v0h0a3.1,3.1,0,0,0,2.51,4h.07l.39,0,.39,0h.07a3.1,3.1,0,0,0,2.65-3.07,3.14,3.14,0,0,0-.14-.91h0v0l-1.91-5.77a1.8,1.8,0,0,0,.34-.34"/><path class="cls-1" d="M77.67,89.35a125.8,125.8,0,0,1,17.63,1.19c1.51-6.36,3.35-10,5.25-12.6L97,76.66a6.54,6.54,0,0,1,0,3.83,7.26,7.26,0,0,1-1.59-3.26L93.66,83a5.29,5.29,0,0,1,2.8-1.22c-1.65,3.56-3.71,4.47-5.05,4.23a2.54,2.54,0,0,1-2.13-3c.38-1.75,2.17-2.21,3-.17,1.6-3.27-1.12-4.29-2.87-3.32,2.69-2.68,3-5.07.83-7.95-3,2.31-3.06,4.6-1.7,7.82-1.77-2-4.51-.94-3.52,2.33,1.27-2,3-.73,2.69,1.14-.22,1.63-2.38,2.95-5.06,2.72-3.84-.35-4.07-3-4.17-5.2.94-.17,2.65.7,4.1,2.74L83.13,77a6,6,0,0,1-4.6,2c.53-1.65,3-4.37,3-4.37H73.85s2.44,2.71,3,4.37a6,6,0,0,1-4.6-2l.53,6.13c1.45-2,3.15-2.91,4.1-2.74-.1,2.2-.32,4.85-4.17,5.2-2.68.23-4.84-1.08-5.06-2.72C67.35,81,69,79.77,70.31,81.74c1-3.26-1.75-4.35-3.52-2.33,1.36-3.22,1.32-5.51-1.7-7.82-2.17,2.88-1.86,5.27.83,7.95-1.75-1-4.47.05-2.87,3.32.84-2,2.63-1.58,3,.17a2.54,2.54,0,0,1-2.13,3c-1.34.25-3.4-.67-5-4.23A5.3,5.3,0,0,1,61.68,83l-1.74-5.78a7.24,7.24,0,0,1-1.59,3.26,6.55,6.55,0,0,1,0-3.83l-3.58,1.27c1.9,2.59,3.74,6.24,5.25,12.6a126,126,0,0,1,17.62-1.19"/><polygon class="cls-4" points="4 640 4 40 956 40 956 640 960 640 960 36 0 36 0 640 4 640"/><text class="cls-5" transform="translate(360.87 173.97)">Document<tspan class="cls-6" x="174.67" y="0">a</tspan><tspan x="193.79" y="0">tion</tspan></text><path class="cls-1" d="M309.87,65.82a7.39,7.39,0,0,1,5.45,1.85,7,7,0,0,1,1.85,5.18,7.06,7.06,0,0,1-1.85,5.2,7.25,7.25,0,0,1-5.45,1.83H302.6v9.73h-3.17V65.82Zm-1.07,11.4a5.65,5.65,0,0,0,3.95-1.1A4.18,4.18,0,0,0,314,72.86a4.13,4.13,0,0,0-1.25-3.25,5.82,5.82,0,0,0-3.95-1.12h-6.2v8.73Z"/><path class="cls-1" d="M335.83,89.56a4,4,0,0,1-2,.43,2.44,2.44,0,0,1-1.75-.62,2.68,2.68,0,0,1-.65-2,6.78,6.78,0,0,1-2.72,2,9.37,9.37,0,0,1-5.57.35,5.15,5.15,0,0,1-1.82-.83,4,4,0,0,1-1.22-1.48,5,5,0,0,1-.45-2.22,5.06,5.06,0,0,1,.5-2.4,4.37,4.37,0,0,1,1.32-1.52,6,6,0,0,1,1.87-.88q1-.3,2.15-.5t2.22-.35a12.29,12.29,0,0,0,1.85-.33,3.08,3.08,0,0,0,1.27-.63,1.55,1.55,0,0,0,.47-1.22,2.83,2.83,0,0,0-.35-1.5A2.4,2.4,0,0,0,330,75a3.66,3.66,0,0,0-1.23-.4,9.26,9.26,0,0,0-1.35-.1,6,6,0,0,0-3,.68,2.9,2.9,0,0,0-1.3,2.58H320.3a6.11,6.11,0,0,1,.67-2.7,5.05,5.05,0,0,1,1.6-1.78,6.73,6.73,0,0,1,2.28-1,12,12,0,0,1,2.75-.3,16.23,16.23,0,0,1,2.32.17,6.07,6.07,0,0,1,2.08.68,4,4,0,0,1,1.5,1.45,4.62,4.62,0,0,1,.57,2.43v8.85a6.59,6.59,0,0,0,.12,1.46q.12.47.78.47a3.44,3.44,0,0,0,.87-.13Zm-4.6-8.83a3.53,3.53,0,0,1-1.4.58q-.87.18-1.82.3t-1.92.27a7.13,7.13,0,0,0-1.73.48,3.14,3.14,0,0,0-1.25.95,2.64,2.64,0,0,0-.48,1.67,2.29,2.29,0,0,0,.28,1.18,2.35,2.35,0,0,0,.73.78,3.09,3.09,0,0,0,1.05.43,5.83,5.83,0,0,0,1.27.13,6.76,6.76,0,0,0,2.4-.38,5.07,5.07,0,0,0,1.63-1,3.82,3.82,0,0,0,.93-1.26,3.17,3.17,0,0,0,.3-1.28Z"/><path class="cls-1" d="M345.23,91.92a18.07,18.07,0,0,1-1,2.13,5.83,5.83,0,0,1-1.07,1.42,3.63,3.63,0,0,1-1.3.8,5,5,0,0,1-1.65.25,7.56,7.56,0,0,1-1-.07,4.75,4.75,0,0,1-1-.23v-2.6a4.73,4.73,0,0,0,.85.28,3.58,3.58,0,0,0,.82.12,2.43,2.43,0,0,0,1.45-.42,2.56,2.56,0,0,0,.88-1.18l1.17-2.9L336.6,72.39h3.2l5,14.1h.07l4.83-14.1h3Z"/><rect class="cls-4" x="0.32" y="636" width="960" height="4"/><text class="cls-7" transform="translate(69.96 172.67)">Sea<tspan class="cls-8" x="31.5" y="0">r</tspan><tspan x="38.13" y="0">ch...</tspan></text><text class="cls-9" transform="translate(69.96 222.33)"><tspan class="cls-10">About G<tspan class="cls-11" x="72.81" y="0">O</tspan><tspan class="cls-12" x="86.73" y="0">V</tspan><tspan class="cls-13" x="97.89" y="0">.</tspan><tspan class="cls-14" x="103.13" y="0">U</tspan><tspan class="cls-15" x="116.62" y="0">K</tspan><tspan x="128.99" y="0"> </tspan><tspan class="cls-16" x="133.59" y="0">P</tspan><tspan class="cls-13" x="145.16" y="0">a</tspan><tspan class="cls-17" x="155.19" y="0">y</tspan><tspan x="0" y="38">B</tspan><tspan class="cls-18" x="12.84" y="38">e</tspan><tspan class="cls-19" x="23.43" y="38">f</tspan><tspan class="cls-20" x="30.27" y="38">o</tspan><tspan class="cls-19" x="41.4" y="38">r</tspan><tspan class="cls-21" x="48.62" y="38">e</tspan><tspan class="cls-22" x="59.05" y="38"> </tspan><tspan class="cls-23" x="63.23" y="38">y</tspan><tspan x="72.73" y="38">ou start</tspan><tspan class="cls-18" x="0" y="76">Q</tspan><tspan x="14.21" y="76">uick start guid</tspan><tspan class="cls-24" x="141.89" y="76">e</tspan><tspan class="cls-16" x="0" y="114">P</tspan><tspan class="cls-19" x="11.57" y="114">a</tspan><tspan x="21.6" y="114">yment fl</tspan><tspan class="cls-25" x="94.66" y="114">o</tspan><tspan x="105.62" y="114">w </tspan><tspan class="cls-8" x="124.79" y="114">ov</tspan><tspan class="cls-20" x="145.27" y="114">ervi</tspan><tspan class="cls-18" x="178.08" y="114">e</tspan><tspan x="188.67" y="114">w</tspan><tspan x="0" y="152">API </tspan><tspan class="cls-19" x="34.79" y="152">r</tspan><tspan class="cls-18" x="42.01" y="152">e</tspan><tspan class="cls-13" x="52.59" y="152">f</tspan><tspan x="59.43" y="152">e</tspan><tspan class="cls-19" x="70.11" y="152">r</tspan><tspan x="77.33" y="152">en</tspan><tspan class="cls-18" x="98.86" y="152">c</tspan><tspan class="cls-24" x="109.13" y="152">e</tspan></tspan><tspan class="cls-1"><tspan class="cls-26" x="0" y="190">I</tspan><tspan class="cls-10" x="5.57" y="190">nteg</tspan><tspan class="cls-27" x="46.17" y="190">r</tspan><tspan class="cls-26" x="53.47" y="190">a</tspan><tspan class="cls-10" x="63.55" y="190">tion d</tspan><tspan class="cls-27" x="114.51" y="190">e</tspan><tspan class="cls-10" x="125.11" y="190">tails</tspan><tspan class="cls-28" x="163.66" y="190">	</tspan><tspan class="cls-10" x="180" y="190" xml:space="preserve">      </tspan><tspan class="cls-29" x="207.59" y="190">&gt;</tspan><tspan class="cls-10" x="217.85" y="190" xml:space="preserve">      </tspan></tspan><tspan class="cls-10"><tspan class="cls-30" x="0" y="228">R</tspan><tspan class="cls-18" x="12.1" y="228">e</tspan><tspan class="cls-14" x="22.69" y="228">funding p</tspan><tspan class="cls-13" x="105.47" y="228">a</tspan><tspan x="115.5" y="228">yments</tspan><tspan class="cls-31" x="0" y="266">T</tspan><tspan class="cls-20" x="9.39" y="266">esting G</tspan><tspan class="cls-32" x="83.18" y="266">O</tspan><tspan class="cls-33" x="97.11" y="266">V</tspan><tspan class="cls-13" x="108.26" y="266">.</tspan><tspan class="cls-14" x="113.5" y="266">U</tspan><tspan class="cls-15" x="126.99" y="266">K</tspan><tspan x="139.36" y="266"> </tspan><tspan class="cls-16" x="143.96" y="266">P</tspan><tspan class="cls-13" x="155.53" y="266">a</tspan><tspan class="cls-17" x="165.56" y="266">y</tspan><tspan class="cls-34" x="0" y="304">S</tspan><tspan x="11.86" y="304">witching</tspan><tspan class="cls-35" x="87.49" y="304"> </tspan><tspan x="91.69" y="304">to p</tspan><tspan class="cls-19" x="126.84" y="304">r</tspan><tspan x="134.06" y="304">oduction</tspan></tspan><tspan class="cls-36"><tspan x="0" y="342">T</tspan><tspan class="cls-19" x="9.59" y="342">r</tspan><tspan class="cls-20" x="16.81" y="342">oublesho</tspan><tspan class="cls-13" x="98.13" y="342">o</tspan><tspan class="cls-14" x="109.12" y="342">tingt</tspan></tspan></text><text class="cls-37" transform="translate(360.87 228.28)"><tspan class="cls-10"><tspan class="cls-38">I</tspan><tspan x="7.62" y="0">nteg</tspan><tspan class="cls-39" x="63.18" y="0">r</tspan><tspan class="cls-38" x="73.16" y="0">a</tspan><tspan x="86.97" y="0">tion d</tspan><tspan class="cls-40" x="156.7" y="0">e</tspan><tspan x="171.21" y="0">tails</tspan></tspan><tspan class="cls-41"><tspan x="0" y="45.6">This section gi</tspan><tspan class="cls-42" x="121.12" y="45.6">v</tspan><tspan x="130.11" y="45.6">es mo</tspan><tspan class="cls-34" x="180.46" y="45.6">r</tspan><tspan x="187.09" y="45.6">e</tspan><tspan class="cls-32" x="197.23" y="45.6"> </tspan><tspan x="201.83" y="45.6">techni</tspan><tspan class="cls-43" x="254.61" y="45.6">c</tspan><tspan x="264.43" y="45.6">a</tspan><tspan class="cls-44" x="274.18" y="45.6">l</tspan><tspan x="278.87" y="45.6" xml:space="preserve"> d</tspan><tspan class="cls-18" x="294.7" y="45.6">e</tspan><tspan x="304.75" y="45.6">tai</tspan><tspan class="cls-45" x="326.3" y="45.6">l</tspan><tspan x="330.99" y="45.6" xml:space="preserve"> about h</tspan><tspan class="cls-18" x="400.32" y="45.6">o</tspan><tspan x="410.86" y="45.6">w</tspan><tspan class="cls-32" x="424.64" y="45.6"> </tspan><tspan x="429.24" y="45.6">to integrate </tspan><tspan class="cls-19" x="0" y="68.4">y</tspan><tspan x="8.91" y="68.4">ou</tspan><tspan class="cls-22" x="30.02" y="68.4">r</tspan><tspan x="36.46" y="68.4" xml:space="preserve"> servi</tspan><tspan class="cls-18" x="81.15" y="68.4">c</tspan><tspan x="90.95" y="68.4">e with G</tspan><tspan class="cls-46" x="160.49" y="68.4">O</tspan><tspan class="cls-47" x="174.07" y="68.4">V</tspan><tspan class="cls-21" x="184.58" y="68.4">.</tspan><tspan x="189.5" y="68.4">U</tspan><tspan class="cls-48" x="202.89" y="68.4">K</tspan><tspan x="214.79" y="68.4"> </tspan><tspan class="cls-49" x="219.77" y="68.4">P</tspan><tspan class="cls-50" x="231.07" y="68.4">a</tspan><tspan class="cls-51" x="240.74" y="68.4">y</tspan><tspan x="249.23" y="68.4">.</tspan></tspan><tspan class="cls-52"><tspan x="0" y="114">C</tspan><tspan class="cls-19" x="13.22" y="114">r</tspan><tspan x="20.44" y="114">e</tspan><tspan class="cls-18" x="31.12" y="114">a</tspan><tspan x="41.21" y="114">ting a p</tspan><tspan class="cls-13" x="106.82" y="114">a</tspan><tspan x="116.85" y="114">yment</tspan></tspan><tspan class="cls-41"><tspan x="0" y="159.6">When</tspan><tspan class="cls-17" x="48.37" y="159.6"> </tspan><tspan class="cls-13" x="52.93" y="159.6">y</tspan><tspan x="61.84" y="159.6">ou ma</tspan><tspan class="cls-17" x="113.33" y="159.6">k</tspan><tspan x="123" y="159.6">e a p</tspan><tspan class="cls-50" x="163.7" y="159.6">a</tspan><tspan x="173.37" y="159.6">yment,</tspan><tspan class="cls-17" x="231.3" y="159.6"> </tspan><tspan class="cls-13" x="235.86" y="159.6">y</tspan><tspan x="244.77" y="159.6">ou wil</tspan><tspan class="cls-45" x="294.44" y="159.6">l</tspan><tspan x="299.13" y="159.6" xml:space="preserve"> need</tspan><tspan class="cls-32" x="345.71" y="159.6"> </tspan><tspan x="350.31" y="159.6">to supp</tspan><tspan class="cls-18" x="414.23" y="159.6">l</tspan><tspan class="cls-17" x="419.34" y="159.6">y</tspan><tspan x="427.98" y="159.6" xml:space="preserve"> a </tspan><tspan class="cls-34" x="447.68" y="159.6">r</tspan><tspan x="454.31" y="159.6">e</tspan><tspan class="cls-13" x="464.46" y="159.6">f</tspan><tspan x="470.56" y="159.6">e</tspan><tspan class="cls-34" x="480.71" y="159.6">r</tspan><tspan class="cls-20" x="487.33" y="159.6">en</tspan><tspan class="cls-53" x="507.95" y="159.6">c</tspan><tspan x="517.75" y="159.6">e. </tspan><tspan x="0" y="182.4">This is a unique identifie</tspan><tspan class="cls-17" x="203.14" y="182.4">r</tspan><tspan class="cls-24" x="209.58" y="182.4"> </tspan><tspan class="cls-19" x="214.31" y="182.4">f</tspan><tspan x="220.41" y="182.4">o</tspan><tspan class="cls-17" x="231.05" y="182.4">r</tspan><tspan class="cls-32" x="237.49" y="182.4"> </tspan><tspan x="242.09" y="182.4">the p</tspan><tspan class="cls-43" x="285.73" y="182.4">a</tspan><tspan x="295.4" y="182.4">yment. </tspan><tspan class="cls-54" x="358.08" y="182.4">I</tspan><tspan class="cls-32" x="363.44" y="182.4">f</tspan><tspan class="cls-17" x="369.31" y="182.4"> </tspan><tspan class="cls-13" x="373.87" y="182.4">y</tspan><tspan x="382.78" y="182.4">ou</tspan><tspan class="cls-17" x="403.89" y="182.4">r</tspan><tspan x="410.33" y="182.4" xml:space="preserve"> o</tspan><tspan class="cls-49" x="425.95" y="182.4">r</tspan><tspan x="432.67" y="182.4">ganisation </tspan><tspan x="0" y="205.2">al</tspan><tspan class="cls-8" x="14.95" y="205.2">r</tspan><tspan x="21.58" y="205.2">ead</tspan><tspan class="cls-17" x="52.33" y="205.2">y</tspan><tspan x="60.97" y="205.2" xml:space="preserve"> has an </tspan><tspan class="cls-18" x="125.26" y="205.2">e</tspan><tspan x="135.31" y="205.2">xisting identifie</tspan><tspan class="cls-17" x="264.61" y="205.2">r</tspan><tspan class="cls-21" x="271.05" y="205.2"> </tspan><tspan class="cls-13" x="275.78" y="205.2">f</tspan><tspan x="281.88" y="205.2">o</tspan><tspan class="cls-17" x="292.52" y="205.2">r</tspan><tspan x="298.96" y="205.2" xml:space="preserve"> p</tspan><tspan class="cls-50" x="314.78" y="205.2">a</tspan><tspan x="324.45" y="205.2">yments,</tspan><tspan class="cls-17" x="391.31" y="205.2"> </tspan><tspan class="cls-13" x="395.87" y="205.2">y</tspan><tspan x="404.78" y="205.2">ou </tspan><tspan class="cls-50" x="430.87" y="205.2">c</tspan><tspan x="440.69" y="205.2">an use it </tspan><tspan x="0" y="228">he</tspan><tspan class="cls-8" x="20.61" y="228">r</tspan><tspan x="27.25" y="228">e.</tspan><tspan class="cls-55" x="0" y="273.6">Y</tspan><tspan x="9.77" y="273.6">ou wil</tspan><tspan class="cls-45" x="59.43" y="273.6">l</tspan><tspan x="64.12" y="273.6" xml:space="preserve"> also need</tspan><tspan class="cls-32" x="150.21" y="273.6"> </tspan><tspan x="154.81" y="273.6">to supp</tspan><tspan class="cls-18" x="218.72" y="273.6">l</tspan><tspan class="cls-17" x="223.83" y="273.6">y</tspan><tspan x="232.48" y="273.6" xml:space="preserve"> a </tspan><tspan class="cls-34" x="252.18" y="273.6">r</tspan><tspan class="cls-18" x="258.81" y="273.6">e</tspan><tspan x="268.86" y="273.6">turn_url, a UR</tspan><tspan class="cls-45" x="383.75" y="273.6">L</tspan><tspan x="392.6" y="273.6" xml:space="preserve"> hosted </tspan><tspan class="cls-13" x="460.79" y="273.6">b</tspan><tspan class="cls-17" x="471.49" y="273.6">y </tspan><tspan class="cls-19" x="484.69" y="273.6">y</tspan><tspan x="493.6" y="273.6">ou</tspan><tspan class="cls-22" x="514.71" y="273.6">r</tspan><tspan x="521.15" y="273.6"> </tspan><tspan x="0" y="296.4">servi</tspan><tspan class="cls-18" x="39.71" y="296.4">c</tspan><tspan x="49.51" y="296.4">e</tspan><tspan class="cls-21" x="59.66" y="296.4"> </tspan><tspan class="cls-13" x="64.39" y="296.4">f</tspan><tspan x="70.49" y="296.4">o</tspan><tspan class="cls-17" x="81.13" y="296.4">r</tspan><tspan class="cls-32" x="87.57" y="296.4"> </tspan><tspan x="92.17" y="296.4">the use</tspan><tspan class="cls-17" x="154.5" y="296.4">r</tspan><tspan class="cls-32" x="160.94" y="296.4"> </tspan><tspan x="165.54" y="296.4">to </tspan><tspan class="cls-8" x="188.36" y="296.4">r</tspan><tspan class="cls-18" x="194.99" y="296.4">e</tspan><tspan x="205.04" y="296.4">turn</tspan><tspan class="cls-32" x="240.04" y="296.4"> </tspan><tspan x="244.63" y="296.4">to afte</tspan><tspan class="cls-17" x="300.8" y="296.4">r</tspan><tspan class="cls-32" x="307.24" y="296.4"> </tspan><tspan x="311.84" y="296.4">th</tspan><tspan class="cls-16" x="329.51" y="296.4">e</tspan><tspan class="cls-17" x="339.54" y="296.4">y</tspan><tspan x="348.18" y="296.4" xml:space="preserve"> h</tspan><tspan class="cls-18" x="363.63" y="296.4">a</tspan><tspan class="cls-56" x="373.28" y="296.4">v</tspan><tspan x="382.27" y="296.4">e </tspan><tspan class="cls-18" x="397.39" y="296.4">c</tspan><tspan x="407.19" y="296.4">ompl</tspan><tspan class="cls-18" x="449.54" y="296.4">e</tspan><tspan x="459.6" y="296.4">ted </tspan><tspan x="0" y="319.2">p</tspan><tspan class="cls-50" x="10.85" y="319.2">a</tspan><tspan x="20.52" y="319.2">yment on G</tspan><tspan class="cls-46" x="117.51" y="319.2">O</tspan><tspan class="cls-57" x="131.1" y="319.2">V</tspan><tspan class="cls-21" x="141.6" y="319.2">.</tspan><tspan x="146.53" y="319.2">U</tspan><tspan class="cls-15" x="159.92" y="319.2">K</tspan><tspan x="171.81" y="319.2"> </tspan><tspan class="cls-49" x="176.79" y="319.2">P</tspan><tspan class="cls-50" x="188.1" y="319.2">a</tspan><tspan class="cls-58" x="197.77" y="319.2">y</tspan><tspan x="206.26" y="319.2">. See</tspan><tspan class="cls-32" x="248.3" y="319.2"> </tspan><tspan x="252.9" y="319.2">the section bel</tspan><tspan class="cls-18" x="378.75" y="319.2">o</tspan><tspan x="389.3" y="319.2">w on Choosing </tspan><tspan x="0" y="342">the </tspan><tspan class="cls-8" x="32.79" y="342">r</tspan><tspan class="cls-18" x="39.42" y="342">e</tspan><tspan x="49.47" y="342">turn UR</tspan><tspan class="cls-44" x="114.91" y="342">L</tspan><tspan class="cls-24" x="123.76" y="342"> </tspan><tspan class="cls-19" x="128.49" y="342">f</tspan><tspan x="134.59" y="342">o</tspan><tspan class="cls-17" x="145.23" y="342">r</tspan><tspan x="151.67" y="342" xml:space="preserve"> mo</tspan><tspan class="cls-8" x="182.95" y="342">r</tspan><tspan x="189.58" y="342">e in</tspan><tspan class="cls-19" x="219.77" y="342">f</tspan><tspan class="cls-20" x="225.86" y="342">ormation.</tspan></tspan></text><line class="cls-59" x1="322.63" y1="611.73" x2="322.63" y2="148.77"/></svg>