<svg id="Layer_1" data-name="Layer 1" xmlns="http://www.w3.org/2000/svg" viewBox="0 0 960 640"><defs><style>.cls-1{fill:#dadada;}.cls-2{fill:#fff;}.cls-16,.cls-26,.cls-3,.cls-32,.cls-36,.cls-4{fill:#0b0b0b;}.cls-4{font-size:36.96px;}.cls-26,.cls-36,.cls-4,.cls-9{font-family:NTA-Bold, NTA;}.cls-27,.cls-4,.cls-40,.cls-45,.cls-9{font-weight:700;}.cls-5{letter-spacing:0em;}.cls-6{letter-spacing:-0.02em;}.cls-7{letter-spacing:-0.01em;}.cls-8{letter-spacing:0em;}.cls-16,.cls-26,.cls-32,.cls-40,.cls-42,.cls-9{font-size:21.94px;}.cls-35,.cls-9{fill:#de0000;}.cls-10{letter-spacing:-0.01em;}.cls-11{letter-spacing:-0.02em;}.cls-12{letter-spacing:-0.01em;}.cls-13{letter-spacing:-0.02em;}.cls-14{letter-spacing:-0.01em;}.cls-15{letter-spacing:0em;}.cls-16,.cls-17,.cls-29,.cls-32,.cls-42{font-family:NTA-Light, NTA;}.cls-16{letter-spacing:0.03em;}.cls-17{font-size:18.48px;}.cls-17,.cls-29{fill:#6e6e6e;}.cls-18{letter-spacing:-0.01em;}.cls-19{letter-spacing:0em;}.cls-20{letter-spacing:-0.01em;}.cls-21{letter-spacing:0em;}.cls-22{letter-spacing:-0.01em;}.cls-23{letter-spacing:-0.02em;}.cls-24{fill:#f8f8f8;}.cls-25{fill:#dee0e2;}.cls-28{letter-spacing:-0.02em;}.cls-30{letter-spacing:-0.02em;}.cls-31{letter-spacing:-0.03em;}.cls-33{letter-spacing:-0.01em;}.cls-34{letter-spacing:-0.08em;}.cls-36{font-size:27.72px;}.cls-37{letter-spacing:-0.01em;}.cls-38{letter-spacing:-0.01em;}.cls-39{letter-spacing:-0.02em;}.cls-41{letter-spacing:-0.07em;}.cls-43{letter-spacing:-0.02em;}.cls-44{letter-spacing:0em;}.cls-45{font-size:41.58px;}</style></defs><title>payment-screen</title><path class="cls-1" d="M0,40V10A10,10,0,0,1,10,0H950a10,10,0,0,1,10,10V40"/><circle class="cls-2" cx="25.38" cy="20" r="8.5"/><circle class="cls-2" cx="49.13" cy="20" r="8.5"/><circle class="cls-2" cx="72.88" cy="20" r="8.5"/><rect class="cls-3" x="1" y="40" width="958" height="65"/><polygon class="cls-2" points="267 59.73 256.29 72.71 256.29 59.73 250.23 59.73 250.23 89.71 256.29 89.71 256.29 80.6 260.16 76.27 268.08 89.71 275.13 89.71 264.05 71.65 274.46 59.73 267 59.73"/><path class="cls-2" d="M229.64,84.27a5.27,5.27,0,0,1-2-1.17,5.51,5.51,0,0,1-1.31-2,7.58,7.58,0,0,1-.48-2.83V59.69h-6V79.17a11,11,0,0,0,.91,4.54,9.9,9.9,0,0,0,2.54,3.45,11.54,11.54,0,0,0,3.86,2.2,15.83,15.83,0,0,0,9.78,0,11.45,11.45,0,0,0,3.86-2.2,9.94,9.94,0,0,0,2.53-3.45,11,11,0,0,0,.91-4.54V59.69h-6V78.28a7.6,7.6,0,0,1-.48,2.83,5.52,5.52,0,0,1-1.31,2,5.3,5.3,0,0,1-2,1.17,8,8,0,0,1-4.91,0"/><path class="cls-2" d="M207.73,87.81a3.93,3.93,0,0,0,.83,1.21,3.74,3.74,0,0,0,1.22.82,3.8,3.8,0,0,0,1.47.29,3.72,3.72,0,0,0,1.46-.29,3.77,3.77,0,0,0,1.21-.82,3.92,3.92,0,0,0,.83-1.21,3.66,3.66,0,0,0,.3-1.49,3.52,3.52,0,0,0-.3-1.45,3.84,3.84,0,0,0-.83-1.19,4,4,0,0,0-1.21-.82,3.58,3.58,0,0,0-1.46-.3,3.65,3.65,0,0,0-1.47.3,4,4,0,0,0-1.22.82,3.84,3.84,0,0,0-.83,1.19,3.53,3.53,0,0,0-.3,1.45,3.68,3.68,0,0,0,.3,1.49"/><polygon class="cls-2" points="198.1 89.71 206.57 59.73 199.86 59.73 194.19 82.27 193.99 82.27 188.19 59.73 181.4 59.73 189.87 89.71 198.1 89.71"/><path class="cls-2" d="M161.31,83.91a7.08,7.08,0,0,1-2.52-2.06,9.28,9.28,0,0,1-1.54-3.11,14.11,14.11,0,0,1-.52-3.93v-.17a14.15,14.15,0,0,1,.52-3.92,9.27,9.27,0,0,1,1.54-3.12,7.07,7.07,0,0,1,2.52-2.06,8.46,8.46,0,0,1,6.93,0,7.2,7.2,0,0,1,2.52,2.06,9.15,9.15,0,0,1,1.55,3.13,14,14,0,0,1,.52,3.92v.17a14,14,0,0,1-.52,3.93,9.16,9.16,0,0,1-1.55,3.11,7.21,7.21,0,0,1-2.52,2.06,8.46,8.46,0,0,1-6.93,0m-2.54-23.4a13.34,13.34,0,0,0-4.49,3.28,14.3,14.3,0,0,0-2.82,4.89,19.22,19.22,0,0,0,0,12.07,14.45,14.45,0,0,0,2.82,4.89,13.13,13.13,0,0,0,4.49,3.28,15.73,15.73,0,0,0,12,0,13.08,13.08,0,0,0,4.5-3.28,14.44,14.44,0,0,0,2.82-4.89,19.26,19.26,0,0,0,0-12.07,14.29,14.29,0,0,0-2.82-4.89,13.28,13.28,0,0,0-4.5-3.28,15.63,15.63,0,0,0-12,0"/><path class="cls-2" d="M125.68,74.6a14.07,14.07,0,0,1,.48-3.69,9.49,9.49,0,0,1,1.46-3.15,7.37,7.37,0,0,1,2.51-2.19,7.54,7.54,0,0,1,3.64-.83,8,8,0,0,1,2.43.35,6.87,6.87,0,0,1,3.43,2.36,10.29,10.29,0,0,1,1.13,1.79l5.31-3a11.17,11.17,0,0,0-2-2.85,12.14,12.14,0,0,0-2.79-2.2,13.78,13.78,0,0,0-3.49-1.4,16.17,16.17,0,0,0-4-.49,14.18,14.18,0,0,0-5.93,1.2,13.54,13.54,0,0,0-4.52,3.28,14.65,14.65,0,0,0-2.88,4.89,17.64,17.64,0,0,0-1,6,19.45,19.45,0,0,0,.91,6A14.57,14.57,0,0,0,123,85.66a12.3,12.3,0,0,0,4.29,3.28,13.65,13.65,0,0,0,5.83,1.19,11.57,11.57,0,0,0,2.64-.29,10.73,10.73,0,0,0,2.29-.81,8.77,8.77,0,0,0,1.88-1.23,7.39,7.39,0,0,0,1.4-1.6v3.51h5.31V73.28H133.08V77.9h7.67v.29a7.57,7.57,0,0,1-.32,2.09,5.78,5.78,0,0,1-1.13,2.1A6.27,6.27,0,0,1,137.15,84a7.77,7.77,0,0,1-3.38.65,7.54,7.54,0,0,1-3.64-.83,7.36,7.36,0,0,1-2.51-2.18,9.51,9.51,0,0,1-1.46-3.14,14,14,0,0,1-.48-3.7Z"/><path class="cls-2" d="M62.29,65.83a2.63,2.63,0,1,0-1.41-3.42,2.63,2.63,0,0,0,1.41,3.42"/><path class="cls-2" d="M56.33,69.32a2.63,2.63,0,1,0-1.42-3.42,2.63,2.63,0,0,0,1.42,3.42"/><path class="cls-2" d="M54.59,75.95a2.63,2.63,0,1,0-1.42-3.41,2.63,2.63,0,0,0,1.42,3.41"/><path class="cls-2" d="M68.95,67.93a2.63,2.63,0,1,0-1.41-3.42,2.63,2.63,0,0,0,1.41,3.42"/><path class="cls-2" d="M93,65.83a2.63,2.63,0,1,1,1.42-3.42A2.63,2.63,0,0,1,93,65.83"/><path class="cls-2" d="M99,69.32a2.63,2.63,0,1,1,1.42-3.42A2.63,2.63,0,0,1,99,69.32"/><path class="cls-2" d="M100.75,75.95a2.63,2.63,0,1,1,1.41-3.41,2.63,2.63,0,0,1-1.41,3.41"/><path class="cls-2" d="M86.4,67.93a2.63,2.63,0,1,1,1.41-3.42,2.63,2.63,0,0,1-1.41,3.42"/><path class="cls-2" d="M79.06,61.13h0l3.33,1.75V58L79.07,59h0a1.64,1.64,0,0,0-.32-.33h0l1.34-4.21h-4.8l1.34,4.21h0a1.7,1.7,0,0,0-.32.33h0L72.94,58v4.9l3.33-1.75h0a1.8,1.8,0,0,0,.34.34L74.7,67.24v0h0a3.1,3.1,0,0,0,2.51,4h.07l.39,0a3,3,0,0,0,.39,0h.07a3.1,3.1,0,0,0,2.51-4h0v0l-1.91-5.77a1.78,1.78,0,0,0,.34-.34"/><path class="cls-2" d="M77.67,89.35a125.81,125.81,0,0,1,17.63,1.19c1.51-6.36,3.35-10,5.25-12.6L97,76.66a6.54,6.54,0,0,1,0,3.83,7.25,7.25,0,0,1-1.59-3.26L93.66,83a5.3,5.3,0,0,1,2.8-1.22c-1.65,3.56-3.71,4.47-5,4.23a2.54,2.54,0,0,1-2.13-3c.38-1.75,2.17-2.21,3-.17,1.6-3.27-1.12-4.29-2.87-3.32,2.69-2.68,3-5.07.83-7.95-3,2.31-3.06,4.6-1.7,7.82-1.77-2-4.51-.94-3.52,2.33,1.27-2,3-.73,2.69,1.14-.22,1.63-2.38,2.95-5.06,2.72-3.84-.35-4.07-3-4.17-5.2.94-.17,2.65.7,4.1,2.74L83.13,77a6,6,0,0,1-4.61,2c.53-1.65,3-4.37,3-4.37H73.85s2.43,2.71,3,4.37a6,6,0,0,1-4.61-2l.53,6.13c1.45-2,3.15-2.91,4.1-2.74-.1,2.2-.32,4.85-4.17,5.2-2.68.23-4.83-1.08-5.06-2.72C67.35,81,69,79.77,70.31,81.74c1-3.26-1.75-4.35-3.52-2.33,1.36-3.22,1.32-5.51-1.7-7.82-2.17,2.88-1.86,5.27.83,7.95-1.75-1-4.47.05-2.87,3.32.84-2,2.63-1.58,3,.17a2.54,2.54,0,0,1-2.13,3c-1.34.25-3.4-.67-5-4.23A5.31,5.31,0,0,1,61.68,83l-1.74-5.78a7.25,7.25,0,0,1-1.59,3.26,6.54,6.54,0,0,1,0-3.83l-3.58,1.27c1.9,2.59,3.74,6.24,5.25,12.6a126,126,0,0,1,17.62-1.19"/><rect class="cls-1" y="636" width="960" height="4"/><polygon class="cls-1" points="4 640 4 40 956 40 956 640 960 640 960 36 0 36 0 640 4 640"/><text class="cls-4" transform="translate(52.57 183.59)"><tspan class="cls-5">E</tspan><tspan x="22.43" y="0">nte</tspan><tspan class="cls-6" x="80.02" y="0">r</tspan><tspan x="93.58" y="0" xml:space="preserve"> ca</tspan><tspan class="cls-7" x="142.52" y="0">r</tspan><tspan x="156.6" y="0">d d</tspan><tspan class="cls-8" x="209.67" y="0">e</tspan><tspan x="230.3" y="0">tails</tspan></text><text class="cls-9" transform="translate(52.57 257)">Ca<tspan class="cls-10" x="27.04" y="0">r</tspan><tspan x="35.4" y="0">d numbe</tspan><tspan class="cls-11" x="123.39" y="0">r</tspan><tspan x="131.45" y="0" xml:space="preserve"> is n</tspan><tspan class="cls-12" x="171.5" y="0">o</tspan><tspan x="184.18" y="0">t</tspan><tspan class="cls-13" x="193.51" y="0"> </tspan><tspan x="198.36" y="0">th</tspan><tspan class="cls-14" x="220.21" y="0">e</tspan><tspan x="232.26" y="0"> </tspan><tspan class="cls-15" x="237.57" y="0">c</tspan><tspan x="249.44" y="0">or</tspan><tspan class="cls-12" x="270.82" y="0">r</tspan><tspan x="279.16" y="0">ect length</tspan></text><text class="cls-16" transform="translate(64.12 300.02)">520082828</text><text class="cls-17" transform="translate(52.57 394.24)"><tspan class="cls-18">A</tspan><tspan class="cls-19" x="11.48" y="0">cc</tspan><tspan x="30.55" y="0">e</tspan><tspan class="cls-20" x="40.42" y="0">p</tspan><tspan x="50.84" y="0">ted c</tspan><tspan class="cls-18" x="92.73" y="0">r</tspan><tspan x="99.18" y="0">edit and debit </tspan><tspan class="cls-21" x="218.26" y="0">c</tspan><tspan x="227.82" y="0">a</tspan><tspan class="cls-22" x="237.3" y="0">r</tspan><tspan x="243.78" y="0">d</tspan><tspan class="cls-23" x="254.33" y="0"> </tspan><tspan x="258.81" y="0">types</tspan></text><path class="cls-3" d="M443.83,271.64v42.2H54.57v-42.2H443.83m2-2H52.57v46.2H445.83v-46.2Z"/><rect class="cls-24" x="576.22" y="160.41" width="322.64" height="263.72"/><path class="cls-25" d="M893.86,165.41V419.14H581.22V165.41H893.86m10-10H571.22V429.14H903.86V155.41Z"/><text class="cls-26" transform="translate(52.57 465.25)"><tspan class="cls-27">Expir<tspan class="cls-28" x="52.32" y="0">y</tspan><tspan x="63" y="0" xml:space="preserve"> d</tspan><tspan class="cls-15" x="81.42" y="0">a</tspan><tspan x="93.07" y="0">t</tspan><tspan class="cls-14" x="102.39" y="0">e</tspan></tspan><tspan class="cls-29"><tspan class="cls-30" x="0" y="28.88">F</tspan><tspan x="12.09" y="28.88">o</tspan><tspan class="cls-28" x="24.38" y="28.88">r</tspan><tspan x="31.82" y="28.88"> </tspan><tspan class="cls-15" x="37.57" y="28.88">e</tspan><tspan x="49.18" y="28.88">xample, 0</tspan><tspan class="cls-31" x="145.25" y="28.88">7</tspan><tspan x="156.31" y="28.88">/19</tspan></tspan></text><text class="cls-32" transform="translate(138.04 571.62)">/</text><text class="cls-32" transform="translate(52.57 528.62)"><tspan class="cls-33">M</tspan><tspan x="18.5" y="0">onth</tspan></text><text class="cls-32" transform="translate(156.51 528.62)"><tspan class="cls-34">Y</tspan><tspan x="11.28" y="0">ea</tspan><tspan class="cls-28" x="34.26" y="0">r</tspan></text><path class="cls-3" d="M125.64,544.39v42.2H54.57v-42.2h71.08m2-2H52.57v46.2h75.08v-46.2Z"/><path class="cls-3" d="M229.59,544.39v42.2H158.51v-42.2h71.08m2-2H156.51v46.2h75.08v-46.2Z"/><rect class="cls-35" x="34.67" y="234.66" width="5.78" height="166.32"/><text class="cls-36" transform="translate(601.32 211.15)"><tspan class="cls-27"><tspan class="cls-37">P</tspan><tspan class="cls-38" x="16.88" y="0">a</tspan><tspan x="31.52" y="0">yment summar</tspan><tspan class="cls-39" x="223.42" y="0">y</tspan></tspan><tspan class="cls-40"><tspan class="cls-41" x="0" y="59.6">T</tspan><tspan x="10.84" y="59.6">est p</tspan><tspan class="cls-12" x="62.08" y="59.6">a</tspan><tspan x="73.67" y="59.6">yment</tspan></tspan><tspan class="cls-42"><tspan x="0" y="119.2">Amount</tspan><tspan class="cls-43" x="76.76" y="119.2"> </tspan><tspan x="82.07" y="119.2">to p</tspan><tspan class="cls-44" x="120.96" y="119.2">a</tspan><tspan x="132.13" y="119.2">y:</tspan></tspan><tspan class="cls-45"><tspan x="0" y="169.09">£150.00</tspan></tspan></text></svg>