<svg id="Layer_1" data-name="Layer 1" xmlns="http://www.w3.org/2000/svg" viewBox="0 0 960 640"><defs><style>.cls-1{fill:#dadada;}.cls-2,.cls-32{fill:#fff;}.cls-13,.cls-28,.cls-3,.cls-38,.cls-4,.cls-48,.cls-9{fill:#0b0b0b;}.cls-4{font-size:36px;}.cls-38,.cls-4,.cls-48,.cls-9{font-family:NTA-Bold, NTA;}.cls-39,.cls-4,.cls-48,.cls-9{font-weight:700;}.cls-5{letter-spacing:-0.05em;}.cls-6{letter-spacing:0em;}.cls-7{letter-spacing:0em;}.cls-8{fill:none;stroke:#8c8c8c;}.cls-49,.cls-8{stroke-miterlimit:10;}.cls-13,.cls-28,.cls-32,.cls-38,.cls-48,.cls-9{font-size:19px;}.cls-10{letter-spacing:-0.01em;}.cls-11{letter-spacing:-0.01em;}.cls-12{letter-spacing:0em;}.cls-13,.cls-28,.cls-32,.cls-41,.cls-47{font-family:NTA-Light, NTA;}.cls-14,.cls-47{letter-spacing:-0.02em;}.cls-15{letter-spacing:0em;}.cls-16{letter-spacing:-0.01em;}.cls-17{letter-spacing:-0.01em;}.cls-18{letter-spacing:0em;}.cls-19{letter-spacing:-0.01em;}.cls-20{letter-spacing:-0.01em;}.cls-21{letter-spacing:-0.01em;}.cls-22{letter-spacing:-0.01em;}.cls-23{letter-spacing:-0.01em;}.cls-24{letter-spacing:-0.01em;}.cls-25{letter-spacing:-0.02em;}.cls-26{letter-spacing:-0.04em;}.cls-27{letter-spacing:-0.02em;}.cls-28,.cls-42{letter-spacing:-0.02em;}.cls-29{letter-spacing:-0.01em;}.cls-30{fill:#881516;}.cls-31{fill:#b10e1e;}.cls-33{letter-spacing:0em;}.cls-34{opacity:0.5;}.cls-35{letter-spacing:-0.02em;}.cls-36{letter-spacing:0em;}.cls-37{letter-spacing:-0.01em;}.cls-40{letter-spacing:-0.01em;}.cls-43{letter-spacing:-0.03em;}.cls-44{letter-spacing:-0.02em;}.cls-45{letter-spacing:-0.01em;}.cls-46{letter-spacing:0em;}.cls-48{letter-spacing:-0.02em;}.cls-49{fill:#8c8c8c;stroke:#b4b4b4;stroke-width:8px;}.cls-50{fill:#ffbf47;}</style></defs><title>refund-screens</title><path class="cls-1" d="M0,40V10A10,10,0,0,1,10,0H950a10,10,0,0,1,10,10V40"/><circle class="cls-2" cx="25.38" cy="20" r="8.5"/><circle class="cls-2" cx="49.13" cy="20" r="8.5"/><circle class="cls-2" cx="72.88" cy="20" r="8.5"/><rect class="cls-3" x="1" y="40" width="958" height="65"/><polygon class="cls-2" points="267 59.73 256.29 72.71 256.29 59.73 250.23 59.73 250.23 89.71 256.29 89.71 256.29 80.6 260.16 76.27 268.08 89.71 275.13 89.71 264.05 71.65 274.46 59.73 267 59.73"/><path class="cls-2" d="M229.64,84.27a5.28,5.28,0,0,1-2-1.17,5.52,5.52,0,0,1-1.31-2,7.58,7.58,0,0,1-.48-2.83V59.69h-6V79.17a11,11,0,0,0,.91,4.54,9.89,9.89,0,0,0,2.54,3.45,11.55,11.55,0,0,0,3.86,2.2,15.83,15.83,0,0,0,9.78,0,11.45,11.45,0,0,0,3.85-2.2,9.94,9.94,0,0,0,2.53-3.45,11,11,0,0,0,.91-4.54V59.69h-6V78.28a7.62,7.62,0,0,1-.48,2.83,5.54,5.54,0,0,1-1.31,2,5.3,5.3,0,0,1-2,1.17,8,8,0,0,1-4.91,0"/><path class="cls-2" d="M207.73,87.81a3.93,3.93,0,0,0,.83,1.21,3.74,3.74,0,0,0,1.23.82,3.79,3.79,0,0,0,1.47.29,3.72,3.72,0,0,0,1.46-.29,3.78,3.78,0,0,0,1.21-.82,3.94,3.94,0,0,0,.83-1.21,3.67,3.67,0,0,0,.3-1.49,3.52,3.52,0,0,0-.3-1.45,3.85,3.85,0,0,0-.83-1.19,4,4,0,0,0-1.21-.82,3.58,3.58,0,0,0-1.46-.3,3.65,3.65,0,0,0-1.47.3,4,4,0,0,0-1.23.82,3.84,3.84,0,0,0-.83,1.19,3.53,3.53,0,0,0-.3,1.45,3.68,3.68,0,0,0,.3,1.49"/><polygon class="cls-2" points="198.11 89.71 206.57 59.73 199.86 59.73 194.2 82.27 193.99 82.27 188.19 59.73 181.4 59.73 189.87 89.71 198.11 89.71"/><path class="cls-2" d="M161.31,83.91a7.09,7.09,0,0,1-2.52-2.06,9.28,9.28,0,0,1-1.54-3.11,14.09,14.09,0,0,1-.52-3.93v-.17a14.13,14.13,0,0,1,.52-3.92,9.27,9.27,0,0,1,1.54-3.12,7.07,7.07,0,0,1,2.52-2.06,8.46,8.46,0,0,1,6.93,0,7.2,7.2,0,0,1,2.52,2.06,9.17,9.17,0,0,1,1.55,3.13,14.06,14.06,0,0,1,.52,3.92v.17a14,14,0,0,1-.52,3.93,9.18,9.18,0,0,1-1.55,3.11,7.22,7.22,0,0,1-2.52,2.06,8.46,8.46,0,0,1-6.93,0m-2.54-23.4a13.32,13.32,0,0,0-4.49,3.28,14.3,14.3,0,0,0-2.82,4.89,19.21,19.21,0,0,0,0,12.07,14.45,14.45,0,0,0,2.82,4.89,13.12,13.12,0,0,0,4.49,3.28,15.72,15.72,0,0,0,12,0,13.08,13.08,0,0,0,4.5-3.28,14.46,14.46,0,0,0,2.82-4.89,19.25,19.25,0,0,0,0-12.07,14.31,14.31,0,0,0-2.82-4.89,13.28,13.28,0,0,0-4.5-3.28,15.63,15.63,0,0,0-12,0"/><path class="cls-2" d="M125.68,74.6a14.07,14.07,0,0,1,.48-3.69,9.51,9.51,0,0,1,1.46-3.15,7.37,7.37,0,0,1,2.51-2.19,7.54,7.54,0,0,1,3.64-.83,8,8,0,0,1,2.43.35,6.87,6.87,0,0,1,3.43,2.36,10.32,10.32,0,0,1,1.13,1.79l5.31-3a11.19,11.19,0,0,0-2-2.85,12.15,12.15,0,0,0-2.79-2.2,13.79,13.79,0,0,0-3.49-1.4,16.17,16.17,0,0,0-4-.49,14.18,14.18,0,0,0-5.93,1.2,13.54,13.54,0,0,0-4.51,3.28,14.67,14.67,0,0,0-2.89,4.89,17.65,17.65,0,0,0-1,6,19.43,19.43,0,0,0,.91,6A14.55,14.55,0,0,0,123,85.66a12.29,12.29,0,0,0,4.29,3.28,13.65,13.65,0,0,0,5.83,1.19,11.57,11.57,0,0,0,2.64-.29,10.75,10.75,0,0,0,2.29-.81,8.75,8.75,0,0,0,1.88-1.23,7.38,7.38,0,0,0,1.4-1.6v3.51h5.31V73.28H133.08V77.9h7.67v.29a7.59,7.59,0,0,1-.32,2.09,5.79,5.79,0,0,1-1.13,2.1A6.27,6.27,0,0,1,137.15,84a7.77,7.77,0,0,1-3.38.65,7.54,7.54,0,0,1-3.64-.83,7.36,7.36,0,0,1-2.51-2.18,9.53,9.53,0,0,1-1.46-3.14,14,14,0,0,1-.48-3.7Z"/><path class="cls-2" d="M62.29,65.83a2.63,2.63,0,1,0-1.41-3.42,2.63,2.63,0,0,0,1.41,3.42"/><path class="cls-2" d="M56.33,69.32a2.63,2.63,0,1,0-1.42-3.42,2.63,2.63,0,0,0,1.42,3.42"/><path class="cls-2" d="M54.59,75.95a2.63,2.63,0,1,0-1.41-3.41,2.63,2.63,0,0,0,1.41,3.41"/><path class="cls-2" d="M68.95,67.93a2.63,2.63,0,1,0-1.41-3.42,2.63,2.63,0,0,0,1.41,3.42"/><path class="cls-2" d="M93,65.83a2.63,2.63,0,1,1,1.41-3.42A2.63,2.63,0,0,1,93,65.83"/><path class="cls-2" d="M99,69.32a2.63,2.63,0,1,1,1.42-3.42A2.63,2.63,0,0,1,99,69.32"/><path class="cls-2" d="M100.75,75.95a2.63,2.63,0,1,1,1.41-3.41,2.63,2.63,0,0,1-1.41,3.41"/><path class="cls-2" d="M86.4,67.93a2.63,2.63,0,1,1,1.41-3.42,2.63,2.63,0,0,1-1.41,3.42"/><path class="cls-2" d="M79.06,61.13h0l3.33,1.75V58L79.07,59h0a1.66,1.66,0,0,0-.32-.33h0l1.34-4.21h-4.8l1.34,4.21h0a1.7,1.7,0,0,0-.32.33h0L72.94,58v4.9l3.33-1.75h0a1.76,1.76,0,0,0,.34.34L74.7,67.24v0h0a3.1,3.1,0,0,0,2.51,4h.07l.39,0,.39,0h.07a3.1,3.1,0,0,0,2.65-3.07,3.14,3.14,0,0,0-.14-.91h0v0l-1.91-5.77a1.8,1.8,0,0,0,.34-.34"/><path class="cls-2" d="M77.67,89.35a125.8,125.8,0,0,1,17.63,1.19c1.51-6.36,3.35-10,5.25-12.6L97,76.66a6.54,6.54,0,0,1,0,3.83,7.26,7.26,0,0,1-1.59-3.26L93.66,83a5.29,5.29,0,0,1,2.8-1.22c-1.65,3.56-3.71,4.47-5.05,4.23a2.54,2.54,0,0,1-2.13-3c.38-1.75,2.17-2.21,3-.17,1.6-3.27-1.12-4.29-2.87-3.32,2.69-2.68,3-5.07.83-7.95-3,2.31-3.06,4.6-1.7,7.82-1.77-2-4.51-.94-3.52,2.33,1.27-2,3-.73,2.69,1.14-.22,1.63-2.38,2.95-5.06,2.72-3.84-.35-4.07-3-4.17-5.2.94-.17,2.65.7,4.1,2.74L83.13,77a6,6,0,0,1-4.6,2c.53-1.65,3-4.37,3-4.37H73.85s2.44,2.71,3,4.37a6,6,0,0,1-4.6-2l.53,6.13c1.45-2,3.15-2.91,4.1-2.74-.1,2.2-.32,4.85-4.17,5.2-2.68.23-4.84-1.08-5.06-2.72C67.35,81,69,79.77,70.31,81.74c1-3.26-1.75-4.35-3.52-2.33,1.36-3.22,1.32-5.51-1.7-7.82-2.17,2.88-1.86,5.27.83,7.95-1.75-1-4.47.05-2.87,3.32.84-2,2.63-1.58,3,.17a2.54,2.54,0,0,1-2.13,3c-1.34.25-3.4-.67-5-4.23A5.3,5.3,0,0,1,61.68,83l-1.74-5.78a7.24,7.24,0,0,1-1.59,3.26,6.55,6.55,0,0,1,0-3.83l-3.58,1.27c1.9,2.59,3.74,6.24,5.25,12.6a126,126,0,0,1,17.62-1.19"/><text class="cls-4" transform="translate(51.95 170.28)"><tspan class="cls-5">T</tspan><tspan class="cls-6" x="18.18" y="0">r</tspan><tspan x="32" y="0">ansaction d</tspan><tspan class="cls-7" x="225.68" y="0">e</tspan><tspan x="245.77" y="0">tails</tspan></text><path class="cls-2" d="M309.87,65.82a7.39,7.39,0,0,1,5.45,1.85,7,7,0,0,1,1.85,5.18,7.06,7.06,0,0,1-1.85,5.2,7.25,7.25,0,0,1-5.45,1.83H302.6v9.73h-3.17V65.82Zm-1.07,11.4a5.65,5.65,0,0,0,3.95-1.1A4.18,4.18,0,0,0,314,72.86a4.13,4.13,0,0,0-1.25-3.25,5.82,5.82,0,0,0-3.95-1.12h-6.2v8.73Z"/><path class="cls-2" d="M335.83,89.56a4,4,0,0,1-2,.43,2.44,2.44,0,0,1-1.75-.62,2.68,2.68,0,0,1-.65-2,6.78,6.78,0,0,1-2.72,2,9.38,9.38,0,0,1-5.57.35,5.15,5.15,0,0,1-1.82-.83,4,4,0,0,1-1.22-1.48,5,5,0,0,1-.45-2.22,5.06,5.06,0,0,1,.5-2.4,4.37,4.37,0,0,1,1.32-1.52,6,6,0,0,1,1.87-.88q1-.3,2.15-.5t2.22-.35a12.29,12.29,0,0,0,1.85-.33,3.08,3.08,0,0,0,1.27-.63,1.55,1.55,0,0,0,.47-1.22,2.83,2.83,0,0,0-.35-1.5A2.4,2.4,0,0,0,330,75a3.66,3.66,0,0,0-1.23-.4,9.26,9.26,0,0,0-1.35-.1,6,6,0,0,0-3,.68,2.9,2.9,0,0,0-1.3,2.58H320.3a6.11,6.11,0,0,1,.67-2.7,5.05,5.05,0,0,1,1.6-1.78,6.73,6.73,0,0,1,2.28-1,12,12,0,0,1,2.75-.3,16.23,16.23,0,0,1,2.32.17,6.07,6.07,0,0,1,2.08.68,4,4,0,0,1,1.5,1.45,4.62,4.62,0,0,1,.57,2.43v8.85a6.59,6.59,0,0,0,.12,1.46q.12.47.78.47a3.44,3.44,0,0,0,.87-.13Zm-4.6-8.83a3.53,3.53,0,0,1-1.4.58q-.87.18-1.82.3t-1.92.27a7.12,7.12,0,0,0-1.73.48,3.14,3.14,0,0,0-1.25.95,2.64,2.64,0,0,0-.48,1.67,2.29,2.29,0,0,0,.28,1.18,2.35,2.35,0,0,0,.73.78,3.09,3.09,0,0,0,1.05.43,5.83,5.83,0,0,0,1.27.13,6.76,6.76,0,0,0,2.4-.38,5.07,5.07,0,0,0,1.63-1,3.82,3.82,0,0,0,.93-1.26,3.17,3.17,0,0,0,.3-1.28Z"/><path class="cls-2" d="M345.23,91.92a18.05,18.05,0,0,1-1,2.13,5.82,5.82,0,0,1-1.07,1.42,3.63,3.63,0,0,1-1.3.8,5,5,0,0,1-1.65.25,7.56,7.56,0,0,1-1-.07,4.75,4.75,0,0,1-1-.23v-2.6a4.73,4.73,0,0,0,.85.28,3.58,3.58,0,0,0,.82.12,2.43,2.43,0,0,0,1.45-.42,2.56,2.56,0,0,0,.88-1.18l1.17-2.9L336.6,72.39h3.2l5,14.1h.07l4.83-14.1h3Z"/><line class="cls-8" x1="915" y1="203.15" x2="51.95" y2="203.15"/><text class="cls-9" transform="translate(362.58 239.24)">S<tspan class="cls-10" x="12.08" y="0">R</tspan><tspan class="cls-11" x="24.26" y="0">V</tspan><tspan class="cls-12" x="36.08" y="0">517792</tspan></text><text class="cls-13" transform="translate(52.97 239.38)"><tspan class="cls-14">R</tspan><tspan class="cls-15" x="11.72" y="0">e</tspan><tspan class="cls-16" x="21.87" y="0">f</tspan><tspan class="cls-15" x="27.97" y="0">e</tspan><tspan class="cls-17" x="38.11" y="0">r</tspan><tspan x="44.75" y="0">en</tspan><tspan class="cls-18" x="65.36" y="0">c</tspan><tspan x="75.16" y="0">e number:</tspan></text><text class="cls-9" transform="translate(363.08 296.24)">E<tspan class="cls-19" x="11.63" y="0">x</tspan><tspan x="21.49" y="0">ampl</tspan><tspan class="cls-20" x="65.21" y="0">e</tspan><tspan x="75.64" y="0" xml:space="preserve"> servi</tspan><tspan class="cls-21" x="122.72" y="0">c</tspan><tspan class="cls-20" x="133" y="0">e</tspan></text><text class="cls-13" transform="translate(53.48 296.38)">Descri<tspan class="cls-22" x="53.92" y="0">p</tspan><tspan class="cls-12" x="64.64" y="0">tion:</tspan></text><line class="cls-8" x1="915.68" y1="259.28" x2="52.63" y2="259.28"/><line class="cls-8" x1="915.68" y1="314.84" x2="52.63" y2="314.84"/><text class="cls-9" transform="translate(362.58 351.27)">£10.00</text><text class="cls-13" transform="translate(52.97 351.4)">Amount:</text><text class="cls-9" transform="translate(363.08 408.26)"><tspan class="cls-19">S</tspan><tspan x="11.95" y="0">u</tspan><tspan class="cls-18" x="22.8" y="0">cc</tspan><tspan x="43.36" y="0">ess</tspan></text><text class="cls-9" transform="translate(363.08 462.58)">1 <tspan class="cls-23" x="11.8" y="0">M</tspan><tspan class="cls-24" x="27.99" y="0">a</tspan><tspan class="cls-25" x="38.02" y="0">y</tspan><tspan x="47.27" y="0" xml:space="preserve"> 2017 - 10:15</tspan></text><text class="cls-9" transform="translate(363.08 519.02)"><tspan class="cls-26">W</tspan><tspan x="16.91" y="0">orldp</tspan><tspan class="cls-24" x="63.76" y="0">a</tspan><tspan class="cls-25" x="73.79" y="0">y</tspan></text><text class="cls-9" transform="translate(363.08 574.6)">a2b5<tspan class="cls-16" x="45.01" y="0">f</tspan><tspan x="51.85" y="0">e60-1f92-4840-aca5</tspan><tspan class="cls-27" x="238.79" y="0">-</tspan><tspan class="cls-15" x="245.57" y="0">7511168b5b3a</tspan></text><text class="cls-28" transform="translate(53.48 408.4)">S<tspan class="cls-12" x="11.23" y="0">tatus:</tspan></text><line class="cls-8" x1="915.68" y1="371.3" x2="52.63" y2="371.3"/><line class="cls-8" x1="915.68" y1="426.86" x2="52.63" y2="426.86"/><text class="cls-13" transform="translate(53.48 462.58)"><tspan class="cls-23">D</tspan><tspan x="13.38" y="0">ate c</tspan><tspan class="cls-17" x="55.35" y="0">r</tspan><tspan x="61.98" y="0">eatied:</tspan></text><line class="cls-8" x1="915.68" y1="482.59" x2="52.63" y2="482.59"/><text class="cls-13" transform="translate(52.97 519.02)"><tspan class="cls-29">P</tspan><tspan class="cls-17" x="11.32" y="0">r</tspan><tspan class="cls-11" x="17.96" y="0">o</tspan><tspan x="28.41" y="0">vider: </tspan></text><text class="cls-13" transform="translate(53.48 574.6)"><tspan class="cls-29">P</tspan><tspan class="cls-17" x="11.32" y="0">r</tspan><tspan class="cls-11" x="17.96" y="0">o</tspan><tspan x="28.41" y="0">vide</tspan><tspan class="cls-25" x="63.17" y="0">r</tspan><tspan class="cls-15" x="69.62" y="0" xml:space="preserve"> ID: </tspan></text><line class="cls-8" x1="915.68" y1="539.05" x2="52.63" y2="539.05"/><line class="cls-8" x1="915.68" y1="594.61" x2="52.63" y2="594.61"/><rect class="cls-30" x="719.22" y="149.06" width="195.76" height="34.54"/><rect class="cls-31" x="719.24" y="145.08" width="195.76" height="34.54"/><text class="cls-32" transform="translate(744 168.95)"><tspan class="cls-14">R</tspan><tspan class="cls-15" x="11.72" y="0">efund p</tspan><tspan class="cls-33" x="75.73" y="0">a</tspan><tspan x="85.4" y="0">yment</tspan></text><g class="cls-34"><rect class="cls-3" y="40.33" width="956" height="595.67"/></g><polygon class="cls-1" points="4 640 4 40 956 40 956 640 960 640 960 36 0 36 0 640 4 640"/><rect class="cls-1" x="0.32" y="636" width="960" height="4"/><path class="cls-2" d="M665.92,586.49H294.08c-3.56,0-6.44-3.16-6.44-7.05V164.15c0-3.89,2.88-7.05,6.44-7.05H665.92c3.56,0,6.44,3.16,6.44,7.05V579.44C672.36,583.33,669.47,586.49,665.92,586.49Z"/><text class="cls-4" transform="translate(311.87 211.21)"><tspan class="cls-35">R</tspan><tspan class="cls-36" x="22.93" y="0">e</tspan><tspan x="42.98" y="0">fund p</tspan><tspan class="cls-37" x="149.04" y="0">a</tspan><tspan x="168.05" y="0">yment</tspan></text><rect class="cls-30" x="314.61" y="520.49" width="195.76" height="34.54"/><rect class="cls-31" x="314.62" y="516.51" width="195.76" height="34.54"/><text class="cls-32" transform="translate(339.39 540.38)"><tspan class="cls-14">R</tspan><tspan class="cls-15" x="11.72" y="0">efund p</tspan><tspan class="cls-33" x="75.73" y="0">a</tspan><tspan x="85.4" y="0">yment</tspan></text><path class="cls-2" d="M332,285.19a16.41,16.41,0,1,1,16.41-16.41A16.43,16.43,0,0,1,332,285.19Z"/><path class="cls-3" d="M332,253.36a15.41,15.41,0,1,1-15.41,15.41A15.43,15.43,0,0,1,332,253.36m0-2a17.41,17.41,0,1,0,17.41,17.41A17.41,17.41,0,0,0,332,251.36Z"/><path class="cls-2" d="M332,357.2a16.41,16.41,0,1,1,16.41-16.41A16.43,16.43,0,0,1,332,357.2Z"/><path class="cls-3" d="M332,325.37a15.41,15.41,0,1,1-15.41,15.41A15.43,15.43,0,0,1,332,325.37m0-2a17.41,17.41,0,1,0,17.41,17.41A17.41,17.41,0,0,0,332,323.37Z"/><text class="cls-38" transform="translate(362.55 275.09)"><tspan class="cls-39"><tspan class="cls-40">F</tspan><tspan x="10.91" y="0">ul</tspan><tspan class="cls-27" x="27.42" y="0">l</tspan><tspan x="32.62" y="0"> </tspan><tspan class="cls-16" x="37.22" y="0">r</tspan><tspan class="cls-18" x="44.44" y="0">e</tspan><tspan x="55.02" y="0">fund</tspan></tspan><tspan class="cls-41"><tspan class="cls-14" x="0" y="22.8">R</tspan><tspan class="cls-15" x="11.72" y="22.8">efund</tspan><tspan class="cls-42" x="59.91" y="22.8"> </tspan><tspan x="64.5" y="22.8">the</tspan><tspan class="cls-20" x="92.32" y="22.8"> </tspan><tspan x="97.05" y="22.8">ful</tspan><tspan class="cls-43" x="118.98" y="22.8">l</tspan><tspan class="cls-15" x="123.67" y="22.8" xml:space="preserve"> amount </tspan><tspan class="cls-23" x="197.81" y="22.8">o</tspan><tspan class="cls-44" x="208.33" y="22.8">f</tspan><tspan class="cls-15" x="214.2" y="22.8"> </tspan><tspan class="cls-45" x="219.18" y="22.8">£</tspan><tspan x="229.96" y="22.8">4</tspan><tspan class="cls-40" x="242.17" y="22.8">0.</tspan><tspan x="259.04" y="22.8">00</tspan></tspan></text><text class="cls-38" transform="translate(362.55 349.97)"><tspan class="cls-39"><tspan class="cls-29">P</tspan><tspan x="11.57" y="0">artia</tspan><tspan class="cls-27" x="52.34" y="0">l</tspan><tspan x="57.55" y="0"> </tspan><tspan class="cls-16" x="62.15" y="0">r</tspan><tspan class="cls-46" x="69.37" y="0">e</tspan><tspan class="cls-12" x="79.95" y="0">fund</tspan></tspan><tspan class="cls-47"><tspan x="0" y="22.8">R</tspan><tspan class="cls-15" x="11.72" y="22.8">efund a partia</tspan><tspan class="cls-43" x="128.61" y="22.8">l</tspan><tspan class="cls-15" x="133.3" y="22.8" xml:space="preserve"> amount</tspan></tspan></text><text class="cls-48" transform="translate(342.96 424.24)">R<tspan class="cls-18" x="12.1" y="0">e</tspan><tspan class="cls-12" x="22.69" y="0">fund amount</tspan></text><path class="cls-3" d="M500.44,437.19v36H345v-36H500.44m2-2H343v40H502.44v-40Z"/><line class="cls-49" x1="320.29" y1="411.54" x2="320.29" y2="487.54"/><text class="cls-13" transform="translate(351.04 461.56)">£ 2<tspan class="cls-40" x="27.28" y="0">0.</tspan><tspan x="44.16" y="0">00</tspan></text><path class="cls-3" d="M332,352.1a11.31,11.31,0,1,1,11.31-11.31A11.33,11.33,0,0,1,332,352.1Z"/><path class="cls-2" d="M332,330.47a10.31,10.31,0,1,1-10.31,10.31A10.33,10.33,0,0,1,332,330.47m0-2a12.31,12.31,0,1,0,12.31,12.31A12.31,12.31,0,0,0,332,328.47Z"/><path class="cls-50" d="M332,323.37a17.41,17.41,0,1,1-17.41,17.41A17.41,17.41,0,0,1,332,323.37m0-3a20.41,20.41,0,1,0,20.41,20.41A20.44,20.44,0,0,0,332,320.37Z"/></svg>