<svg id="Layer_1" data-name="Layer 1" xmlns="http://www.w3.org/2000/svg" viewBox="0 0 960 640"><defs><style>.cls-1{fill:#dadada;}.cls-2,.cls-41{fill:#fff;}.cls-20,.cls-3,.cls-31,.cls-4,.cls-7{fill:#0b0b0b;}.cls-4{font-size:36px;}.cls-31,.cls-4,.cls-7{font-family:NTA-Bold, NTA;}.cls-32,.cls-4,.cls-7{font-weight:700;}.cls-5{letter-spacing:-0.05em;}.cls-6{letter-spacing:0em;}.cls-20,.cls-31,.cls-7{font-size:16px;}.cls-8{letter-spacing:-0.01em;}.cls-9{letter-spacing:-0.02em;}.cls-10{letter-spacing:-0.01em;}.cls-11{letter-spacing:-0.02em;}.cls-12{letter-spacing:-0.01em;}.cls-13{letter-spacing:-0.01em;}.cls-14{letter-spacing:-0.01em;}.cls-15{letter-spacing:-0.02em;}.cls-16{letter-spacing:-0.01em;}.cls-17{letter-spacing:-0.01em;}.cls-18{letter-spacing:0em;}.cls-19{fill:none;stroke:#8c8c8c;stroke-miterlimit:10;}.cls-20,.cls-33,.cls-41{font-family:NTA-Light, NTA;}.cls-21{letter-spacing:-0.01em;}.cls-22{letter-spacing:-0.01em;}.cls-23{letter-spacing:-0.01em;}.cls-24{letter-spacing:-0.01em;}.cls-25{letter-spacing:0.86em;}.cls-26{letter-spacing:-0.01em;}.cls-27{letter-spacing:0em;}.cls-28{letter-spacing:-0.02em;}.cls-29{letter-spacing:0.87em;}.cls-30{letter-spacing:-0.01em;}.cls-34{letter-spacing:0em;}.cls-35{letter-spacing:-0.03em;}.cls-36{letter-spacing:0em;}.cls-37{letter-spacing:-0.01em;}.cls-38{letter-spacing:-0.02em;}.cls-39{fill:#004a1e;}.cls-40{fill:#00823b;}.cls-41{font-size:19px;}.cls-42{letter-spacing:-0.02em;}</style></defs><title>transaction-screen</title><rect class="cls-1" x="51.67" y="197.8" width="864" height="251.45"/><path class="cls-1" d="M0,40V10A10,10,0,0,1,10,0H950a10,10,0,0,1,10,10V40"/><circle class="cls-2" cx="25.38" cy="20" r="8.5"/><circle class="cls-2" cx="49.13" cy="20" r="8.5"/><circle class="cls-2" cx="72.88" cy="20" r="8.5"/><rect class="cls-3" x="1" y="40" width="958" height="65"/><polygon class="cls-2" points="267 59.73 256.29 72.71 256.29 59.73 250.23 59.73 250.23 89.71 256.29 89.71 256.29 80.6 260.16 76.27 268.08 89.71 275.13 89.71 264.05 71.65 274.46 59.73 267 59.73"/><path class="cls-2" d="M229.64,84.27a5.28,5.28,0,0,1-2-1.17,5.52,5.52,0,0,1-1.31-2,7.58,7.58,0,0,1-.48-2.83V59.69h-6V79.17a11,11,0,0,0,.91,4.54,9.89,9.89,0,0,0,2.54,3.45,11.55,11.55,0,0,0,3.86,2.2,15.83,15.83,0,0,0,9.78,0,11.45,11.45,0,0,0,3.85-2.2,9.94,9.94,0,0,0,2.53-3.45,11,11,0,0,0,.91-4.54V59.69h-6V78.28a7.62,7.62,0,0,1-.48,2.83,5.54,5.54,0,0,1-1.31,2,5.3,5.3,0,0,1-2,1.17,8,8,0,0,1-4.91,0"/><path class="cls-2" d="M207.73,87.81a3.93,3.93,0,0,0,.83,1.21,3.74,3.74,0,0,0,1.23.82,3.79,3.79,0,0,0,1.47.29,3.72,3.72,0,0,0,1.46-.29,3.78,3.78,0,0,0,1.21-.82,3.94,3.94,0,0,0,.83-1.21,3.67,3.67,0,0,0,.3-1.49,3.52,3.52,0,0,0-.3-1.45,3.85,3.85,0,0,0-.83-1.19,4,4,0,0,0-1.21-.82,3.58,3.58,0,0,0-1.46-.3,3.65,3.65,0,0,0-1.47.3,4,4,0,0,0-1.23.82,3.84,3.84,0,0,0-.83,1.19,3.53,3.53,0,0,0-.3,1.45,3.68,3.68,0,0,0,.3,1.49"/><polygon class="cls-2" points="198.11 89.71 206.57 59.73 199.86 59.73 194.2 82.27 193.99 82.27 188.19 59.73 181.4 59.73 189.87 89.71 198.11 89.71"/><path class="cls-2" d="M161.31,83.91a7.09,7.09,0,0,1-2.52-2.06,9.28,9.28,0,0,1-1.54-3.11,14.09,14.09,0,0,1-.52-3.93v-.17a14.13,14.13,0,0,1,.52-3.92,9.27,9.27,0,0,1,1.54-3.12,7.07,7.07,0,0,1,2.52-2.06,8.46,8.46,0,0,1,6.93,0,7.2,7.2,0,0,1,2.52,2.06,9.17,9.17,0,0,1,1.55,3.13,14.06,14.06,0,0,1,.52,3.92v.17a14,14,0,0,1-.52,3.93,9.18,9.18,0,0,1-1.55,3.11,7.22,7.22,0,0,1-2.52,2.06,8.46,8.46,0,0,1-6.93,0m-2.54-23.4a13.32,13.32,0,0,0-4.49,3.28,14.3,14.3,0,0,0-2.82,4.89,19.21,19.21,0,0,0,0,12.07,14.45,14.45,0,0,0,2.82,4.89,13.12,13.12,0,0,0,4.49,3.28,15.72,15.72,0,0,0,12,0,13.08,13.08,0,0,0,4.5-3.28,14.46,14.46,0,0,0,2.82-4.89,19.25,19.25,0,0,0,0-12.07,14.31,14.31,0,0,0-2.82-4.89,13.28,13.28,0,0,0-4.5-3.28,15.63,15.63,0,0,0-12,0"/><path class="cls-2" d="M125.68,74.6a14.07,14.07,0,0,1,.48-3.69,9.51,9.51,0,0,1,1.46-3.15,7.37,7.37,0,0,1,2.51-2.19,7.54,7.54,0,0,1,3.64-.83,8,8,0,0,1,2.43.35,6.87,6.87,0,0,1,3.43,2.36,10.32,10.32,0,0,1,1.13,1.79l5.31-3a11.19,11.19,0,0,0-2-2.85,12.15,12.15,0,0,0-2.79-2.2,13.79,13.79,0,0,0-3.49-1.4,16.17,16.17,0,0,0-4-.49,14.18,14.18,0,0,0-5.93,1.2,13.54,13.54,0,0,0-4.51,3.28,14.67,14.67,0,0,0-2.89,4.89,17.65,17.65,0,0,0-1,6,19.43,19.43,0,0,0,.91,6A14.55,14.55,0,0,0,123,85.66a12.29,12.29,0,0,0,4.29,3.28,13.65,13.65,0,0,0,5.83,1.19,11.57,11.57,0,0,0,2.64-.29,10.75,10.75,0,0,0,2.29-.81,8.75,8.75,0,0,0,1.88-1.23,7.38,7.38,0,0,0,1.4-1.6v3.51h5.31V73.28H133.08V77.9h7.67v.29a7.59,7.59,0,0,1-.32,2.09,5.79,5.79,0,0,1-1.13,2.1A6.27,6.27,0,0,1,137.15,84a7.77,7.77,0,0,1-3.38.65,7.54,7.54,0,0,1-3.64-.83,7.36,7.36,0,0,1-2.51-2.18,9.53,9.53,0,0,1-1.46-3.14,14,14,0,0,1-.48-3.7Z"/><path class="cls-2" d="M62.29,65.83a2.63,2.63,0,1,0-1.41-3.42,2.63,2.63,0,0,0,1.41,3.42"/><path class="cls-2" d="M56.33,69.32a2.63,2.63,0,1,0-1.42-3.42,2.63,2.63,0,0,0,1.42,3.42"/><path class="cls-2" d="M54.59,75.95a2.63,2.63,0,1,0-1.41-3.41,2.63,2.63,0,0,0,1.41,3.41"/><path class="cls-2" d="M68.95,67.93a2.63,2.63,0,1,0-1.41-3.42,2.63,2.63,0,0,0,1.41,3.42"/><path class="cls-2" d="M93,65.83a2.63,2.63,0,1,1,1.41-3.42A2.63,2.63,0,0,1,93,65.83"/><path class="cls-2" d="M99,69.32a2.63,2.63,0,1,1,1.42-3.42A2.63,2.63,0,0,1,99,69.32"/><path class="cls-2" d="M100.75,75.95a2.63,2.63,0,1,1,1.41-3.41,2.63,2.63,0,0,1-1.41,3.41"/><path class="cls-2" d="M86.4,67.93a2.63,2.63,0,1,1,1.41-3.42,2.63,2.63,0,0,1-1.41,3.42"/><path class="cls-2" d="M79.06,61.13h0l3.33,1.75V58L79.07,59h0a1.66,1.66,0,0,0-.32-.33h0l1.34-4.21h-4.8l1.34,4.21h0a1.7,1.7,0,0,0-.32.33h0L72.94,58v4.9l3.33-1.75h0a1.76,1.76,0,0,0,.34.34L74.7,67.24v0h0a3.1,3.1,0,0,0,2.51,4h.07l.39,0,.39,0h.07a3.1,3.1,0,0,0,2.65-3.07,3.14,3.14,0,0,0-.14-.91h0v0l-1.91-5.77a1.8,1.8,0,0,0,.34-.34"/><path class="cls-2" d="M77.67,89.35a125.8,125.8,0,0,1,17.63,1.19c1.51-6.36,3.35-10,5.25-12.6L97,76.66a6.54,6.54,0,0,1,0,3.83,7.26,7.26,0,0,1-1.59-3.26L93.66,83a5.29,5.29,0,0,1,2.8-1.22c-1.65,3.56-3.71,4.47-5.05,4.23a2.54,2.54,0,0,1-2.13-3c.38-1.75,2.17-2.21,3-.17,1.6-3.27-1.12-4.29-2.87-3.32,2.69-2.68,3-5.07.83-7.95-3,2.31-3.06,4.6-1.7,7.82-1.77-2-4.51-.94-3.52,2.33,1.27-2,3-.73,2.69,1.14-.22,1.63-2.38,2.95-5.06,2.72-3.84-.35-4.07-3-4.17-5.2.94-.17,2.65.7,4.1,2.74L83.13,77a6,6,0,0,1-4.6,2c.53-1.65,3-4.37,3-4.37H73.85s2.44,2.71,3,4.37a6,6,0,0,1-4.6-2l.53,6.13c1.45-2,3.15-2.91,4.1-2.74-.1,2.2-.32,4.85-4.17,5.2-2.68.23-4.84-1.08-5.06-2.72C67.35,81,69,79.77,70.31,81.74c1-3.26-1.75-4.35-3.52-2.33,1.36-3.22,1.32-5.51-1.7-7.82-2.17,2.88-1.86,5.27.83,7.95-1.75-1-4.47.05-2.87,3.32.84-2,2.63-1.58,3,.17a2.54,2.54,0,0,1-2.13,3c-1.34.25-3.4-.67-5-4.23A5.3,5.3,0,0,1,61.68,83l-1.74-5.78a7.24,7.24,0,0,1-1.59,3.26,6.55,6.55,0,0,1,0-3.83l-3.58,1.27c1.9,2.59,3.74,6.24,5.25,12.6a126,126,0,0,1,17.62-1.19"/><polygon class="cls-1" points="4 640 4 40 956 40 956 640 960 640 960 36 0 36 0 640 4 640"/><text class="cls-4" transform="translate(51.95 170.28)"><tspan class="cls-5">T</tspan><tspan class="cls-6" x="18.18" y="0">r</tspan><tspan x="32" y="0">ansactions</tspan></text><path class="cls-2" d="M309.87,65.82a7.39,7.39,0,0,1,5.45,1.85,7,7,0,0,1,1.85,5.18,7.06,7.06,0,0,1-1.85,5.2,7.25,7.25,0,0,1-5.45,1.83H302.6v9.73h-3.17V65.82Zm-1.07,11.4a5.65,5.65,0,0,0,3.95-1.1A4.18,4.18,0,0,0,314,72.86a4.13,4.13,0,0,0-1.25-3.25,5.82,5.82,0,0,0-3.95-1.12h-6.2v8.73Z"/><path class="cls-2" d="M335.83,89.56a4,4,0,0,1-2,.43,2.44,2.44,0,0,1-1.75-.62,2.68,2.68,0,0,1-.65-2,6.78,6.78,0,0,1-2.72,2,9.37,9.37,0,0,1-5.57.35,5.15,5.15,0,0,1-1.82-.83,4,4,0,0,1-1.22-1.48,5,5,0,0,1-.45-2.22,5.06,5.06,0,0,1,.5-2.4,4.37,4.37,0,0,1,1.32-1.52,6,6,0,0,1,1.87-.88q1-.3,2.15-.5t2.22-.35a12.29,12.29,0,0,0,1.85-.33,3.08,3.08,0,0,0,1.27-.63,1.55,1.55,0,0,0,.47-1.22,2.83,2.83,0,0,0-.35-1.5A2.4,2.4,0,0,0,330,75a3.66,3.66,0,0,0-1.23-.4,9.26,9.26,0,0,0-1.35-.1,6,6,0,0,0-3,.68,2.9,2.9,0,0,0-1.3,2.58H320.3a6.11,6.11,0,0,1,.67-2.7,5.05,5.05,0,0,1,1.6-1.78,6.73,6.73,0,0,1,2.28-1,12,12,0,0,1,2.75-.3,16.23,16.23,0,0,1,2.32.17,6.07,6.07,0,0,1,2.08.68,4,4,0,0,1,1.5,1.45,4.62,4.62,0,0,1,.57,2.43v8.85a6.59,6.59,0,0,0,.12,1.46q.12.47.78.47a3.44,3.44,0,0,0,.87-.13Zm-4.6-8.83a3.53,3.53,0,0,1-1.4.58q-.87.18-1.82.3t-1.92.27a7.13,7.13,0,0,0-1.73.48,3.14,3.14,0,0,0-1.25.95,2.64,2.64,0,0,0-.48,1.67,2.29,2.29,0,0,0,.28,1.18,2.35,2.35,0,0,0,.73.78,3.09,3.09,0,0,0,1.05.43,5.83,5.83,0,0,0,1.27.13,6.76,6.76,0,0,0,2.4-.38,5.07,5.07,0,0,0,1.63-1,3.82,3.82,0,0,0,.93-1.26,3.17,3.17,0,0,0,.3-1.28Z"/><path class="cls-2" d="M345.23,91.92a18.07,18.07,0,0,1-1,2.13,5.83,5.83,0,0,1-1.07,1.42,3.63,3.63,0,0,1-1.3.8,5,5,0,0,1-1.65.25,7.56,7.56,0,0,1-1-.07,4.75,4.75,0,0,1-1-.23v-2.6a4.73,4.73,0,0,0,.85.28,3.58,3.58,0,0,0,.82.12,2.43,2.43,0,0,0,1.45-.42,2.56,2.56,0,0,0,.88-1.18l1.17-2.9L336.6,72.39h3.2l5,14.1h.07l4.83-14.1h3Z"/><text class="cls-7" transform="translate(202.58 493.75)"><tspan class="cls-8">E</tspan><tspan x="9.71" y="0">mai</tspan><tspan class="cls-9" x="36.38" y="0">l</tspan><tspan x="40.77" y="0" xml:space="preserve"> add</tspan><tspan class="cls-10" x="72.32" y="0">r</tspan><tspan x="78.4" y="0">ess</tspan></text><text class="cls-7" transform="translate(52.97 474.55)"><tspan class="cls-11">R</tspan><tspan class="cls-8" x="10.19" y="0">e</tspan><tspan class="cls-12" x="19.1" y="0">f</tspan><tspan x="24.86" y="0">e</tspan><tspan class="cls-10" x="33.86" y="0">r</tspan><tspan x="39.94" y="0">en</tspan><tspan class="cls-13" x="58.06" y="0">c</tspan><tspan class="cls-14" x="66.72" y="0">e</tspan><tspan x="75.5" y="0" xml:space="preserve"> </tspan><tspan x="0" y="19.2">numbe</tspan><tspan class="cls-15" x="50.74" y="19.2">r</tspan></text><text class="cls-7" transform="translate(376.48 493.75)">Amount</text><text class="cls-7" transform="translate(505.9 493.75)">Ca<tspan class="cls-16" x="19.71" y="0">r</tspan><tspan x="25.81" y="0">d</tspan><tspan class="cls-15" x="35.36" y="0"> </tspan><tspan x="38.9" y="0">typ</tspan><tspan class="cls-14" x="63.39" y="0">e</tspan></text><text class="cls-7" transform="translate(648.3 493.75)"><tspan class="cls-17">P</tspan><tspan class="cls-10" x="9.74" y="0">a</tspan><tspan class="cls-18" x="18.19" y="0">yment st</tspan><tspan class="cls-8" x="84" y="0">a</tspan><tspan x="92.5" y="0">tus</tspan></text><text class="cls-7" transform="translate(825.1 493.75)"><tspan class="cls-16">D</tspan><tspan class="cls-8" x="11.42" y="0">a</tspan><tspan x="19.92" y="0">t</tspan><tspan class="cls-14" x="26.72" y="0">e</tspan></text><line class="cls-19" x1="915" y1="506.29" x2="51.95" y2="506.29"/><text class="cls-20" transform="translate(202.58 532.5)">b_north13@h<tspan class="cls-12" x="93.2" y="0">o</tspan><tspan x="102.03" y="0">tm...</tspan></text><text class="cls-20" transform="translate(52.97 532.5)">S<tspan class="cls-21" x="9.78" y="0">R</tspan><tspan class="cls-22" x="19.73" y="0">V</tspan><tspan x="29.26" y="0">517792</tspan></text><text class="cls-20" transform="translate(376.48 532.5)"><tspan class="cls-23">£</tspan><tspan x="9.07" y="0">4</tspan><tspan class="cls-24" x="19.36" y="0">0.</tspan><tspan x="33.57" y="0">00</tspan><tspan class="cls-25" x="53.98" y="0">	</tspan></text><text class="cls-20" transform="translate(507.89 528.29)">Visa</text><text class="cls-20" transform="translate(648.3 532.5)"><tspan class="cls-26">I</tspan><tspan x="4.5" y="0">n p</tspan><tspan class="cls-22" x="26.64" y="0">r</tspan><tspan x="32.22" y="0">og</tspan><tspan class="cls-22" x="50.1" y="0">r</tspan><tspan x="55.68" y="0">ess</tspan></text><text class="cls-20" transform="translate(825.1 532.5)">1 <tspan class="cls-10" x="9.98" y="0">M</tspan><tspan class="cls-27" x="23.52" y="0">a</tspan><tspan class="cls-28" x="31.66" y="0">y</tspan><tspan class="cls-18" x="38.94" y="0" xml:space="preserve"> 2017 - </tspan><tspan x="0" y="19.2">10:15</tspan></text><line class="cls-19" x1="915.68" y1="562.41" x2="52.63" y2="562.41"/><text class="cls-20" transform="translate(202.58 587.49)"><tspan class="cls-8">l</tspan><tspan x="4.3" y="0">yman.sarah60@...</tspan></text><text class="cls-20" transform="translate(52.97 587.49)">S<tspan class="cls-21" x="9.78" y="0">R</tspan><tspan class="cls-22" x="19.73" y="0">V</tspan><tspan x="29.26" y="0">517791</tspan></text><text class="cls-20" transform="translate(376.48 587.49)">£8<tspan class="cls-24" x="19.22" y="0">0.</tspan><tspan x="33.42" y="0">00</tspan><tspan class="cls-29" x="53.84" y="0">	</tspan></text><text class="cls-20" transform="translate(507.89 586.11)"><tspan class="cls-12">M</tspan><tspan x="13.54" y="0">aste</tspan><tspan class="cls-22" x="43.87" y="0">r</tspan><tspan class="cls-27" x="49.46" y="0">c</tspan><tspan x="57.73" y="0">a</tspan><tspan class="cls-30" x="65.94" y="0">r</tspan><tspan class="cls-18" x="71.55" y="0">d</tspan></text><text class="cls-20" transform="translate(648.3 587.49)"><tspan class="cls-26">I</tspan><tspan x="4.5" y="0">n p</tspan><tspan class="cls-22" x="26.64" y="0">r</tspan><tspan x="32.22" y="0">og</tspan><tspan class="cls-22" x="50.1" y="0">r</tspan><tspan x="55.68" y="0">ess</tspan></text><text class="cls-20" transform="translate(825.1 587.49)">1 <tspan class="cls-10" x="9.98" y="0">M</tspan><tspan class="cls-27" x="23.52" y="0">a</tspan><tspan class="cls-28" x="31.66" y="0">y</tspan><tspan class="cls-18" x="38.94" y="0" xml:space="preserve"> 2017 - </tspan><tspan x="0" y="19.2">09:58</tspan></text><line class="cls-19" x1="915.68" y1="617.97" x2="52.63" y2="617.97"/><text class="cls-31" transform="translate(66.99 230.4)"><tspan class="cls-32"><tspan class="cls-11">R</tspan><tspan class="cls-8" x="10.19" y="0">e</tspan><tspan class="cls-12" x="19.1" y="0">f</tspan><tspan x="24.86" y="0">e</tspan><tspan class="cls-10" x="33.86" y="0">r</tspan><tspan x="39.94" y="0">en</tspan><tspan class="cls-13" x="58.06" y="0">c</tspan><tspan class="cls-14" x="66.72" y="0">e</tspan><tspan x="75.5" y="0" xml:space="preserve"> numbe</tspan><tspan class="cls-15" x="130.11" y="0">r</tspan></tspan><tspan class="cls-33"><tspan class="cls-17" x="0" y="19.2">E</tspan><tspan class="cls-34" x="9.41" y="19.2">nte</tspan><tspan class="cls-28" x="32.83" y="19.2">r</tspan><tspan class="cls-21" x="38.26" y="19.2"> </tspan><tspan x="42.24" y="19.2">ful</tspan><tspan class="cls-35" x="60.7" y="19.2">l</tspan><tspan class="cls-18" x="64.66" y="19.2" xml:space="preserve"> o</tspan><tspan class="cls-28" x="77.81" y="19.2">r</tspan><tspan class="cls-18" x="83.23" y="19.2" xml:space="preserve"> partia</tspan><tspan class="cls-35" x="128.69" y="19.2">l</tspan><tspan class="cls-34" x="132.64" y="19.2" xml:space="preserve"> d</tspan><tspan class="cls-8" x="145.97" y="19.2">e</tspan><tspan class="cls-34" x="154.43" y="19.2">tails</tspan></tspan></text><text class="cls-31" transform="translate(279.32 230.4)"><tspan class="cls-32"><tspan class="cls-8">E</tspan><tspan x="9.71" y="0">mai</tspan><tspan class="cls-9" x="36.38" y="0">l</tspan><tspan x="40.77" y="0"></tspan></tspan><tspan class="cls-33"><tspan class="cls-17" x="0" y="19.2">E</tspan><tspan class="cls-34" x="9.41" y="19.2">nte</tspan><tspan class="cls-28" x="32.83" y="19.2">r</tspan><tspan class="cls-21" x="38.26" y="19.2"> </tspan><tspan x="42.24" y="19.2">ful</tspan><tspan class="cls-35" x="60.7" y="19.2">l</tspan><tspan class="cls-18" x="64.66" y="19.2" xml:space="preserve"> o</tspan><tspan class="cls-28" x="77.81" y="19.2">r</tspan><tspan class="cls-18" x="83.23" y="19.2" xml:space="preserve"> partia</tspan><tspan class="cls-35" x="128.69" y="19.2">l</tspan><tspan class="cls-34" x="132.64" y="19.2" xml:space="preserve"> d</tspan><tspan class="cls-8" x="145.97" y="19.2">e</tspan><tspan class="cls-34" x="154.43" y="19.2">tails</tspan></tspan></text><text class="cls-31" transform="translate(492.06 230.4)"><tspan class="cls-32"><tspan class="cls-17">P</tspan><tspan class="cls-10" x="9.74" y="0">a</tspan><tspan class="cls-18" x="18.19" y="0">yment st</tspan><tspan class="cls-8" x="84" y="0">a</tspan><tspan x="92.5" y="0">tus</tspan></tspan><tspan class="cls-33"><tspan x="0" y="19.2">Select an o</tspan><tspan class="cls-26" x="80.01" y="19.2">p</tspan><tspan x="89.04" y="19.2">tion</tspan></tspan></text><text class="cls-31" transform="translate(702.87 230.4)"><tspan class="cls-32">Ca<tspan class="cls-16" x="19.71" y="0">r</tspan><tspan x="25.81" y="0">d</tspan><tspan class="cls-15" x="35.36" y="0"> </tspan><tspan x="38.9" y="0">typ</tspan><tspan class="cls-14" x="63.39" y="0">e</tspan></tspan><tspan class="cls-33"><tspan x="0" y="19.2">Select an o</tspan><tspan class="cls-26" x="80.01" y="19.2">p</tspan><tspan x="89.04" y="19.2">tion</tspan></tspan></text><rect class="cls-2" x="68.44" y="259.99" width="194.36" height="36.16"/><path class="cls-3" d="M261.8,261v34.16H69.44V261H261.8m2-2H67.44v38.16H263.8V259Z"/><rect class="cls-2" x="278.8" y="259.99" width="194.36" height="36.16"/><path class="cls-3" d="M472.16,261v34.16H279.8V261H472.16m2-2H277.8v38.16H474.16V259Z"/><text class="cls-31" transform="translate(67.44 339.16)"><tspan class="cls-32"><tspan class="cls-16">D</tspan><tspan class="cls-8" x="11.42" y="0">a</tspan><tspan x="19.92" y="0">t</tspan><tspan class="cls-14" x="26.72" y="0">e</tspan><tspan x="35.5" y="0"> </tspan><tspan class="cls-36" x="39.38" y="0">r</tspan><tspan x="45.52" y="0">ang</tspan><tspan class="cls-37" x="72.5" y="0">e</tspan></tspan><tspan class="cls-33"><tspan class="cls-17" x="0" y="19.2">D</tspan><tspan x="11.26" y="19.2">ate</tspan></tspan></text><text class="cls-31" transform="translate(194.27 339.16)"><tspan class="cls-32"></tspan><tspan class="cls-33"><tspan x="0" y="19.2">Time</tspan></tspan></text><rect class="cls-2" x="68.89" y="368.75" width="117" height="36.16"/><path class="cls-3" d="M184.89,369.75v34.16h-115V369.75h115m2-2h-119v38.16h119V367.75Z"/><rect class="cls-2" x="195.27" y="368.75" width="117" height="36.16"/><path class="cls-3" d="M311.27,369.75v34.16h-115V369.75h115m2-2h-119v38.16h119V367.75Z"/><path class="cls-2" d="M495,296.15a5,5,0,0,1-5-5V265a5,5,0,0,1,5-5H679.41a5,5,0,0,1,5,5v26.16a5,5,0,0,1-5,5Z"/><path class="cls-3" d="M679.41,261a4,4,0,0,1,4,4v26.16a4,4,0,0,1-4,4H495a4,4,0,0,1-4-4V265a4,4,0,0,1,4-4H679.41m0-2H495a6,6,0,0,0-6,6v26.16a6,6,0,0,0,6,6H679.41a6,6,0,0,0,6-6V265a6,6,0,0,0-6-6Z"/><path class="cls-2" d="M704.26,296.15a5,5,0,0,1-5-5V265a5,5,0,0,1,5-5H888.7a5,5,0,0,1,5,5v26.16a5,5,0,0,1-5,5Z"/><path class="cls-3" d="M888.7,261a4,4,0,0,1,4,4v26.16a4,4,0,0,1-4,4H704.26a4,4,0,0,1-4-4V265a4,4,0,0,1,4-4H888.7m0-2H704.26a6,6,0,0,0-6,6v26.16a6,6,0,0,0,6,6H888.7a6,6,0,0,0,6-6V265a6,6,0,0,0-6-6Z"/><text class="cls-20" transform="translate(194.27 422.94)">eg 9:30:00</text><text class="cls-20" transform="translate(330.33 391.68)">to</text><text class="cls-20" transform="translate(67.89 422.94)">eg 25/11/2015</text><text class="cls-20"><tspan class="cls-17" x="360.87" y="358.36">D</tspan><tspan x="372.13" y="358.36">ate</tspan></text><text class="cls-20" transform="translate(506.25 283.92)"><tspan class="cls-8">A</tspan><tspan x="10.05" y="0">l</tspan><tspan class="cls-35" x="14.43" y="0">l</tspan><tspan class="cls-38" x="18.38" y="0"> </tspan><tspan x="22.26" y="0">transactions</tspan></text><text class="cls-20" transform="translate(714.25 283.92)"><tspan class="cls-8">A</tspan><tspan x="10.05" y="0">l</tspan><tspan class="cls-35" x="14.43" y="0">l</tspan><tspan class="cls-38" x="18.38" y="0"> </tspan><tspan x="22.26" y="0">types</tspan></text><rect class="cls-2" x="362.32" y="368.75" width="117" height="36.16"/><path class="cls-3" d="M478.32,369.75v34.16h-115V369.75h115m2-2h-119v38.16h119V367.75Z"/><rect class="cls-2" x="488.7" y="368.75" width="117" height="36.16"/><path class="cls-3" d="M604.7,369.75v34.16h-115V369.75h115m2-2h-119v38.16h119V367.75Z"/><text class="cls-20" transform="translate(487.7 422.94)">eg 15:00:00</text><text class="cls-20" transform="translate(361.32 422.94)">eg 25/11/2015</text><rect class="cls-39" x="706.63" y="371.79" width="108.61" height="34.54"/><rect class="cls-40" x="706.64" y="367.81" width="108.61" height="34.54"/><text class="cls-41" transform="translate(738.75 391.68)">Filte<tspan class="cls-42" x="37.96" y="0">r</tspan></text><polygon class="cls-3" points="673.26 286.6 668.24 279.09 678.28 279.09 673.26 286.6"/><polygon class="cls-3" points="673.26 269.55 668.24 277.05 678.28 277.05 673.26 269.55"/><polygon class="cls-3" points="884.76 286.6 879.74 279.09 889.78 279.09 884.76 286.6"/><polygon class="cls-3" points="884.76 269.55 879.74 277.05 889.78 277.05 884.76 269.55"/><rect class="cls-1" x="0.32" y="636" width="960" height="4"/></svg>